G04 #@! TF.GenerationSoftware,KiCad,Pcbnew,(5.1.2-1)-1*
G04 #@! TF.CreationDate,2019-06-10T18:00:08-04:00*
G04 #@! TF.ProjectId,dc4044,64633430-3434-42e6-9b69-6361645f7063,rev?*
G04 #@! TF.SameCoordinates,Original*
G04 #@! TF.FileFunction,Legend,Top*
G04 #@! TF.FilePolarity,Positive*
%FSLAX46Y46*%
G04 Gerber Fmt 4.6, Leading zero omitted, Abs format (unit mm)*
G04 Created by KiCad (PCBNEW (5.1.2-1)-1) date 2019-06-10 18:00:08*
%MOMM*%
%LPD*%
G04 APERTURE LIST*
%ADD10C,0.010000*%
%ADD11C,0.500000*%
%ADD12C,2.127200*%
%ADD13O,2.127200X2.127200*%
%ADD14R,2.127200X2.127200*%
G04 APERTURE END LIST*
D10*
G36*
X176770158Y-91645627D02*
G01*
X176834609Y-91659623D01*
X176932017Y-91680432D01*
X177058137Y-91707158D01*
X177208722Y-91738902D01*
X177379527Y-91774768D01*
X177566307Y-91813858D01*
X177750046Y-91852198D01*
X177946663Y-91893280D01*
X178130258Y-91931859D01*
X178296742Y-91967059D01*
X178442024Y-91998007D01*
X178562016Y-92023826D01*
X178652627Y-92043642D01*
X178709768Y-92056579D01*
X178729328Y-92061706D01*
X178721991Y-92081637D01*
X178698293Y-92136099D01*
X178659953Y-92221343D01*
X178608691Y-92333622D01*
X178546226Y-92469188D01*
X178474279Y-92624294D01*
X178394569Y-92795192D01*
X178308817Y-92978135D01*
X178307266Y-92981436D01*
X178192409Y-93224516D01*
X178094295Y-93429250D01*
X178012703Y-93596077D01*
X177947409Y-93725438D01*
X177898192Y-93817772D01*
X177864830Y-93873519D01*
X177847101Y-93893117D01*
X177846567Y-93893155D01*
X177821246Y-93885595D01*
X177760157Y-93864282D01*
X177667062Y-93830613D01*
X177545724Y-93785981D01*
X177399904Y-93731783D01*
X177233365Y-93669412D01*
X177049870Y-93600265D01*
X176853180Y-93525736D01*
X176756484Y-93488954D01*
X176555722Y-93412428D01*
X176367162Y-93340432D01*
X176194456Y-93274367D01*
X176041258Y-93215638D01*
X175911221Y-93165647D01*
X175807998Y-93125798D01*
X175735244Y-93097495D01*
X175696611Y-93082140D01*
X175691241Y-93079766D01*
X175701587Y-93061784D01*
X175733990Y-93012927D01*
X175785951Y-92936802D01*
X175854970Y-92837014D01*
X175938545Y-92717171D01*
X176034176Y-92580879D01*
X176139363Y-92431745D01*
X176196252Y-92351382D01*
X176330752Y-92162369D01*
X176443107Y-92006232D01*
X176534959Y-91880831D01*
X176607952Y-91784025D01*
X176663730Y-91713673D01*
X176703935Y-91667634D01*
X176730212Y-91643769D01*
X176742910Y-91639343D01*
X176770158Y-91645627D01*
X176770158Y-91645627D01*
G37*
X176770158Y-91645627D02*
X176834609Y-91659623D01*
X176932017Y-91680432D01*
X177058137Y-91707158D01*
X177208722Y-91738902D01*
X177379527Y-91774768D01*
X177566307Y-91813858D01*
X177750046Y-91852198D01*
X177946663Y-91893280D01*
X178130258Y-91931859D01*
X178296742Y-91967059D01*
X178442024Y-91998007D01*
X178562016Y-92023826D01*
X178652627Y-92043642D01*
X178709768Y-92056579D01*
X178729328Y-92061706D01*
X178721991Y-92081637D01*
X178698293Y-92136099D01*
X178659953Y-92221343D01*
X178608691Y-92333622D01*
X178546226Y-92469188D01*
X178474279Y-92624294D01*
X178394569Y-92795192D01*
X178308817Y-92978135D01*
X178307266Y-92981436D01*
X178192409Y-93224516D01*
X178094295Y-93429250D01*
X178012703Y-93596077D01*
X177947409Y-93725438D01*
X177898192Y-93817772D01*
X177864830Y-93873519D01*
X177847101Y-93893117D01*
X177846567Y-93893155D01*
X177821246Y-93885595D01*
X177760157Y-93864282D01*
X177667062Y-93830613D01*
X177545724Y-93785981D01*
X177399904Y-93731783D01*
X177233365Y-93669412D01*
X177049870Y-93600265D01*
X176853180Y-93525736D01*
X176756484Y-93488954D01*
X176555722Y-93412428D01*
X176367162Y-93340432D01*
X176194456Y-93274367D01*
X176041258Y-93215638D01*
X175911221Y-93165647D01*
X175807998Y-93125798D01*
X175735244Y-93097495D01*
X175696611Y-93082140D01*
X175691241Y-93079766D01*
X175701587Y-93061784D01*
X175733990Y-93012927D01*
X175785951Y-92936802D01*
X175854970Y-92837014D01*
X175938545Y-92717171D01*
X176034176Y-92580879D01*
X176139363Y-92431745D01*
X176196252Y-92351382D01*
X176330752Y-92162369D01*
X176443107Y-92006232D01*
X176534959Y-91880831D01*
X176607952Y-91784025D01*
X176663730Y-91713673D01*
X176703935Y-91667634D01*
X176730212Y-91643769D01*
X176742910Y-91639343D01*
X176770158Y-91645627D01*
G36*
X178277652Y-89081129D02*
G01*
X178332843Y-89098133D01*
X178418201Y-89125230D01*
X178528729Y-89160776D01*
X178659426Y-89203128D01*
X178805297Y-89250643D01*
X178961341Y-89301679D01*
X179122561Y-89354591D01*
X179283958Y-89407736D01*
X179440535Y-89459472D01*
X179587293Y-89508154D01*
X179719234Y-89552140D01*
X179831359Y-89589787D01*
X179918671Y-89619451D01*
X179976171Y-89639489D01*
X179998861Y-89648258D01*
X179998970Y-89648348D01*
X179992934Y-89669496D01*
X179970482Y-89724085D01*
X179933798Y-89807523D01*
X179885063Y-89915223D01*
X179826461Y-90042594D01*
X179760174Y-90185046D01*
X179688383Y-90337991D01*
X179613272Y-90496838D01*
X179537024Y-90656998D01*
X179461820Y-90813882D01*
X179389843Y-90962899D01*
X179323275Y-91099461D01*
X179264299Y-91218978D01*
X179215098Y-91316860D01*
X179177853Y-91388518D01*
X179154748Y-91429362D01*
X179148317Y-91437211D01*
X179123981Y-91432638D01*
X179062291Y-91420186D01*
X178967315Y-91400698D01*
X178843125Y-91375018D01*
X178693791Y-91343991D01*
X178523381Y-91308460D01*
X178335967Y-91269269D01*
X178135618Y-91227263D01*
X178111150Y-91222126D01*
X177910122Y-91179855D01*
X177722048Y-91140199D01*
X177550923Y-91104009D01*
X177400741Y-91072134D01*
X177275494Y-91045423D01*
X177179178Y-91024727D01*
X177115785Y-91010895D01*
X177089311Y-91004778D01*
X177088788Y-91004593D01*
X177098647Y-90986702D01*
X177128082Y-90936708D01*
X177174639Y-90858656D01*
X177235865Y-90756595D01*
X177309308Y-90634571D01*
X177392516Y-90496631D01*
X177483036Y-90346823D01*
X177578415Y-90189193D01*
X177676200Y-90027789D01*
X177773939Y-89866658D01*
X177869180Y-89709846D01*
X177959470Y-89561402D01*
X178042356Y-89425371D01*
X178115385Y-89305802D01*
X178176106Y-89206741D01*
X178222065Y-89132235D01*
X178250809Y-89086331D01*
X178257625Y-89075862D01*
X178277652Y-89081129D01*
X178277652Y-89081129D01*
G37*
X178277652Y-89081129D02*
X178332843Y-89098133D01*
X178418201Y-89125230D01*
X178528729Y-89160776D01*
X178659426Y-89203128D01*
X178805297Y-89250643D01*
X178961341Y-89301679D01*
X179122561Y-89354591D01*
X179283958Y-89407736D01*
X179440535Y-89459472D01*
X179587293Y-89508154D01*
X179719234Y-89552140D01*
X179831359Y-89589787D01*
X179918671Y-89619451D01*
X179976171Y-89639489D01*
X179998861Y-89648258D01*
X179998970Y-89648348D01*
X179992934Y-89669496D01*
X179970482Y-89724085D01*
X179933798Y-89807523D01*
X179885063Y-89915223D01*
X179826461Y-90042594D01*
X179760174Y-90185046D01*
X179688383Y-90337991D01*
X179613272Y-90496838D01*
X179537024Y-90656998D01*
X179461820Y-90813882D01*
X179389843Y-90962899D01*
X179323275Y-91099461D01*
X179264299Y-91218978D01*
X179215098Y-91316860D01*
X179177853Y-91388518D01*
X179154748Y-91429362D01*
X179148317Y-91437211D01*
X179123981Y-91432638D01*
X179062291Y-91420186D01*
X178967315Y-91400698D01*
X178843125Y-91375018D01*
X178693791Y-91343991D01*
X178523381Y-91308460D01*
X178335967Y-91269269D01*
X178135618Y-91227263D01*
X178111150Y-91222126D01*
X177910122Y-91179855D01*
X177722048Y-91140199D01*
X177550923Y-91104009D01*
X177400741Y-91072134D01*
X177275494Y-91045423D01*
X177179178Y-91024727D01*
X177115785Y-91010895D01*
X177089311Y-91004778D01*
X177088788Y-91004593D01*
X177098647Y-90986702D01*
X177128082Y-90936708D01*
X177174639Y-90858656D01*
X177235865Y-90756595D01*
X177309308Y-90634571D01*
X177392516Y-90496631D01*
X177483036Y-90346823D01*
X177578415Y-90189193D01*
X177676200Y-90027789D01*
X177773939Y-89866658D01*
X177869180Y-89709846D01*
X177959470Y-89561402D01*
X178042356Y-89425371D01*
X178115385Y-89305802D01*
X178176106Y-89206741D01*
X178222065Y-89132235D01*
X178250809Y-89086331D01*
X178257625Y-89075862D01*
X178277652Y-89081129D01*
G36*
X179721156Y-86944660D02*
G01*
X179782304Y-86954275D01*
X179873299Y-86971368D01*
X179988500Y-86994663D01*
X180122268Y-87022886D01*
X180268961Y-87054760D01*
X180422938Y-87089011D01*
X180578560Y-87124364D01*
X180730184Y-87159544D01*
X180872172Y-87193275D01*
X180998881Y-87224283D01*
X181104672Y-87251292D01*
X181183903Y-87273027D01*
X181230935Y-87288214D01*
X181240826Y-87293127D01*
X181234341Y-87313419D01*
X181211697Y-87367284D01*
X181175050Y-87450130D01*
X181126557Y-87557365D01*
X181068375Y-87684396D01*
X181002660Y-87826630D01*
X180931569Y-87979475D01*
X180857260Y-88138339D01*
X180781888Y-88298630D01*
X180707611Y-88455754D01*
X180636585Y-88605120D01*
X180570968Y-88742135D01*
X180512915Y-88862207D01*
X180464585Y-88960742D01*
X180428133Y-89033150D01*
X180405716Y-89074838D01*
X180400281Y-89082889D01*
X180380273Y-89076862D01*
X180324280Y-89058426D01*
X180236346Y-89028950D01*
X180120516Y-88989804D01*
X179980831Y-88942357D01*
X179821337Y-88887979D01*
X179646077Y-88828039D01*
X179510052Y-88781402D01*
X179325653Y-88718036D01*
X179153981Y-88658891D01*
X178999096Y-88605378D01*
X178865060Y-88558907D01*
X178755936Y-88520887D01*
X178675783Y-88492731D01*
X178628665Y-88475847D01*
X178617465Y-88471454D01*
X178627480Y-88453143D01*
X178659155Y-88404684D01*
X178709486Y-88330332D01*
X178775471Y-88234344D01*
X178854103Y-88120978D01*
X178942380Y-87994490D01*
X179037298Y-87859136D01*
X179135852Y-87719175D01*
X179235040Y-87578862D01*
X179331855Y-87442454D01*
X179423296Y-87314209D01*
X179506357Y-87198382D01*
X179578036Y-87099232D01*
X179635327Y-87021015D01*
X179675227Y-86967987D01*
X179694732Y-86944405D01*
X179695497Y-86943796D01*
X179721156Y-86944660D01*
X179721156Y-86944660D01*
G37*
X179721156Y-86944660D02*
X179782304Y-86954275D01*
X179873299Y-86971368D01*
X179988500Y-86994663D01*
X180122268Y-87022886D01*
X180268961Y-87054760D01*
X180422938Y-87089011D01*
X180578560Y-87124364D01*
X180730184Y-87159544D01*
X180872172Y-87193275D01*
X180998881Y-87224283D01*
X181104672Y-87251292D01*
X181183903Y-87273027D01*
X181230935Y-87288214D01*
X181240826Y-87293127D01*
X181234341Y-87313419D01*
X181211697Y-87367284D01*
X181175050Y-87450130D01*
X181126557Y-87557365D01*
X181068375Y-87684396D01*
X181002660Y-87826630D01*
X180931569Y-87979475D01*
X180857260Y-88138339D01*
X180781888Y-88298630D01*
X180707611Y-88455754D01*
X180636585Y-88605120D01*
X180570968Y-88742135D01*
X180512915Y-88862207D01*
X180464585Y-88960742D01*
X180428133Y-89033150D01*
X180405716Y-89074838D01*
X180400281Y-89082889D01*
X180380273Y-89076862D01*
X180324280Y-89058426D01*
X180236346Y-89028950D01*
X180120516Y-88989804D01*
X179980831Y-88942357D01*
X179821337Y-88887979D01*
X179646077Y-88828039D01*
X179510052Y-88781402D01*
X179325653Y-88718036D01*
X179153981Y-88658891D01*
X178999096Y-88605378D01*
X178865060Y-88558907D01*
X178755936Y-88520887D01*
X178675783Y-88492731D01*
X178628665Y-88475847D01*
X178617465Y-88471454D01*
X178627480Y-88453143D01*
X178659155Y-88404684D01*
X178709486Y-88330332D01*
X178775471Y-88234344D01*
X178854103Y-88120978D01*
X178942380Y-87994490D01*
X179037298Y-87859136D01*
X179135852Y-87719175D01*
X179235040Y-87578862D01*
X179331855Y-87442454D01*
X179423296Y-87314209D01*
X179506357Y-87198382D01*
X179578036Y-87099232D01*
X179635327Y-87021015D01*
X179675227Y-86967987D01*
X179694732Y-86944405D01*
X179695497Y-86943796D01*
X179721156Y-86944660D01*
G36*
X181211023Y-84381140D02*
G01*
X181268733Y-84401255D01*
X181356378Y-84433585D01*
X181469279Y-84476360D01*
X181602756Y-84527813D01*
X181752131Y-84586176D01*
X181870090Y-84632750D01*
X182077869Y-84716011D01*
X182246023Y-84785307D01*
X182374843Y-84840767D01*
X182464624Y-84882521D01*
X182515658Y-84910699D01*
X182528738Y-84924410D01*
X182517993Y-84951115D01*
X182491310Y-85010055D01*
X182451008Y-85096457D01*
X182399400Y-85205546D01*
X182338804Y-85332549D01*
X182271534Y-85472692D01*
X182199907Y-85621201D01*
X182126237Y-85773303D01*
X182052842Y-85924224D01*
X181982036Y-86069189D01*
X181916135Y-86203425D01*
X181857455Y-86322158D01*
X181808312Y-86420615D01*
X181771020Y-86494021D01*
X181747897Y-86537603D01*
X181741234Y-86547844D01*
X181718831Y-86543481D01*
X181659317Y-86531909D01*
X181567137Y-86513992D01*
X181446735Y-86490594D01*
X181302558Y-86462579D01*
X181139049Y-86430810D01*
X180960654Y-86396151D01*
X180889238Y-86382277D01*
X180706157Y-86346459D01*
X180536168Y-86312723D01*
X180383739Y-86281989D01*
X180253334Y-86255179D01*
X180149418Y-86233216D01*
X180076456Y-86217022D01*
X180038914Y-86207518D01*
X180034866Y-86205854D01*
X180031484Y-86202969D01*
X180029385Y-86199337D01*
X180030287Y-86192148D01*
X180035911Y-86178591D01*
X180047973Y-86155855D01*
X180068194Y-86121128D01*
X180098293Y-86071598D01*
X180139988Y-86004455D01*
X180194997Y-85916888D01*
X180265041Y-85806084D01*
X180351838Y-85669233D01*
X180457107Y-85503524D01*
X180582567Y-85306144D01*
X180645958Y-85206417D01*
X180753204Y-85038136D01*
X180853815Y-84881125D01*
X180945472Y-84738943D01*
X181025852Y-84615152D01*
X181092636Y-84513311D01*
X181143501Y-84436982D01*
X181176127Y-84389725D01*
X181187928Y-84375006D01*
X181211023Y-84381140D01*
X181211023Y-84381140D01*
G37*
X181211023Y-84381140D02*
X181268733Y-84401255D01*
X181356378Y-84433585D01*
X181469279Y-84476360D01*
X181602756Y-84527813D01*
X181752131Y-84586176D01*
X181870090Y-84632750D01*
X182077869Y-84716011D01*
X182246023Y-84785307D01*
X182374843Y-84840767D01*
X182464624Y-84882521D01*
X182515658Y-84910699D01*
X182528738Y-84924410D01*
X182517993Y-84951115D01*
X182491310Y-85010055D01*
X182451008Y-85096457D01*
X182399400Y-85205546D01*
X182338804Y-85332549D01*
X182271534Y-85472692D01*
X182199907Y-85621201D01*
X182126237Y-85773303D01*
X182052842Y-85924224D01*
X181982036Y-86069189D01*
X181916135Y-86203425D01*
X181857455Y-86322158D01*
X181808312Y-86420615D01*
X181771020Y-86494021D01*
X181747897Y-86537603D01*
X181741234Y-86547844D01*
X181718831Y-86543481D01*
X181659317Y-86531909D01*
X181567137Y-86513992D01*
X181446735Y-86490594D01*
X181302558Y-86462579D01*
X181139049Y-86430810D01*
X180960654Y-86396151D01*
X180889238Y-86382277D01*
X180706157Y-86346459D01*
X180536168Y-86312723D01*
X180383739Y-86281989D01*
X180253334Y-86255179D01*
X180149418Y-86233216D01*
X180076456Y-86217022D01*
X180038914Y-86207518D01*
X180034866Y-86205854D01*
X180031484Y-86202969D01*
X180029385Y-86199337D01*
X180030287Y-86192148D01*
X180035911Y-86178591D01*
X180047973Y-86155855D01*
X180068194Y-86121128D01*
X180098293Y-86071598D01*
X180139988Y-86004455D01*
X180194997Y-85916888D01*
X180265041Y-85806084D01*
X180351838Y-85669233D01*
X180457107Y-85503524D01*
X180582567Y-85306144D01*
X180645958Y-85206417D01*
X180753204Y-85038136D01*
X180853815Y-84881125D01*
X180945472Y-84738943D01*
X181025852Y-84615152D01*
X181092636Y-84513311D01*
X181143501Y-84436982D01*
X181176127Y-84389725D01*
X181187928Y-84375006D01*
X181211023Y-84381140D01*
G36*
X182484596Y-82078937D02*
G01*
X182542280Y-82091950D01*
X182629696Y-82114121D01*
X182741453Y-82143899D01*
X182872157Y-82179731D01*
X183016416Y-82220065D01*
X183168836Y-82263349D01*
X183324026Y-82308032D01*
X183476592Y-82352561D01*
X183621142Y-82395384D01*
X183752282Y-82434950D01*
X183864620Y-82469706D01*
X183952763Y-82498101D01*
X184011319Y-82518583D01*
X184034482Y-82529156D01*
X184026150Y-82548655D01*
X183997786Y-82599568D01*
X183952071Y-82677586D01*
X183891685Y-82778399D01*
X183819309Y-82897697D01*
X183737623Y-83031169D01*
X183649309Y-83174507D01*
X183557046Y-83323399D01*
X183463516Y-83473537D01*
X183371399Y-83620609D01*
X183283375Y-83760306D01*
X183202125Y-83888318D01*
X183130330Y-84000335D01*
X183070671Y-84092048D01*
X183025827Y-84159145D01*
X182998480Y-84197317D01*
X182993206Y-84203368D01*
X182970405Y-84200611D01*
X182911816Y-84186922D01*
X182822184Y-84163593D01*
X182706250Y-84131914D01*
X182568759Y-84093177D01*
X182414452Y-84048674D01*
X182280984Y-84009460D01*
X182099173Y-83954905D01*
X181939645Y-83905606D01*
X181805776Y-83862685D01*
X181700937Y-83827264D01*
X181628504Y-83800465D01*
X181591849Y-83783409D01*
X181587953Y-83779018D01*
X181598664Y-83755120D01*
X181626457Y-83698357D01*
X181668924Y-83613417D01*
X181723660Y-83504985D01*
X181788259Y-83377746D01*
X181860315Y-83236387D01*
X181937422Y-83085593D01*
X182017175Y-82930050D01*
X182097167Y-82774443D01*
X182174993Y-82623459D01*
X182248247Y-82481782D01*
X182314523Y-82354099D01*
X182371414Y-82245096D01*
X182416516Y-82159457D01*
X182447422Y-82101870D01*
X182461727Y-82077019D01*
X182462038Y-82076633D01*
X182484596Y-82078937D01*
X182484596Y-82078937D01*
G37*
X182484596Y-82078937D02*
X182542280Y-82091950D01*
X182629696Y-82114121D01*
X182741453Y-82143899D01*
X182872157Y-82179731D01*
X183016416Y-82220065D01*
X183168836Y-82263349D01*
X183324026Y-82308032D01*
X183476592Y-82352561D01*
X183621142Y-82395384D01*
X183752282Y-82434950D01*
X183864620Y-82469706D01*
X183952763Y-82498101D01*
X184011319Y-82518583D01*
X184034482Y-82529156D01*
X184026150Y-82548655D01*
X183997786Y-82599568D01*
X183952071Y-82677586D01*
X183891685Y-82778399D01*
X183819309Y-82897697D01*
X183737623Y-83031169D01*
X183649309Y-83174507D01*
X183557046Y-83323399D01*
X183463516Y-83473537D01*
X183371399Y-83620609D01*
X183283375Y-83760306D01*
X183202125Y-83888318D01*
X183130330Y-84000335D01*
X183070671Y-84092048D01*
X183025827Y-84159145D01*
X182998480Y-84197317D01*
X182993206Y-84203368D01*
X182970405Y-84200611D01*
X182911816Y-84186922D01*
X182822184Y-84163593D01*
X182706250Y-84131914D01*
X182568759Y-84093177D01*
X182414452Y-84048674D01*
X182280984Y-84009460D01*
X182099173Y-83954905D01*
X181939645Y-83905606D01*
X181805776Y-83862685D01*
X181700937Y-83827264D01*
X181628504Y-83800465D01*
X181591849Y-83783409D01*
X181587953Y-83779018D01*
X181598664Y-83755120D01*
X181626457Y-83698357D01*
X181668924Y-83613417D01*
X181723660Y-83504985D01*
X181788259Y-83377746D01*
X181860315Y-83236387D01*
X181937422Y-83085593D01*
X182017175Y-82930050D01*
X182097167Y-82774443D01*
X182174993Y-82623459D01*
X182248247Y-82481782D01*
X182314523Y-82354099D01*
X182371414Y-82245096D01*
X182416516Y-82159457D01*
X182447422Y-82101870D01*
X182461727Y-82077019D01*
X182462038Y-82076633D01*
X182484596Y-82078937D01*
G36*
X182888581Y-79503144D02*
G01*
X182945213Y-79520188D01*
X183034589Y-79548597D01*
X183153076Y-79587134D01*
X183297041Y-79634564D01*
X183462851Y-79689653D01*
X183646874Y-79751166D01*
X183845477Y-79817867D01*
X184055027Y-79888521D01*
X184271891Y-79961894D01*
X184492436Y-80036751D01*
X184713031Y-80111856D01*
X184930041Y-80185974D01*
X185139835Y-80257871D01*
X185338779Y-80326311D01*
X185523241Y-80390060D01*
X185689588Y-80447882D01*
X185834187Y-80498542D01*
X185953405Y-80540806D01*
X186043610Y-80573438D01*
X186101169Y-80595203D01*
X186122449Y-80604867D01*
X186122495Y-80605003D01*
X186117886Y-80611228D01*
X186102848Y-80626214D01*
X186075694Y-80651434D01*
X186034736Y-80688360D01*
X185978286Y-80738467D01*
X185904656Y-80803227D01*
X185812161Y-80884113D01*
X185699110Y-80982599D01*
X185563819Y-81100157D01*
X185404597Y-81238261D01*
X185219759Y-81398385D01*
X185007617Y-81582000D01*
X184766483Y-81790581D01*
X184546337Y-81980932D01*
X184482317Y-82036280D01*
X183494076Y-81758682D01*
X183297212Y-81703209D01*
X183112942Y-81650951D01*
X182945248Y-81603059D01*
X182798111Y-81560687D01*
X182675512Y-81524988D01*
X182581432Y-81497115D01*
X182519852Y-81478219D01*
X182494754Y-81469455D01*
X182494444Y-81469228D01*
X182496727Y-81447596D01*
X182506186Y-81389377D01*
X182521881Y-81299529D01*
X182542870Y-81183014D01*
X182568212Y-81044790D01*
X182596966Y-80889819D01*
X182628191Y-80723059D01*
X182660947Y-80549471D01*
X182694291Y-80374014D01*
X182727282Y-80201650D01*
X182758981Y-80037337D01*
X182788445Y-79886035D01*
X182814733Y-79752705D01*
X182836905Y-79642306D01*
X182854020Y-79559799D01*
X182865135Y-79510143D01*
X182868326Y-79498698D01*
X182888581Y-79503144D01*
X182888581Y-79503144D01*
G37*
X182888581Y-79503144D02*
X182945213Y-79520188D01*
X183034589Y-79548597D01*
X183153076Y-79587134D01*
X183297041Y-79634564D01*
X183462851Y-79689653D01*
X183646874Y-79751166D01*
X183845477Y-79817867D01*
X184055027Y-79888521D01*
X184271891Y-79961894D01*
X184492436Y-80036751D01*
X184713031Y-80111856D01*
X184930041Y-80185974D01*
X185139835Y-80257871D01*
X185338779Y-80326311D01*
X185523241Y-80390060D01*
X185689588Y-80447882D01*
X185834187Y-80498542D01*
X185953405Y-80540806D01*
X186043610Y-80573438D01*
X186101169Y-80595203D01*
X186122449Y-80604867D01*
X186122495Y-80605003D01*
X186117886Y-80611228D01*
X186102848Y-80626214D01*
X186075694Y-80651434D01*
X186034736Y-80688360D01*
X185978286Y-80738467D01*
X185904656Y-80803227D01*
X185812161Y-80884113D01*
X185699110Y-80982599D01*
X185563819Y-81100157D01*
X185404597Y-81238261D01*
X185219759Y-81398385D01*
X185007617Y-81582000D01*
X184766483Y-81790581D01*
X184546337Y-81980932D01*
X184482317Y-82036280D01*
X183494076Y-81758682D01*
X183297212Y-81703209D01*
X183112942Y-81650951D01*
X182945248Y-81603059D01*
X182798111Y-81560687D01*
X182675512Y-81524988D01*
X182581432Y-81497115D01*
X182519852Y-81478219D01*
X182494754Y-81469455D01*
X182494444Y-81469228D01*
X182496727Y-81447596D01*
X182506186Y-81389377D01*
X182521881Y-81299529D01*
X182542870Y-81183014D01*
X182568212Y-81044790D01*
X182596966Y-80889819D01*
X182628191Y-80723059D01*
X182660947Y-80549471D01*
X182694291Y-80374014D01*
X182727282Y-80201650D01*
X182758981Y-80037337D01*
X182788445Y-79886035D01*
X182814733Y-79752705D01*
X182836905Y-79642306D01*
X182854020Y-79559799D01*
X182865135Y-79510143D01*
X182868326Y-79498698D01*
X182888581Y-79503144D01*
D11*
X161985200Y-121412000D02*
G75*
G03X161985200Y-121412000I-1000000J0D01*
G01*
%LPC*%
D10*
G36*
X152622711Y-99961198D02*
G01*
X152801047Y-100001264D01*
X152958259Y-100073644D01*
X153097195Y-100179636D01*
X153220700Y-100320541D01*
X153331622Y-100497659D01*
X153430067Y-100705726D01*
X153532637Y-100966939D01*
X153627501Y-101243309D01*
X153715190Y-101537598D01*
X153796239Y-101852570D01*
X153871180Y-102190985D01*
X153940547Y-102555607D01*
X154004872Y-102949197D01*
X154064689Y-103374518D01*
X154120531Y-103834332D01*
X154172930Y-104331401D01*
X154213321Y-104764417D01*
X154251735Y-105213198D01*
X154284352Y-105628560D01*
X154311548Y-106018965D01*
X154333702Y-106392875D01*
X154351191Y-106758752D01*
X154364391Y-107125059D01*
X154373681Y-107500256D01*
X154379437Y-107892806D01*
X154382037Y-108311170D01*
X154382259Y-108553250D01*
X154381674Y-108861661D01*
X154380235Y-109131587D01*
X154377741Y-109366874D01*
X154373990Y-109571363D01*
X154368781Y-109748901D01*
X154361913Y-109903330D01*
X154353183Y-110038495D01*
X154342391Y-110158239D01*
X154329334Y-110266407D01*
X154313812Y-110366843D01*
X154295621Y-110463390D01*
X154277784Y-110545832D01*
X154247004Y-110660242D01*
X154210075Y-110743440D01*
X154158883Y-110806505D01*
X154085312Y-110860511D01*
X154020992Y-110896346D01*
X153868729Y-110967445D01*
X153676629Y-111043370D01*
X153446863Y-111123704D01*
X153181601Y-111208030D01*
X152883013Y-111295933D01*
X152553270Y-111386996D01*
X152194543Y-111480802D01*
X151809001Y-111576934D01*
X151398817Y-111674977D01*
X150966159Y-111774513D01*
X150513199Y-111875127D01*
X150042107Y-111976401D01*
X149555054Y-112077919D01*
X149054209Y-112179265D01*
X148541745Y-112280022D01*
X148019830Y-112379773D01*
X147490636Y-112478103D01*
X146956334Y-112574594D01*
X146419092Y-112668830D01*
X145881083Y-112760394D01*
X145344477Y-112848870D01*
X144811444Y-112933842D01*
X144284154Y-113014892D01*
X143764779Y-113091605D01*
X143255488Y-113163564D01*
X142758452Y-113230352D01*
X142275843Y-113291553D01*
X141809829Y-113346750D01*
X141362582Y-113395527D01*
X140936272Y-113437468D01*
X140646150Y-113462978D01*
X140546304Y-113470543D01*
X140410338Y-113479734D01*
X140244418Y-113490191D01*
X140054710Y-113501552D01*
X139847381Y-113513453D01*
X139628597Y-113525532D01*
X139404523Y-113537429D01*
X139206817Y-113547510D01*
X138991703Y-113558318D01*
X138783399Y-113568909D01*
X138586936Y-113579018D01*
X138407342Y-113588381D01*
X138249647Y-113596735D01*
X138118879Y-113603813D01*
X138020068Y-113609354D01*
X137958244Y-113613091D01*
X137956093Y-113613234D01*
X137763703Y-113626108D01*
X137551439Y-113301596D01*
X137478797Y-113189152D01*
X137410303Y-113080590D01*
X137351046Y-112984168D01*
X137306115Y-112908141D01*
X137283973Y-112867685D01*
X137200616Y-112686775D01*
X137113559Y-112468635D01*
X137024070Y-112218079D01*
X136933415Y-111939919D01*
X136842860Y-111638967D01*
X136753671Y-111320036D01*
X136667115Y-110987938D01*
X136584458Y-110647485D01*
X136506968Y-110303490D01*
X136435909Y-109960765D01*
X136372549Y-109624123D01*
X136318155Y-109298375D01*
X136285055Y-109071834D01*
X136270567Y-108943214D01*
X136264864Y-108872155D01*
X137340022Y-108872155D01*
X137369460Y-109045111D01*
X137421148Y-109176812D01*
X137509568Y-109312613D01*
X137622889Y-109414586D01*
X137760338Y-109483486D01*
X137856045Y-109520233D01*
X137979204Y-109571285D01*
X138119421Y-109631974D01*
X138266304Y-109697635D01*
X138409459Y-109763604D01*
X138538492Y-109825214D01*
X138643011Y-109877800D01*
X138666105Y-109890076D01*
X138962987Y-110058758D01*
X139229997Y-110229110D01*
X139479065Y-110409495D01*
X139722120Y-110608275D01*
X139841817Y-110714183D01*
X140038119Y-110890048D01*
X140209034Y-111038909D01*
X140358776Y-111164026D01*
X140491559Y-111268659D01*
X140611597Y-111356069D01*
X140723102Y-111429516D01*
X140830289Y-111492260D01*
X140885140Y-111521442D01*
X141008740Y-111578772D01*
X141105655Y-111608290D01*
X141180757Y-111610401D01*
X141238919Y-111585511D01*
X141271078Y-111553625D01*
X141305692Y-111482089D01*
X141313053Y-111388524D01*
X141292709Y-111271603D01*
X141244212Y-111130000D01*
X141237156Y-111114661D01*
X144297902Y-111114661D01*
X144316535Y-111245439D01*
X144319414Y-111256329D01*
X144345458Y-111312668D01*
X144386668Y-111367460D01*
X144431685Y-111407868D01*
X144465436Y-111421334D01*
X144487250Y-111407248D01*
X144525707Y-111371731D01*
X144544329Y-111352542D01*
X144615310Y-111266759D01*
X144702617Y-111142895D01*
X144806318Y-110980833D01*
X144926481Y-110780460D01*
X145063173Y-110541660D01*
X145216461Y-110264319D01*
X145386413Y-109948321D01*
X145534424Y-109667602D01*
X145764150Y-109241413D01*
X145990867Y-108848248D01*
X146220169Y-108479681D01*
X146457651Y-108127286D01*
X146708904Y-107782637D01*
X146979524Y-107437308D01*
X147161260Y-107217057D01*
X147434885Y-106900221D01*
X147717124Y-106591617D01*
X148011568Y-106287953D01*
X148321806Y-105985938D01*
X148651429Y-105682280D01*
X149004028Y-105373689D01*
X149383191Y-105056873D01*
X149792509Y-104728539D01*
X150235573Y-104385398D01*
X150319317Y-104321706D01*
X150620197Y-104091437D01*
X150896397Y-103875918D01*
X151146643Y-103676232D01*
X151369662Y-103493462D01*
X151564180Y-103328689D01*
X151728924Y-103182998D01*
X151862620Y-103057470D01*
X151963996Y-102953189D01*
X152031777Y-102871238D01*
X152041254Y-102857526D01*
X152094341Y-102742748D01*
X152110188Y-102621346D01*
X152092543Y-102497296D01*
X152045151Y-102374575D01*
X151971758Y-102257156D01*
X151876111Y-102149016D01*
X151761955Y-102054131D01*
X151633037Y-101976475D01*
X151493102Y-101920025D01*
X151345898Y-101888756D01*
X151195169Y-101886644D01*
X151134234Y-101894944D01*
X150948873Y-101943162D01*
X150740699Y-102023413D01*
X150512093Y-102133709D01*
X150265438Y-102272064D01*
X150003116Y-102436492D01*
X149727509Y-102625006D01*
X149441000Y-102835619D01*
X149145970Y-103066345D01*
X148844803Y-103315198D01*
X148539880Y-103580190D01*
X148233584Y-103859336D01*
X147928297Y-104150649D01*
X147626402Y-104452143D01*
X147330280Y-104761830D01*
X147042314Y-105077725D01*
X146764887Y-105397840D01*
X146500380Y-105720190D01*
X146411170Y-105833334D01*
X146228488Y-106075607D01*
X146060591Y-106316226D01*
X145903208Y-106562467D01*
X145752069Y-106821610D01*
X145602905Y-107100932D01*
X145451446Y-107407711D01*
X145314514Y-107702545D01*
X145160200Y-108053068D01*
X145015834Y-108401219D01*
X144882229Y-108744100D01*
X144760196Y-109078812D01*
X144650546Y-109402457D01*
X144554091Y-109712138D01*
X144471643Y-110004956D01*
X144404012Y-110278012D01*
X144352012Y-110528409D01*
X144316452Y-110753248D01*
X144298145Y-110949632D01*
X144297902Y-111114661D01*
X141237156Y-111114661D01*
X141167110Y-110962391D01*
X141060953Y-110767448D01*
X140931380Y-110553500D01*
X140749511Y-110276551D01*
X140544910Y-109985852D01*
X140323332Y-109688522D01*
X140090535Y-109391678D01*
X139852275Y-109102441D01*
X139614308Y-108827928D01*
X139382390Y-108575258D01*
X139162278Y-108351549D01*
X139110404Y-108301586D01*
X138947044Y-108153762D01*
X138800956Y-108039519D01*
X138666840Y-107956626D01*
X138539397Y-107902849D01*
X138413326Y-107875959D01*
X138283327Y-107873722D01*
X138144099Y-107893907D01*
X138142876Y-107894165D01*
X137947081Y-107955346D01*
X137773358Y-108052176D01*
X137618421Y-108186512D01*
X137610440Y-108194961D01*
X137486229Y-108353667D01*
X137399216Y-108522234D01*
X137350211Y-108696463D01*
X137340022Y-108872155D01*
X136264864Y-108872155D01*
X136258352Y-108791040D01*
X136248631Y-108623841D01*
X136241628Y-108450149D01*
X136237567Y-108278492D01*
X136236669Y-108117400D01*
X136239159Y-107975404D01*
X136245261Y-107861035D01*
X136251822Y-107801834D01*
X136281610Y-107663714D01*
X136329024Y-107536453D01*
X136397614Y-107415547D01*
X136490927Y-107296493D01*
X136612512Y-107174789D01*
X136765918Y-107045931D01*
X136954692Y-106905417D01*
X136962791Y-106899659D01*
X137139506Y-106777693D01*
X137333490Y-106650630D01*
X137546736Y-106517368D01*
X137781234Y-106376805D01*
X138038976Y-106227838D01*
X138321953Y-106069363D01*
X138632157Y-105900280D01*
X138971577Y-105719484D01*
X139342207Y-105525873D01*
X139746036Y-105318345D01*
X140185057Y-105095798D01*
X140561484Y-104906937D01*
X141153145Y-104613190D01*
X141748040Y-104321553D01*
X142344366Y-104032798D01*
X142940323Y-103747701D01*
X143534108Y-103467034D01*
X144123921Y-103191572D01*
X144707960Y-102922088D01*
X145284425Y-102659357D01*
X145851512Y-102404152D01*
X146407422Y-102157247D01*
X146950353Y-101919416D01*
X147478504Y-101691432D01*
X147990073Y-101474071D01*
X148483259Y-101268104D01*
X148956261Y-101074307D01*
X149407277Y-100893454D01*
X149834506Y-100726317D01*
X150236147Y-100573671D01*
X150610399Y-100436290D01*
X150955459Y-100314948D01*
X151269528Y-100210418D01*
X151550802Y-100123475D01*
X151797482Y-100054891D01*
X151932489Y-100021877D01*
X152191278Y-99972804D01*
X152420403Y-99952145D01*
X152622711Y-99961198D01*
X152622711Y-99961198D01*
G37*
X152622711Y-99961198D02*
X152801047Y-100001264D01*
X152958259Y-100073644D01*
X153097195Y-100179636D01*
X153220700Y-100320541D01*
X153331622Y-100497659D01*
X153430067Y-100705726D01*
X153532637Y-100966939D01*
X153627501Y-101243309D01*
X153715190Y-101537598D01*
X153796239Y-101852570D01*
X153871180Y-102190985D01*
X153940547Y-102555607D01*
X154004872Y-102949197D01*
X154064689Y-103374518D01*
X154120531Y-103834332D01*
X154172930Y-104331401D01*
X154213321Y-104764417D01*
X154251735Y-105213198D01*
X154284352Y-105628560D01*
X154311548Y-106018965D01*
X154333702Y-106392875D01*
X154351191Y-106758752D01*
X154364391Y-107125059D01*
X154373681Y-107500256D01*
X154379437Y-107892806D01*
X154382037Y-108311170D01*
X154382259Y-108553250D01*
X154381674Y-108861661D01*
X154380235Y-109131587D01*
X154377741Y-109366874D01*
X154373990Y-109571363D01*
X154368781Y-109748901D01*
X154361913Y-109903330D01*
X154353183Y-110038495D01*
X154342391Y-110158239D01*
X154329334Y-110266407D01*
X154313812Y-110366843D01*
X154295621Y-110463390D01*
X154277784Y-110545832D01*
X154247004Y-110660242D01*
X154210075Y-110743440D01*
X154158883Y-110806505D01*
X154085312Y-110860511D01*
X154020992Y-110896346D01*
X153868729Y-110967445D01*
X153676629Y-111043370D01*
X153446863Y-111123704D01*
X153181601Y-111208030D01*
X152883013Y-111295933D01*
X152553270Y-111386996D01*
X152194543Y-111480802D01*
X151809001Y-111576934D01*
X151398817Y-111674977D01*
X150966159Y-111774513D01*
X150513199Y-111875127D01*
X150042107Y-111976401D01*
X149555054Y-112077919D01*
X149054209Y-112179265D01*
X148541745Y-112280022D01*
X148019830Y-112379773D01*
X147490636Y-112478103D01*
X146956334Y-112574594D01*
X146419092Y-112668830D01*
X145881083Y-112760394D01*
X145344477Y-112848870D01*
X144811444Y-112933842D01*
X144284154Y-113014892D01*
X143764779Y-113091605D01*
X143255488Y-113163564D01*
X142758452Y-113230352D01*
X142275843Y-113291553D01*
X141809829Y-113346750D01*
X141362582Y-113395527D01*
X140936272Y-113437468D01*
X140646150Y-113462978D01*
X140546304Y-113470543D01*
X140410338Y-113479734D01*
X140244418Y-113490191D01*
X140054710Y-113501552D01*
X139847381Y-113513453D01*
X139628597Y-113525532D01*
X139404523Y-113537429D01*
X139206817Y-113547510D01*
X138991703Y-113558318D01*
X138783399Y-113568909D01*
X138586936Y-113579018D01*
X138407342Y-113588381D01*
X138249647Y-113596735D01*
X138118879Y-113603813D01*
X138020068Y-113609354D01*
X137958244Y-113613091D01*
X137956093Y-113613234D01*
X137763703Y-113626108D01*
X137551439Y-113301596D01*
X137478797Y-113189152D01*
X137410303Y-113080590D01*
X137351046Y-112984168D01*
X137306115Y-112908141D01*
X137283973Y-112867685D01*
X137200616Y-112686775D01*
X137113559Y-112468635D01*
X137024070Y-112218079D01*
X136933415Y-111939919D01*
X136842860Y-111638967D01*
X136753671Y-111320036D01*
X136667115Y-110987938D01*
X136584458Y-110647485D01*
X136506968Y-110303490D01*
X136435909Y-109960765D01*
X136372549Y-109624123D01*
X136318155Y-109298375D01*
X136285055Y-109071834D01*
X136270567Y-108943214D01*
X136264864Y-108872155D01*
X137340022Y-108872155D01*
X137369460Y-109045111D01*
X137421148Y-109176812D01*
X137509568Y-109312613D01*
X137622889Y-109414586D01*
X137760338Y-109483486D01*
X137856045Y-109520233D01*
X137979204Y-109571285D01*
X138119421Y-109631974D01*
X138266304Y-109697635D01*
X138409459Y-109763604D01*
X138538492Y-109825214D01*
X138643011Y-109877800D01*
X138666105Y-109890076D01*
X138962987Y-110058758D01*
X139229997Y-110229110D01*
X139479065Y-110409495D01*
X139722120Y-110608275D01*
X139841817Y-110714183D01*
X140038119Y-110890048D01*
X140209034Y-111038909D01*
X140358776Y-111164026D01*
X140491559Y-111268659D01*
X140611597Y-111356069D01*
X140723102Y-111429516D01*
X140830289Y-111492260D01*
X140885140Y-111521442D01*
X141008740Y-111578772D01*
X141105655Y-111608290D01*
X141180757Y-111610401D01*
X141238919Y-111585511D01*
X141271078Y-111553625D01*
X141305692Y-111482089D01*
X141313053Y-111388524D01*
X141292709Y-111271603D01*
X141244212Y-111130000D01*
X141237156Y-111114661D01*
X144297902Y-111114661D01*
X144316535Y-111245439D01*
X144319414Y-111256329D01*
X144345458Y-111312668D01*
X144386668Y-111367460D01*
X144431685Y-111407868D01*
X144465436Y-111421334D01*
X144487250Y-111407248D01*
X144525707Y-111371731D01*
X144544329Y-111352542D01*
X144615310Y-111266759D01*
X144702617Y-111142895D01*
X144806318Y-110980833D01*
X144926481Y-110780460D01*
X145063173Y-110541660D01*
X145216461Y-110264319D01*
X145386413Y-109948321D01*
X145534424Y-109667602D01*
X145764150Y-109241413D01*
X145990867Y-108848248D01*
X146220169Y-108479681D01*
X146457651Y-108127286D01*
X146708904Y-107782637D01*
X146979524Y-107437308D01*
X147161260Y-107217057D01*
X147434885Y-106900221D01*
X147717124Y-106591617D01*
X148011568Y-106287953D01*
X148321806Y-105985938D01*
X148651429Y-105682280D01*
X149004028Y-105373689D01*
X149383191Y-105056873D01*
X149792509Y-104728539D01*
X150235573Y-104385398D01*
X150319317Y-104321706D01*
X150620197Y-104091437D01*
X150896397Y-103875918D01*
X151146643Y-103676232D01*
X151369662Y-103493462D01*
X151564180Y-103328689D01*
X151728924Y-103182998D01*
X151862620Y-103057470D01*
X151963996Y-102953189D01*
X152031777Y-102871238D01*
X152041254Y-102857526D01*
X152094341Y-102742748D01*
X152110188Y-102621346D01*
X152092543Y-102497296D01*
X152045151Y-102374575D01*
X151971758Y-102257156D01*
X151876111Y-102149016D01*
X151761955Y-102054131D01*
X151633037Y-101976475D01*
X151493102Y-101920025D01*
X151345898Y-101888756D01*
X151195169Y-101886644D01*
X151134234Y-101894944D01*
X150948873Y-101943162D01*
X150740699Y-102023413D01*
X150512093Y-102133709D01*
X150265438Y-102272064D01*
X150003116Y-102436492D01*
X149727509Y-102625006D01*
X149441000Y-102835619D01*
X149145970Y-103066345D01*
X148844803Y-103315198D01*
X148539880Y-103580190D01*
X148233584Y-103859336D01*
X147928297Y-104150649D01*
X147626402Y-104452143D01*
X147330280Y-104761830D01*
X147042314Y-105077725D01*
X146764887Y-105397840D01*
X146500380Y-105720190D01*
X146411170Y-105833334D01*
X146228488Y-106075607D01*
X146060591Y-106316226D01*
X145903208Y-106562467D01*
X145752069Y-106821610D01*
X145602905Y-107100932D01*
X145451446Y-107407711D01*
X145314514Y-107702545D01*
X145160200Y-108053068D01*
X145015834Y-108401219D01*
X144882229Y-108744100D01*
X144760196Y-109078812D01*
X144650546Y-109402457D01*
X144554091Y-109712138D01*
X144471643Y-110004956D01*
X144404012Y-110278012D01*
X144352012Y-110528409D01*
X144316452Y-110753248D01*
X144298145Y-110949632D01*
X144297902Y-111114661D01*
X141237156Y-111114661D01*
X141167110Y-110962391D01*
X141060953Y-110767448D01*
X140931380Y-110553500D01*
X140749511Y-110276551D01*
X140544910Y-109985852D01*
X140323332Y-109688522D01*
X140090535Y-109391678D01*
X139852275Y-109102441D01*
X139614308Y-108827928D01*
X139382390Y-108575258D01*
X139162278Y-108351549D01*
X139110404Y-108301586D01*
X138947044Y-108153762D01*
X138800956Y-108039519D01*
X138666840Y-107956626D01*
X138539397Y-107902849D01*
X138413326Y-107875959D01*
X138283327Y-107873722D01*
X138144099Y-107893907D01*
X138142876Y-107894165D01*
X137947081Y-107955346D01*
X137773358Y-108052176D01*
X137618421Y-108186512D01*
X137610440Y-108194961D01*
X137486229Y-108353667D01*
X137399216Y-108522234D01*
X137350211Y-108696463D01*
X137340022Y-108872155D01*
X136264864Y-108872155D01*
X136258352Y-108791040D01*
X136248631Y-108623841D01*
X136241628Y-108450149D01*
X136237567Y-108278492D01*
X136236669Y-108117400D01*
X136239159Y-107975404D01*
X136245261Y-107861035D01*
X136251822Y-107801834D01*
X136281610Y-107663714D01*
X136329024Y-107536453D01*
X136397614Y-107415547D01*
X136490927Y-107296493D01*
X136612512Y-107174789D01*
X136765918Y-107045931D01*
X136954692Y-106905417D01*
X136962791Y-106899659D01*
X137139506Y-106777693D01*
X137333490Y-106650630D01*
X137546736Y-106517368D01*
X137781234Y-106376805D01*
X138038976Y-106227838D01*
X138321953Y-106069363D01*
X138632157Y-105900280D01*
X138971577Y-105719484D01*
X139342207Y-105525873D01*
X139746036Y-105318345D01*
X140185057Y-105095798D01*
X140561484Y-104906937D01*
X141153145Y-104613190D01*
X141748040Y-104321553D01*
X142344366Y-104032798D01*
X142940323Y-103747701D01*
X143534108Y-103467034D01*
X144123921Y-103191572D01*
X144707960Y-102922088D01*
X145284425Y-102659357D01*
X145851512Y-102404152D01*
X146407422Y-102157247D01*
X146950353Y-101919416D01*
X147478504Y-101691432D01*
X147990073Y-101474071D01*
X148483259Y-101268104D01*
X148956261Y-101074307D01*
X149407277Y-100893454D01*
X149834506Y-100726317D01*
X150236147Y-100573671D01*
X150610399Y-100436290D01*
X150955459Y-100314948D01*
X151269528Y-100210418D01*
X151550802Y-100123475D01*
X151797482Y-100054891D01*
X151932489Y-100021877D01*
X152191278Y-99972804D01*
X152420403Y-99952145D01*
X152622711Y-99961198D01*
G36*
X174925827Y-96003979D02*
G01*
X174996498Y-96028602D01*
X175088021Y-96071271D01*
X175205553Y-96133722D01*
X175329735Y-96203645D01*
X175669194Y-96397755D01*
X175717679Y-96352206D01*
X175795686Y-96305531D01*
X175885537Y-96292890D01*
X175972560Y-96315979D01*
X175982683Y-96321565D01*
X176039251Y-96370220D01*
X176064905Y-96435556D01*
X176062751Y-96526103D01*
X176061109Y-96536972D01*
X176055989Y-96580500D01*
X176063044Y-96609776D01*
X176089953Y-96635123D01*
X176144392Y-96666861D01*
X176166634Y-96678847D01*
X176259141Y-96737081D01*
X176330897Y-96799198D01*
X176375068Y-96858394D01*
X176385988Y-96897333D01*
X176367027Y-96966351D01*
X176317790Y-97031863D01*
X176249303Y-97081064D01*
X176216643Y-97094028D01*
X176172785Y-97105446D01*
X176135869Y-97107262D01*
X176094511Y-97096772D01*
X176037328Y-97071270D01*
X175964638Y-97034137D01*
X175799413Y-96948246D01*
X175638410Y-97167893D01*
X175571893Y-97255041D01*
X175508121Y-97332233D01*
X175454124Y-97391354D01*
X175416931Y-97424289D01*
X175415566Y-97425147D01*
X175353724Y-97462755D01*
X175426417Y-97536419D01*
X175478516Y-97599632D01*
X175530558Y-97678931D01*
X175553803Y-97721851D01*
X175584482Y-97792092D01*
X175599113Y-97853197D01*
X175601199Y-97925157D01*
X175598308Y-97976020D01*
X175568331Y-98133273D01*
X175502137Y-98268936D01*
X175399202Y-98383830D01*
X175288835Y-98462058D01*
X175232470Y-98491119D01*
X175175039Y-98509572D01*
X175102873Y-98520497D01*
X175002305Y-98526972D01*
X175000188Y-98527065D01*
X174903762Y-98528526D01*
X174814084Y-98525105D01*
X174746284Y-98517532D01*
X174730742Y-98514096D01*
X174680973Y-98502749D01*
X174662554Y-98507064D01*
X174664622Y-98522099D01*
X174666053Y-98561768D01*
X174653787Y-98614884D01*
X174644039Y-98648208D01*
X174647375Y-98672678D01*
X174670382Y-98696340D01*
X174719643Y-98727238D01*
X174768165Y-98754623D01*
X174840211Y-98798571D01*
X174900139Y-98841694D01*
X174935453Y-98874963D01*
X174936275Y-98876101D01*
X174966312Y-98951783D01*
X174955985Y-99029972D01*
X174906207Y-99103783D01*
X174906028Y-99103962D01*
X174834585Y-99153134D01*
X174750853Y-99167471D01*
X174651078Y-99146852D01*
X174532578Y-99091750D01*
X174466452Y-99055431D01*
X174416104Y-99029014D01*
X174391583Y-99017757D01*
X174390970Y-99017667D01*
X174375886Y-99033877D01*
X174341719Y-99077945D01*
X174293635Y-99143026D01*
X174240150Y-99217542D01*
X174177193Y-99303276D01*
X174116235Y-99380928D01*
X174065031Y-99440908D01*
X174036052Y-99469936D01*
X173973638Y-99522453D01*
X174052727Y-99561102D01*
X174112191Y-99602730D01*
X174152238Y-99663373D01*
X174174835Y-99749039D01*
X174181951Y-99865733D01*
X174179808Y-99949000D01*
X174162554Y-100104115D01*
X174124239Y-100231846D01*
X174060549Y-100343691D01*
X174007025Y-100409436D01*
X173907608Y-100491409D01*
X173781589Y-100553558D01*
X173641413Y-100592407D01*
X173499527Y-100604481D01*
X173371007Y-100587039D01*
X173317289Y-100574266D01*
X173284100Y-100570262D01*
X173280179Y-100571333D01*
X173287481Y-100590463D01*
X173314813Y-100628641D01*
X173323721Y-100639551D01*
X173406481Y-100765266D01*
X173467042Y-100912242D01*
X173488252Y-100997979D01*
X173494103Y-101140386D01*
X173462812Y-101292836D01*
X173396021Y-101448410D01*
X173370937Y-101491991D01*
X173289075Y-101606163D01*
X173193668Y-101706436D01*
X173091167Y-101788657D01*
X172988020Y-101848675D01*
X172890675Y-101882338D01*
X172805582Y-101885494D01*
X172774037Y-101876299D01*
X172739109Y-101858040D01*
X172676924Y-101822303D01*
X172596071Y-101774131D01*
X172505137Y-101718570D01*
X172498870Y-101714692D01*
X172402134Y-101656127D01*
X172279861Y-101584137D01*
X172143724Y-101505482D01*
X172005399Y-101426921D01*
X171909317Y-101373278D01*
X171793950Y-101308345D01*
X171688563Y-101246990D01*
X171599928Y-101193317D01*
X171534817Y-101151430D01*
X171500002Y-101125432D01*
X171499539Y-101124983D01*
X171455519Y-101053445D01*
X171438784Y-100979899D01*
X171438294Y-100970243D01*
X172046719Y-100970243D01*
X172263768Y-101091563D01*
X172374350Y-101154179D01*
X172494502Y-101223505D01*
X172606192Y-101289084D01*
X172660734Y-101321735D01*
X172738215Y-101367832D01*
X172801902Y-101404263D01*
X172843361Y-101426285D01*
X172854332Y-101430626D01*
X172875301Y-101416133D01*
X172912370Y-101379485D01*
X172931107Y-101358809D01*
X172978886Y-101292169D01*
X173021493Y-101213112D01*
X173031425Y-101189475D01*
X173052824Y-101127546D01*
X173057667Y-101082984D01*
X173046054Y-101034237D01*
X173032330Y-100996893D01*
X172970231Y-100890292D01*
X172878876Y-100809173D01*
X172765442Y-100757465D01*
X172637107Y-100739096D01*
X172569520Y-100743651D01*
X172495833Y-100762008D01*
X172398039Y-100798191D01*
X172287977Y-100847661D01*
X172254530Y-100864317D01*
X172046719Y-100970243D01*
X171438294Y-100970243D01*
X171435479Y-100914822D01*
X171447508Y-100872640D01*
X171478145Y-100836805D01*
X171526273Y-100798804D01*
X171602904Y-100746463D01*
X171699071Y-100685139D01*
X171805805Y-100620191D01*
X171914140Y-100556980D01*
X172015109Y-100500864D01*
X172099743Y-100457202D01*
X172152734Y-100433659D01*
X172360752Y-100369574D01*
X172559701Y-100337151D01*
X172743409Y-100337048D01*
X172864894Y-100357899D01*
X172972447Y-100385798D01*
X172879701Y-100271930D01*
X172820187Y-100190681D01*
X172758516Y-100093678D01*
X172715023Y-100015226D01*
X172630560Y-99817765D01*
X172584718Y-99637395D01*
X172577481Y-99473908D01*
X172608833Y-99327094D01*
X172655906Y-99230603D01*
X172695002Y-99162916D01*
X172724971Y-99102320D01*
X172736523Y-99071320D01*
X172775510Y-98996454D01*
X172843485Y-98945153D01*
X172930422Y-98924549D01*
X172942906Y-98924504D01*
X173016001Y-98937098D01*
X173104222Y-98967645D01*
X173193839Y-99009619D01*
X173271121Y-99056494D01*
X173322337Y-99101742D01*
X173325957Y-99106577D01*
X173355483Y-99180464D01*
X173349482Y-99255755D01*
X173313402Y-99323225D01*
X173252694Y-99373647D01*
X173172806Y-99397796D01*
X173153428Y-99398667D01*
X173093682Y-99404860D01*
X173050865Y-99420150D01*
X173045967Y-99424067D01*
X173021837Y-99476167D01*
X173021108Y-99553785D01*
X173040985Y-99649183D01*
X173078672Y-99754626D01*
X173131373Y-99862377D01*
X173196291Y-99964699D01*
X173270632Y-100053857D01*
X173275266Y-100058554D01*
X173370899Y-100142255D01*
X173455636Y-100188475D01*
X173534398Y-100199000D01*
X173606141Y-100178535D01*
X173667260Y-100132947D01*
X173708857Y-100061050D01*
X173732612Y-99958356D01*
X173740200Y-99820382D01*
X173740201Y-99819989D01*
X173742811Y-99718531D01*
X173753578Y-99649757D01*
X173776969Y-99604178D01*
X173817452Y-99572306D01*
X173867669Y-99549290D01*
X173901938Y-99534170D01*
X173898225Y-99528325D01*
X173875380Y-99527009D01*
X173806600Y-99504177D01*
X173742078Y-99441542D01*
X173684157Y-99341594D01*
X173670163Y-99309050D01*
X173643272Y-99246371D01*
X173601972Y-99154770D01*
X173550465Y-99043350D01*
X173492952Y-98921214D01*
X173442874Y-98816584D01*
X173398044Y-98722643D01*
X173868543Y-98722643D01*
X173903558Y-98796071D01*
X173934573Y-98850767D01*
X173959630Y-98866543D01*
X173983776Y-98845356D01*
X173992411Y-98830573D01*
X173999906Y-98801675D01*
X173980006Y-98778241D01*
X173940893Y-98757144D01*
X173868543Y-98722643D01*
X173398044Y-98722643D01*
X173386758Y-98698995D01*
X173336186Y-98590622D01*
X173294464Y-98498741D01*
X173264900Y-98430629D01*
X173251043Y-98394418D01*
X173244738Y-98304060D01*
X173271383Y-98211482D01*
X173325765Y-98132778D01*
X173340091Y-98119629D01*
X173383770Y-98087756D01*
X173427791Y-98069401D01*
X173477678Y-98065982D01*
X173538953Y-98078918D01*
X173617141Y-98109627D01*
X173717765Y-98159528D01*
X173846349Y-98230037D01*
X173909469Y-98265824D01*
X174258621Y-98464954D01*
X174306802Y-98419691D01*
X174354982Y-98374428D01*
X174245331Y-98306793D01*
X174125738Y-98220135D01*
X174012467Y-98114727D01*
X173916640Y-98002123D01*
X173850828Y-97896859D01*
X173818050Y-97820923D01*
X173800437Y-97749976D01*
X173793951Y-97664535D01*
X173793865Y-97654560D01*
X174225247Y-97654560D01*
X174256944Y-97740586D01*
X174323158Y-97829491D01*
X174420670Y-97917360D01*
X174546261Y-98000276D01*
X174607758Y-98033261D01*
X174759448Y-98100568D01*
X174885272Y-98136133D01*
X174987187Y-98140121D01*
X175067152Y-98112695D01*
X175110775Y-98075284D01*
X175150929Y-98003127D01*
X175150644Y-97924085D01*
X175109804Y-97835989D01*
X175096794Y-97817141D01*
X175030013Y-97744366D01*
X174936403Y-97668094D01*
X174825776Y-97593932D01*
X174707941Y-97527485D01*
X174592711Y-97474360D01*
X174489894Y-97440164D01*
X174419627Y-97430167D01*
X174345323Y-97449272D01*
X174278556Y-97499359D01*
X174233399Y-97569582D01*
X174231286Y-97575329D01*
X174225247Y-97654560D01*
X173793865Y-97654560D01*
X173793570Y-97620667D01*
X173799491Y-97509144D01*
X173820604Y-97420694D01*
X173862954Y-97340135D01*
X173932584Y-97252287D01*
X173946362Y-97236870D01*
X174028344Y-97158514D01*
X174114627Y-97105351D01*
X174216432Y-97072720D01*
X174344982Y-97055960D01*
X174388050Y-97053441D01*
X174557062Y-97055364D01*
X174707240Y-97080986D01*
X174855099Y-97134159D01*
X174960989Y-97187061D01*
X175091662Y-97258252D01*
X175063104Y-97190751D01*
X175045479Y-97151529D01*
X175012772Y-97081025D01*
X174968217Y-96986120D01*
X174915048Y-96873698D01*
X174856500Y-96750642D01*
X174842474Y-96721267D01*
X174825300Y-96684478D01*
X175310273Y-96684478D01*
X175317018Y-96704508D01*
X175336568Y-96758140D01*
X175343304Y-96779738D01*
X175358577Y-96804594D01*
X175383236Y-96793021D01*
X175408567Y-96758965D01*
X175412400Y-96743056D01*
X175395110Y-96716530D01*
X175356950Y-96692031D01*
X175319065Y-96677121D01*
X175310273Y-96684478D01*
X174825300Y-96684478D01*
X174780541Y-96588603D01*
X174727959Y-96469952D01*
X174687147Y-96371178D01*
X174660521Y-96298146D01*
X174650501Y-96256720D01*
X174650479Y-96255601D01*
X174667883Y-96175482D01*
X174713137Y-96094135D01*
X174776083Y-96028968D01*
X174787383Y-96021031D01*
X174826425Y-96001929D01*
X174870855Y-95995667D01*
X174925827Y-96003979D01*
X174925827Y-96003979D01*
G37*
X174925827Y-96003979D02*
X174996498Y-96028602D01*
X175088021Y-96071271D01*
X175205553Y-96133722D01*
X175329735Y-96203645D01*
X175669194Y-96397755D01*
X175717679Y-96352206D01*
X175795686Y-96305531D01*
X175885537Y-96292890D01*
X175972560Y-96315979D01*
X175982683Y-96321565D01*
X176039251Y-96370220D01*
X176064905Y-96435556D01*
X176062751Y-96526103D01*
X176061109Y-96536972D01*
X176055989Y-96580500D01*
X176063044Y-96609776D01*
X176089953Y-96635123D01*
X176144392Y-96666861D01*
X176166634Y-96678847D01*
X176259141Y-96737081D01*
X176330897Y-96799198D01*
X176375068Y-96858394D01*
X176385988Y-96897333D01*
X176367027Y-96966351D01*
X176317790Y-97031863D01*
X176249303Y-97081064D01*
X176216643Y-97094028D01*
X176172785Y-97105446D01*
X176135869Y-97107262D01*
X176094511Y-97096772D01*
X176037328Y-97071270D01*
X175964638Y-97034137D01*
X175799413Y-96948246D01*
X175638410Y-97167893D01*
X175571893Y-97255041D01*
X175508121Y-97332233D01*
X175454124Y-97391354D01*
X175416931Y-97424289D01*
X175415566Y-97425147D01*
X175353724Y-97462755D01*
X175426417Y-97536419D01*
X175478516Y-97599632D01*
X175530558Y-97678931D01*
X175553803Y-97721851D01*
X175584482Y-97792092D01*
X175599113Y-97853197D01*
X175601199Y-97925157D01*
X175598308Y-97976020D01*
X175568331Y-98133273D01*
X175502137Y-98268936D01*
X175399202Y-98383830D01*
X175288835Y-98462058D01*
X175232470Y-98491119D01*
X175175039Y-98509572D01*
X175102873Y-98520497D01*
X175002305Y-98526972D01*
X175000188Y-98527065D01*
X174903762Y-98528526D01*
X174814084Y-98525105D01*
X174746284Y-98517532D01*
X174730742Y-98514096D01*
X174680973Y-98502749D01*
X174662554Y-98507064D01*
X174664622Y-98522099D01*
X174666053Y-98561768D01*
X174653787Y-98614884D01*
X174644039Y-98648208D01*
X174647375Y-98672678D01*
X174670382Y-98696340D01*
X174719643Y-98727238D01*
X174768165Y-98754623D01*
X174840211Y-98798571D01*
X174900139Y-98841694D01*
X174935453Y-98874963D01*
X174936275Y-98876101D01*
X174966312Y-98951783D01*
X174955985Y-99029972D01*
X174906207Y-99103783D01*
X174906028Y-99103962D01*
X174834585Y-99153134D01*
X174750853Y-99167471D01*
X174651078Y-99146852D01*
X174532578Y-99091750D01*
X174466452Y-99055431D01*
X174416104Y-99029014D01*
X174391583Y-99017757D01*
X174390970Y-99017667D01*
X174375886Y-99033877D01*
X174341719Y-99077945D01*
X174293635Y-99143026D01*
X174240150Y-99217542D01*
X174177193Y-99303276D01*
X174116235Y-99380928D01*
X174065031Y-99440908D01*
X174036052Y-99469936D01*
X173973638Y-99522453D01*
X174052727Y-99561102D01*
X174112191Y-99602730D01*
X174152238Y-99663373D01*
X174174835Y-99749039D01*
X174181951Y-99865733D01*
X174179808Y-99949000D01*
X174162554Y-100104115D01*
X174124239Y-100231846D01*
X174060549Y-100343691D01*
X174007025Y-100409436D01*
X173907608Y-100491409D01*
X173781589Y-100553558D01*
X173641413Y-100592407D01*
X173499527Y-100604481D01*
X173371007Y-100587039D01*
X173317289Y-100574266D01*
X173284100Y-100570262D01*
X173280179Y-100571333D01*
X173287481Y-100590463D01*
X173314813Y-100628641D01*
X173323721Y-100639551D01*
X173406481Y-100765266D01*
X173467042Y-100912242D01*
X173488252Y-100997979D01*
X173494103Y-101140386D01*
X173462812Y-101292836D01*
X173396021Y-101448410D01*
X173370937Y-101491991D01*
X173289075Y-101606163D01*
X173193668Y-101706436D01*
X173091167Y-101788657D01*
X172988020Y-101848675D01*
X172890675Y-101882338D01*
X172805582Y-101885494D01*
X172774037Y-101876299D01*
X172739109Y-101858040D01*
X172676924Y-101822303D01*
X172596071Y-101774131D01*
X172505137Y-101718570D01*
X172498870Y-101714692D01*
X172402134Y-101656127D01*
X172279861Y-101584137D01*
X172143724Y-101505482D01*
X172005399Y-101426921D01*
X171909317Y-101373278D01*
X171793950Y-101308345D01*
X171688563Y-101246990D01*
X171599928Y-101193317D01*
X171534817Y-101151430D01*
X171500002Y-101125432D01*
X171499539Y-101124983D01*
X171455519Y-101053445D01*
X171438784Y-100979899D01*
X171438294Y-100970243D01*
X172046719Y-100970243D01*
X172263768Y-101091563D01*
X172374350Y-101154179D01*
X172494502Y-101223505D01*
X172606192Y-101289084D01*
X172660734Y-101321735D01*
X172738215Y-101367832D01*
X172801902Y-101404263D01*
X172843361Y-101426285D01*
X172854332Y-101430626D01*
X172875301Y-101416133D01*
X172912370Y-101379485D01*
X172931107Y-101358809D01*
X172978886Y-101292169D01*
X173021493Y-101213112D01*
X173031425Y-101189475D01*
X173052824Y-101127546D01*
X173057667Y-101082984D01*
X173046054Y-101034237D01*
X173032330Y-100996893D01*
X172970231Y-100890292D01*
X172878876Y-100809173D01*
X172765442Y-100757465D01*
X172637107Y-100739096D01*
X172569520Y-100743651D01*
X172495833Y-100762008D01*
X172398039Y-100798191D01*
X172287977Y-100847661D01*
X172254530Y-100864317D01*
X172046719Y-100970243D01*
X171438294Y-100970243D01*
X171435479Y-100914822D01*
X171447508Y-100872640D01*
X171478145Y-100836805D01*
X171526273Y-100798804D01*
X171602904Y-100746463D01*
X171699071Y-100685139D01*
X171805805Y-100620191D01*
X171914140Y-100556980D01*
X172015109Y-100500864D01*
X172099743Y-100457202D01*
X172152734Y-100433659D01*
X172360752Y-100369574D01*
X172559701Y-100337151D01*
X172743409Y-100337048D01*
X172864894Y-100357899D01*
X172972447Y-100385798D01*
X172879701Y-100271930D01*
X172820187Y-100190681D01*
X172758516Y-100093678D01*
X172715023Y-100015226D01*
X172630560Y-99817765D01*
X172584718Y-99637395D01*
X172577481Y-99473908D01*
X172608833Y-99327094D01*
X172655906Y-99230603D01*
X172695002Y-99162916D01*
X172724971Y-99102320D01*
X172736523Y-99071320D01*
X172775510Y-98996454D01*
X172843485Y-98945153D01*
X172930422Y-98924549D01*
X172942906Y-98924504D01*
X173016001Y-98937098D01*
X173104222Y-98967645D01*
X173193839Y-99009619D01*
X173271121Y-99056494D01*
X173322337Y-99101742D01*
X173325957Y-99106577D01*
X173355483Y-99180464D01*
X173349482Y-99255755D01*
X173313402Y-99323225D01*
X173252694Y-99373647D01*
X173172806Y-99397796D01*
X173153428Y-99398667D01*
X173093682Y-99404860D01*
X173050865Y-99420150D01*
X173045967Y-99424067D01*
X173021837Y-99476167D01*
X173021108Y-99553785D01*
X173040985Y-99649183D01*
X173078672Y-99754626D01*
X173131373Y-99862377D01*
X173196291Y-99964699D01*
X173270632Y-100053857D01*
X173275266Y-100058554D01*
X173370899Y-100142255D01*
X173455636Y-100188475D01*
X173534398Y-100199000D01*
X173606141Y-100178535D01*
X173667260Y-100132947D01*
X173708857Y-100061050D01*
X173732612Y-99958356D01*
X173740200Y-99820382D01*
X173740201Y-99819989D01*
X173742811Y-99718531D01*
X173753578Y-99649757D01*
X173776969Y-99604178D01*
X173817452Y-99572306D01*
X173867669Y-99549290D01*
X173901938Y-99534170D01*
X173898225Y-99528325D01*
X173875380Y-99527009D01*
X173806600Y-99504177D01*
X173742078Y-99441542D01*
X173684157Y-99341594D01*
X173670163Y-99309050D01*
X173643272Y-99246371D01*
X173601972Y-99154770D01*
X173550465Y-99043350D01*
X173492952Y-98921214D01*
X173442874Y-98816584D01*
X173398044Y-98722643D01*
X173868543Y-98722643D01*
X173903558Y-98796071D01*
X173934573Y-98850767D01*
X173959630Y-98866543D01*
X173983776Y-98845356D01*
X173992411Y-98830573D01*
X173999906Y-98801675D01*
X173980006Y-98778241D01*
X173940893Y-98757144D01*
X173868543Y-98722643D01*
X173398044Y-98722643D01*
X173386758Y-98698995D01*
X173336186Y-98590622D01*
X173294464Y-98498741D01*
X173264900Y-98430629D01*
X173251043Y-98394418D01*
X173244738Y-98304060D01*
X173271383Y-98211482D01*
X173325765Y-98132778D01*
X173340091Y-98119629D01*
X173383770Y-98087756D01*
X173427791Y-98069401D01*
X173477678Y-98065982D01*
X173538953Y-98078918D01*
X173617141Y-98109627D01*
X173717765Y-98159528D01*
X173846349Y-98230037D01*
X173909469Y-98265824D01*
X174258621Y-98464954D01*
X174306802Y-98419691D01*
X174354982Y-98374428D01*
X174245331Y-98306793D01*
X174125738Y-98220135D01*
X174012467Y-98114727D01*
X173916640Y-98002123D01*
X173850828Y-97896859D01*
X173818050Y-97820923D01*
X173800437Y-97749976D01*
X173793951Y-97664535D01*
X173793865Y-97654560D01*
X174225247Y-97654560D01*
X174256944Y-97740586D01*
X174323158Y-97829491D01*
X174420670Y-97917360D01*
X174546261Y-98000276D01*
X174607758Y-98033261D01*
X174759448Y-98100568D01*
X174885272Y-98136133D01*
X174987187Y-98140121D01*
X175067152Y-98112695D01*
X175110775Y-98075284D01*
X175150929Y-98003127D01*
X175150644Y-97924085D01*
X175109804Y-97835989D01*
X175096794Y-97817141D01*
X175030013Y-97744366D01*
X174936403Y-97668094D01*
X174825776Y-97593932D01*
X174707941Y-97527485D01*
X174592711Y-97474360D01*
X174489894Y-97440164D01*
X174419627Y-97430167D01*
X174345323Y-97449272D01*
X174278556Y-97499359D01*
X174233399Y-97569582D01*
X174231286Y-97575329D01*
X174225247Y-97654560D01*
X173793865Y-97654560D01*
X173793570Y-97620667D01*
X173799491Y-97509144D01*
X173820604Y-97420694D01*
X173862954Y-97340135D01*
X173932584Y-97252287D01*
X173946362Y-97236870D01*
X174028344Y-97158514D01*
X174114627Y-97105351D01*
X174216432Y-97072720D01*
X174344982Y-97055960D01*
X174388050Y-97053441D01*
X174557062Y-97055364D01*
X174707240Y-97080986D01*
X174855099Y-97134159D01*
X174960989Y-97187061D01*
X175091662Y-97258252D01*
X175063104Y-97190751D01*
X175045479Y-97151529D01*
X175012772Y-97081025D01*
X174968217Y-96986120D01*
X174915048Y-96873698D01*
X174856500Y-96750642D01*
X174842474Y-96721267D01*
X174825300Y-96684478D01*
X175310273Y-96684478D01*
X175317018Y-96704508D01*
X175336568Y-96758140D01*
X175343304Y-96779738D01*
X175358577Y-96804594D01*
X175383236Y-96793021D01*
X175408567Y-96758965D01*
X175412400Y-96743056D01*
X175395110Y-96716530D01*
X175356950Y-96692031D01*
X175319065Y-96677121D01*
X175310273Y-96684478D01*
X174825300Y-96684478D01*
X174780541Y-96588603D01*
X174727959Y-96469952D01*
X174687147Y-96371178D01*
X174660521Y-96298146D01*
X174650501Y-96256720D01*
X174650479Y-96255601D01*
X174667883Y-96175482D01*
X174713137Y-96094135D01*
X174776083Y-96028968D01*
X174787383Y-96021031D01*
X174826425Y-96001929D01*
X174870855Y-95995667D01*
X174925827Y-96003979D01*
G36*
X171917430Y-90985071D02*
G01*
X171938572Y-90997406D01*
X171993888Y-91031025D01*
X172081621Y-91084837D01*
X172200017Y-91157752D01*
X172347322Y-91248678D01*
X172521780Y-91356525D01*
X172721636Y-91480201D01*
X172945135Y-91618616D01*
X173190522Y-91770678D01*
X173456043Y-91935296D01*
X173739941Y-92111380D01*
X174040464Y-92297838D01*
X174355854Y-92493580D01*
X174684357Y-92697514D01*
X175024219Y-92908549D01*
X175373684Y-93125595D01*
X175730998Y-93347560D01*
X176094405Y-93573354D01*
X176462150Y-93801885D01*
X176832478Y-94032063D01*
X177203635Y-94262796D01*
X177573866Y-94492993D01*
X177941414Y-94721564D01*
X178304526Y-94947417D01*
X178661447Y-95169462D01*
X179010421Y-95386607D01*
X179349693Y-95597761D01*
X179677509Y-95801834D01*
X179992113Y-95997735D01*
X180291751Y-96184371D01*
X180574667Y-96360654D01*
X180839107Y-96525490D01*
X181083315Y-96677790D01*
X181305537Y-96816463D01*
X181504018Y-96940417D01*
X181677002Y-97048561D01*
X181822734Y-97139804D01*
X181939460Y-97213057D01*
X182025425Y-97267226D01*
X182078873Y-97301222D01*
X182097986Y-97313887D01*
X182100859Y-97324910D01*
X182093611Y-97345977D01*
X182074309Y-97379653D01*
X182041020Y-97428501D01*
X181991811Y-97495087D01*
X181924749Y-97581975D01*
X181837900Y-97691729D01*
X181729332Y-97826913D01*
X181597112Y-97990092D01*
X181477564Y-98136925D01*
X181347935Y-98295270D01*
X181225914Y-98443095D01*
X181114183Y-98577234D01*
X181015427Y-98694525D01*
X180932328Y-98791802D01*
X180867571Y-98865902D01*
X180823838Y-98913659D01*
X180803813Y-98931910D01*
X180803311Y-98932001D01*
X180782106Y-98920925D01*
X180727465Y-98889011D01*
X180641892Y-98837791D01*
X180527889Y-98768797D01*
X180387960Y-98683563D01*
X180224610Y-98583621D01*
X180040340Y-98470503D01*
X179837654Y-98345742D01*
X179619056Y-98210872D01*
X179387050Y-98067424D01*
X179144137Y-97916931D01*
X179053067Y-97860434D01*
X178757495Y-97677404D01*
X178436477Y-97479338D01*
X178096721Y-97270337D01*
X177744935Y-97054500D01*
X177387827Y-96835927D01*
X177032104Y-96618718D01*
X176684475Y-96406975D01*
X176351647Y-96204796D01*
X176040329Y-96016282D01*
X175757229Y-95845533D01*
X175719317Y-95822732D01*
X175184942Y-95501390D01*
X174685989Y-95201190D01*
X174221535Y-94921570D01*
X173790656Y-94661965D01*
X173392429Y-94421814D01*
X173025931Y-94200553D01*
X172690238Y-93997619D01*
X172384426Y-93812450D01*
X172107573Y-93644481D01*
X171858755Y-93493150D01*
X171637049Y-93357894D01*
X171441531Y-93238150D01*
X171271278Y-93133355D01*
X171125366Y-93042945D01*
X171002873Y-92966359D01*
X170902874Y-92903032D01*
X170824446Y-92852402D01*
X170766667Y-92813905D01*
X170728612Y-92786979D01*
X170709358Y-92771061D01*
X170706563Y-92766184D01*
X170720694Y-92744153D01*
X170755800Y-92690218D01*
X170809609Y-92607850D01*
X170879844Y-92500523D01*
X170964234Y-92371709D01*
X171060503Y-92224880D01*
X171166377Y-92063510D01*
X171279582Y-91891071D01*
X171302049Y-91856860D01*
X171439539Y-91648058D01*
X171555900Y-91472633D01*
X171652765Y-91328270D01*
X171731769Y-91212653D01*
X171794546Y-91123468D01*
X171842730Y-91058399D01*
X171877955Y-91015131D01*
X171901856Y-90991349D01*
X171916067Y-90984738D01*
X171917430Y-90985071D01*
X171917430Y-90985071D01*
G37*
X171917430Y-90985071D02*
X171938572Y-90997406D01*
X171993888Y-91031025D01*
X172081621Y-91084837D01*
X172200017Y-91157752D01*
X172347322Y-91248678D01*
X172521780Y-91356525D01*
X172721636Y-91480201D01*
X172945135Y-91618616D01*
X173190522Y-91770678D01*
X173456043Y-91935296D01*
X173739941Y-92111380D01*
X174040464Y-92297838D01*
X174355854Y-92493580D01*
X174684357Y-92697514D01*
X175024219Y-92908549D01*
X175373684Y-93125595D01*
X175730998Y-93347560D01*
X176094405Y-93573354D01*
X176462150Y-93801885D01*
X176832478Y-94032063D01*
X177203635Y-94262796D01*
X177573866Y-94492993D01*
X177941414Y-94721564D01*
X178304526Y-94947417D01*
X178661447Y-95169462D01*
X179010421Y-95386607D01*
X179349693Y-95597761D01*
X179677509Y-95801834D01*
X179992113Y-95997735D01*
X180291751Y-96184371D01*
X180574667Y-96360654D01*
X180839107Y-96525490D01*
X181083315Y-96677790D01*
X181305537Y-96816463D01*
X181504018Y-96940417D01*
X181677002Y-97048561D01*
X181822734Y-97139804D01*
X181939460Y-97213057D01*
X182025425Y-97267226D01*
X182078873Y-97301222D01*
X182097986Y-97313887D01*
X182100859Y-97324910D01*
X182093611Y-97345977D01*
X182074309Y-97379653D01*
X182041020Y-97428501D01*
X181991811Y-97495087D01*
X181924749Y-97581975D01*
X181837900Y-97691729D01*
X181729332Y-97826913D01*
X181597112Y-97990092D01*
X181477564Y-98136925D01*
X181347935Y-98295270D01*
X181225914Y-98443095D01*
X181114183Y-98577234D01*
X181015427Y-98694525D01*
X180932328Y-98791802D01*
X180867571Y-98865902D01*
X180823838Y-98913659D01*
X180803813Y-98931910D01*
X180803311Y-98932001D01*
X180782106Y-98920925D01*
X180727465Y-98889011D01*
X180641892Y-98837791D01*
X180527889Y-98768797D01*
X180387960Y-98683563D01*
X180224610Y-98583621D01*
X180040340Y-98470503D01*
X179837654Y-98345742D01*
X179619056Y-98210872D01*
X179387050Y-98067424D01*
X179144137Y-97916931D01*
X179053067Y-97860434D01*
X178757495Y-97677404D01*
X178436477Y-97479338D01*
X178096721Y-97270337D01*
X177744935Y-97054500D01*
X177387827Y-96835927D01*
X177032104Y-96618718D01*
X176684475Y-96406975D01*
X176351647Y-96204796D01*
X176040329Y-96016282D01*
X175757229Y-95845533D01*
X175719317Y-95822732D01*
X175184942Y-95501390D01*
X174685989Y-95201190D01*
X174221535Y-94921570D01*
X173790656Y-94661965D01*
X173392429Y-94421814D01*
X173025931Y-94200553D01*
X172690238Y-93997619D01*
X172384426Y-93812450D01*
X172107573Y-93644481D01*
X171858755Y-93493150D01*
X171637049Y-93357894D01*
X171441531Y-93238150D01*
X171271278Y-93133355D01*
X171125366Y-93042945D01*
X171002873Y-92966359D01*
X170902874Y-92903032D01*
X170824446Y-92852402D01*
X170766667Y-92813905D01*
X170728612Y-92786979D01*
X170709358Y-92771061D01*
X170706563Y-92766184D01*
X170720694Y-92744153D01*
X170755800Y-92690218D01*
X170809609Y-92607850D01*
X170879844Y-92500523D01*
X170964234Y-92371709D01*
X171060503Y-92224880D01*
X171166377Y-92063510D01*
X171279582Y-91891071D01*
X171302049Y-91856860D01*
X171439539Y-91648058D01*
X171555900Y-91472633D01*
X171652765Y-91328270D01*
X171731769Y-91212653D01*
X171794546Y-91123468D01*
X171842730Y-91058399D01*
X171877955Y-91015131D01*
X171901856Y-90991349D01*
X171916067Y-90984738D01*
X171917430Y-90985071D01*
D12*
X168538200Y-123591000D03*
X168538200Y-126131000D03*
D13*
X165998200Y-123591000D03*
X165998200Y-126131000D03*
X163458200Y-123591000D03*
D14*
X163458200Y-126131000D03*
M02*
