G04 #@! TF.GenerationSoftware,KiCad,Pcbnew,(5.1.2-1)-1*
G04 #@! TF.CreationDate,2019-06-10T18:00:08-04:00*
G04 #@! TF.ProjectId,dc4044,64633430-3434-42e6-9b69-6361645f7063,rev?*
G04 #@! TF.SameCoordinates,Original*
G04 #@! TF.FileFunction,Copper,L2,Bot*
G04 #@! TF.FilePolarity,Positive*
%FSLAX46Y46*%
G04 Gerber Fmt 4.6, Leading zero omitted, Abs format (unit mm)*
G04 Created by KiCad (PCBNEW (5.1.2-1)-1) date 2019-06-10 18:00:08*
%MOMM*%
%LPD*%
G04 APERTURE LIST*
%ADD10C,0.010000*%
%ADD11C,0.900000*%
%ADD12C,0.100000*%
%ADD13C,0.400000*%
%ADD14R,0.800000X0.400000*%
%ADD15R,0.900000X1.000000*%
%ADD16C,1.150000*%
%ADD17C,1.727200*%
%ADD18O,1.727200X1.727200*%
%ADD19R,1.727200X1.727200*%
%ADD20C,0.250000*%
G04 APERTURE END LIST*
D10*
G36*
X174371387Y-120825238D02*
G01*
X174436428Y-120843376D01*
X174467145Y-120877082D01*
X174467006Y-120929405D01*
X174450209Y-120979212D01*
X174421824Y-121029797D01*
X174388565Y-121047130D01*
X174372566Y-121046821D01*
X174330494Y-121056258D01*
X174313255Y-121088574D01*
X174293682Y-121119343D01*
X174264176Y-121112457D01*
X174229723Y-121069877D01*
X174219861Y-121051812D01*
X174186184Y-121004658D01*
X174158504Y-120980414D01*
X174117337Y-120976237D01*
X174073191Y-121003312D01*
X174034948Y-121052252D01*
X174011491Y-121113671D01*
X174008260Y-121139163D01*
X174008823Y-121176832D01*
X174020078Y-121204418D01*
X174049843Y-121229950D01*
X174105934Y-121261452D01*
X174148304Y-121282959D01*
X174222424Y-121317868D01*
X174286315Y-121340347D01*
X174354931Y-121353876D01*
X174443229Y-121361934D01*
X174501228Y-121365086D01*
X174599432Y-121369005D01*
X174669000Y-121368024D01*
X174723539Y-121359946D01*
X174776662Y-121342573D01*
X174841978Y-121313708D01*
X174853878Y-121308153D01*
X174885984Y-121295584D01*
X175348900Y-121295584D01*
X175359484Y-121306167D01*
X175370067Y-121295584D01*
X175359484Y-121285000D01*
X175348900Y-121295584D01*
X174885984Y-121295584D01*
X174927169Y-121279461D01*
X175033418Y-121245306D01*
X175163949Y-121207876D01*
X175310083Y-121169359D01*
X175463143Y-121131944D01*
X175614451Y-121097818D01*
X175755330Y-121069170D01*
X175877103Y-121048188D01*
X175895411Y-121045523D01*
X175974088Y-121039721D01*
X176077693Y-121039614D01*
X176197638Y-121044397D01*
X176325332Y-121053267D01*
X176452184Y-121065421D01*
X176569604Y-121080053D01*
X176669001Y-121096362D01*
X176741786Y-121113544D01*
X176775822Y-121127883D01*
X176823576Y-121151672D01*
X176854316Y-121158000D01*
X176889869Y-121169288D01*
X176946308Y-121198610D01*
X176999850Y-121232049D01*
X177059997Y-121268892D01*
X177107135Y-121291145D01*
X177128977Y-121294300D01*
X177146946Y-121298061D01*
X177148067Y-121304918D01*
X177165243Y-121324669D01*
X177180562Y-121327334D01*
X177220902Y-121337916D01*
X177270520Y-121362674D01*
X177326271Y-121405163D01*
X177394103Y-121468515D01*
X177464602Y-121542487D01*
X177528354Y-121616835D01*
X177575946Y-121681314D01*
X177594784Y-121715536D01*
X177626130Y-121777898D01*
X177668147Y-121844219D01*
X177675094Y-121853749D01*
X177722738Y-121950149D01*
X177741085Y-122064612D01*
X177729747Y-122184278D01*
X177688372Y-122296226D01*
X177611515Y-122399751D01*
X177543152Y-122451567D01*
X177499001Y-122474407D01*
X177455428Y-122488937D01*
X177401541Y-122496800D01*
X177326447Y-122499638D01*
X177227283Y-122499198D01*
X177119779Y-122496621D01*
X177042323Y-122490690D01*
X176982649Y-122479290D01*
X176928489Y-122460305D01*
X176884772Y-122440141D01*
X176751774Y-122352737D01*
X176648963Y-122236775D01*
X176578252Y-122095205D01*
X176541550Y-121930972D01*
X176539318Y-121907381D01*
X176534506Y-121834990D01*
X176537459Y-121792465D01*
X176552242Y-121767502D01*
X176582919Y-121747795D01*
X176593942Y-121742044D01*
X176680282Y-121711823D01*
X176750230Y-121717614D01*
X176798207Y-121755959D01*
X176818716Y-121796243D01*
X176846553Y-121865785D01*
X176877333Y-121953162D01*
X176895301Y-122009100D01*
X176942857Y-122144525D01*
X176991901Y-122243651D01*
X177046315Y-122312444D01*
X177109984Y-122356871D01*
X177126472Y-122364323D01*
X177205527Y-122377332D01*
X177278341Y-122353630D01*
X177339115Y-122298838D01*
X177382049Y-122218576D01*
X177401345Y-122118465D01*
X177401860Y-122097418D01*
X177381285Y-121964313D01*
X177323289Y-121831799D01*
X177232676Y-121703534D01*
X177114246Y-121583175D01*
X176972802Y-121474378D01*
X176813145Y-121380801D01*
X176640079Y-121306099D01*
X176458405Y-121253931D01*
X176272924Y-121227951D01*
X176259067Y-121227164D01*
X176130347Y-121226603D01*
X176003949Y-121239542D01*
X175875203Y-121267891D01*
X175739441Y-121313564D01*
X175591995Y-121378471D01*
X175428195Y-121464525D01*
X175243373Y-121573638D01*
X175032860Y-121707721D01*
X174946734Y-121764569D01*
X174721409Y-121913503D01*
X174525851Y-122040319D01*
X174355389Y-122147524D01*
X174205355Y-122237625D01*
X174071078Y-122313126D01*
X173947890Y-122376534D01*
X173831120Y-122430355D01*
X173716100Y-122477095D01*
X173598160Y-122519261D01*
X173472630Y-122559358D01*
X173457003Y-122564098D01*
X173309818Y-122605866D01*
X173158751Y-122644011D01*
X173012689Y-122676677D01*
X172880518Y-122702008D01*
X172771123Y-122718150D01*
X172694828Y-122723267D01*
X172628671Y-122715861D01*
X172542826Y-122697626D01*
X172465987Y-122675642D01*
X172334098Y-122621250D01*
X172233590Y-122551773D01*
X172154074Y-122459016D01*
X172119382Y-122402140D01*
X172085937Y-122335649D01*
X172067460Y-122276856D01*
X172060034Y-122208095D01*
X172059450Y-122131667D01*
X172077395Y-121956960D01*
X172128698Y-121804008D01*
X172216555Y-121664860D01*
X172273275Y-121599983D01*
X172385028Y-121503858D01*
X172508432Y-121441288D01*
X172652048Y-121408840D01*
X172766567Y-121402224D01*
X172886502Y-121409544D01*
X172979298Y-121436962D01*
X173057646Y-121490241D01*
X173126910Y-121565833D01*
X173174232Y-121630051D01*
X173191934Y-121674380D01*
X173177060Y-121706727D01*
X173126656Y-121735000D01*
X173053702Y-121761725D01*
X172937943Y-121801073D01*
X172821772Y-121691203D01*
X172760027Y-121637847D01*
X172704671Y-121598786D01*
X172666576Y-121581573D01*
X172663542Y-121581334D01*
X172618110Y-121599901D01*
X172566718Y-121649348D01*
X172516484Y-121720294D01*
X172474527Y-121803356D01*
X172456587Y-121854079D01*
X172429924Y-122008221D01*
X172440388Y-122151262D01*
X172484781Y-122278675D01*
X172559910Y-122385935D01*
X172662578Y-122468515D01*
X172789589Y-122521891D01*
X172937748Y-122541536D01*
X172941995Y-122541557D01*
X173048768Y-122532116D01*
X173181993Y-122505611D01*
X173330919Y-122465174D01*
X173484795Y-122413939D01*
X173632870Y-122355041D01*
X173719067Y-122315050D01*
X173781156Y-122283843D01*
X173839161Y-122253463D01*
X173897833Y-122220987D01*
X173961921Y-122183493D01*
X174036176Y-122138059D01*
X174125347Y-122081764D01*
X174234186Y-122011686D01*
X174367441Y-121924903D01*
X174529863Y-121818492D01*
X174582709Y-121783800D01*
X174712555Y-121698895D01*
X174841520Y-121615212D01*
X174961757Y-121537795D01*
X175065423Y-121471686D01*
X175144672Y-121421928D01*
X175167186Y-121408092D01*
X175248576Y-121356428D01*
X175292149Y-121323619D01*
X175297977Y-121309841D01*
X175266132Y-121315271D01*
X175196683Y-121340086D01*
X175147817Y-121359844D01*
X174933685Y-121431058D01*
X174698570Y-121474893D01*
X174437355Y-121492130D01*
X174290567Y-121490874D01*
X174104181Y-121480863D01*
X173956048Y-121463078D01*
X173842673Y-121436774D01*
X173760563Y-121401203D01*
X173717900Y-121368500D01*
X173687891Y-121312538D01*
X173676859Y-121233103D01*
X173685167Y-121144747D01*
X173710410Y-121067649D01*
X173764616Y-120996971D01*
X173851820Y-120932878D01*
X173962759Y-120879485D01*
X174088169Y-120840908D01*
X174218788Y-120821265D01*
X174268556Y-120819623D01*
X174371387Y-120825238D01*
X174371387Y-120825238D01*
G37*
X174371387Y-120825238D02*
X174436428Y-120843376D01*
X174467145Y-120877082D01*
X174467006Y-120929405D01*
X174450209Y-120979212D01*
X174421824Y-121029797D01*
X174388565Y-121047130D01*
X174372566Y-121046821D01*
X174330494Y-121056258D01*
X174313255Y-121088574D01*
X174293682Y-121119343D01*
X174264176Y-121112457D01*
X174229723Y-121069877D01*
X174219861Y-121051812D01*
X174186184Y-121004658D01*
X174158504Y-120980414D01*
X174117337Y-120976237D01*
X174073191Y-121003312D01*
X174034948Y-121052252D01*
X174011491Y-121113671D01*
X174008260Y-121139163D01*
X174008823Y-121176832D01*
X174020078Y-121204418D01*
X174049843Y-121229950D01*
X174105934Y-121261452D01*
X174148304Y-121282959D01*
X174222424Y-121317868D01*
X174286315Y-121340347D01*
X174354931Y-121353876D01*
X174443229Y-121361934D01*
X174501228Y-121365086D01*
X174599432Y-121369005D01*
X174669000Y-121368024D01*
X174723539Y-121359946D01*
X174776662Y-121342573D01*
X174841978Y-121313708D01*
X174853878Y-121308153D01*
X174885984Y-121295584D01*
X175348900Y-121295584D01*
X175359484Y-121306167D01*
X175370067Y-121295584D01*
X175359484Y-121285000D01*
X175348900Y-121295584D01*
X174885984Y-121295584D01*
X174927169Y-121279461D01*
X175033418Y-121245306D01*
X175163949Y-121207876D01*
X175310083Y-121169359D01*
X175463143Y-121131944D01*
X175614451Y-121097818D01*
X175755330Y-121069170D01*
X175877103Y-121048188D01*
X175895411Y-121045523D01*
X175974088Y-121039721D01*
X176077693Y-121039614D01*
X176197638Y-121044397D01*
X176325332Y-121053267D01*
X176452184Y-121065421D01*
X176569604Y-121080053D01*
X176669001Y-121096362D01*
X176741786Y-121113544D01*
X176775822Y-121127883D01*
X176823576Y-121151672D01*
X176854316Y-121158000D01*
X176889869Y-121169288D01*
X176946308Y-121198610D01*
X176999850Y-121232049D01*
X177059997Y-121268892D01*
X177107135Y-121291145D01*
X177128977Y-121294300D01*
X177146946Y-121298061D01*
X177148067Y-121304918D01*
X177165243Y-121324669D01*
X177180562Y-121327334D01*
X177220902Y-121337916D01*
X177270520Y-121362674D01*
X177326271Y-121405163D01*
X177394103Y-121468515D01*
X177464602Y-121542487D01*
X177528354Y-121616835D01*
X177575946Y-121681314D01*
X177594784Y-121715536D01*
X177626130Y-121777898D01*
X177668147Y-121844219D01*
X177675094Y-121853749D01*
X177722738Y-121950149D01*
X177741085Y-122064612D01*
X177729747Y-122184278D01*
X177688372Y-122296226D01*
X177611515Y-122399751D01*
X177543152Y-122451567D01*
X177499001Y-122474407D01*
X177455428Y-122488937D01*
X177401541Y-122496800D01*
X177326447Y-122499638D01*
X177227283Y-122499198D01*
X177119779Y-122496621D01*
X177042323Y-122490690D01*
X176982649Y-122479290D01*
X176928489Y-122460305D01*
X176884772Y-122440141D01*
X176751774Y-122352737D01*
X176648963Y-122236775D01*
X176578252Y-122095205D01*
X176541550Y-121930972D01*
X176539318Y-121907381D01*
X176534506Y-121834990D01*
X176537459Y-121792465D01*
X176552242Y-121767502D01*
X176582919Y-121747795D01*
X176593942Y-121742044D01*
X176680282Y-121711823D01*
X176750230Y-121717614D01*
X176798207Y-121755959D01*
X176818716Y-121796243D01*
X176846553Y-121865785D01*
X176877333Y-121953162D01*
X176895301Y-122009100D01*
X176942857Y-122144525D01*
X176991901Y-122243651D01*
X177046315Y-122312444D01*
X177109984Y-122356871D01*
X177126472Y-122364323D01*
X177205527Y-122377332D01*
X177278341Y-122353630D01*
X177339115Y-122298838D01*
X177382049Y-122218576D01*
X177401345Y-122118465D01*
X177401860Y-122097418D01*
X177381285Y-121964313D01*
X177323289Y-121831799D01*
X177232676Y-121703534D01*
X177114246Y-121583175D01*
X176972802Y-121474378D01*
X176813145Y-121380801D01*
X176640079Y-121306099D01*
X176458405Y-121253931D01*
X176272924Y-121227951D01*
X176259067Y-121227164D01*
X176130347Y-121226603D01*
X176003949Y-121239542D01*
X175875203Y-121267891D01*
X175739441Y-121313564D01*
X175591995Y-121378471D01*
X175428195Y-121464525D01*
X175243373Y-121573638D01*
X175032860Y-121707721D01*
X174946734Y-121764569D01*
X174721409Y-121913503D01*
X174525851Y-122040319D01*
X174355389Y-122147524D01*
X174205355Y-122237625D01*
X174071078Y-122313126D01*
X173947890Y-122376534D01*
X173831120Y-122430355D01*
X173716100Y-122477095D01*
X173598160Y-122519261D01*
X173472630Y-122559358D01*
X173457003Y-122564098D01*
X173309818Y-122605866D01*
X173158751Y-122644011D01*
X173012689Y-122676677D01*
X172880518Y-122702008D01*
X172771123Y-122718150D01*
X172694828Y-122723267D01*
X172628671Y-122715861D01*
X172542826Y-122697626D01*
X172465987Y-122675642D01*
X172334098Y-122621250D01*
X172233590Y-122551773D01*
X172154074Y-122459016D01*
X172119382Y-122402140D01*
X172085937Y-122335649D01*
X172067460Y-122276856D01*
X172060034Y-122208095D01*
X172059450Y-122131667D01*
X172077395Y-121956960D01*
X172128698Y-121804008D01*
X172216555Y-121664860D01*
X172273275Y-121599983D01*
X172385028Y-121503858D01*
X172508432Y-121441288D01*
X172652048Y-121408840D01*
X172766567Y-121402224D01*
X172886502Y-121409544D01*
X172979298Y-121436962D01*
X173057646Y-121490241D01*
X173126910Y-121565833D01*
X173174232Y-121630051D01*
X173191934Y-121674380D01*
X173177060Y-121706727D01*
X173126656Y-121735000D01*
X173053702Y-121761725D01*
X172937943Y-121801073D01*
X172821772Y-121691203D01*
X172760027Y-121637847D01*
X172704671Y-121598786D01*
X172666576Y-121581573D01*
X172663542Y-121581334D01*
X172618110Y-121599901D01*
X172566718Y-121649348D01*
X172516484Y-121720294D01*
X172474527Y-121803356D01*
X172456587Y-121854079D01*
X172429924Y-122008221D01*
X172440388Y-122151262D01*
X172484781Y-122278675D01*
X172559910Y-122385935D01*
X172662578Y-122468515D01*
X172789589Y-122521891D01*
X172937748Y-122541536D01*
X172941995Y-122541557D01*
X173048768Y-122532116D01*
X173181993Y-122505611D01*
X173330919Y-122465174D01*
X173484795Y-122413939D01*
X173632870Y-122355041D01*
X173719067Y-122315050D01*
X173781156Y-122283843D01*
X173839161Y-122253463D01*
X173897833Y-122220987D01*
X173961921Y-122183493D01*
X174036176Y-122138059D01*
X174125347Y-122081764D01*
X174234186Y-122011686D01*
X174367441Y-121924903D01*
X174529863Y-121818492D01*
X174582709Y-121783800D01*
X174712555Y-121698895D01*
X174841520Y-121615212D01*
X174961757Y-121537795D01*
X175065423Y-121471686D01*
X175144672Y-121421928D01*
X175167186Y-121408092D01*
X175248576Y-121356428D01*
X175292149Y-121323619D01*
X175297977Y-121309841D01*
X175266132Y-121315271D01*
X175196683Y-121340086D01*
X175147817Y-121359844D01*
X174933685Y-121431058D01*
X174698570Y-121474893D01*
X174437355Y-121492130D01*
X174290567Y-121490874D01*
X174104181Y-121480863D01*
X173956048Y-121463078D01*
X173842673Y-121436774D01*
X173760563Y-121401203D01*
X173717900Y-121368500D01*
X173687891Y-121312538D01*
X173676859Y-121233103D01*
X173685167Y-121144747D01*
X173710410Y-121067649D01*
X173764616Y-120996971D01*
X173851820Y-120932878D01*
X173962759Y-120879485D01*
X174088169Y-120840908D01*
X174218788Y-120821265D01*
X174268556Y-120819623D01*
X174371387Y-120825238D01*
G36*
X176508794Y-117077064D02*
G01*
X176585755Y-117083753D01*
X176635943Y-117096230D01*
X176674907Y-117121362D01*
X176718193Y-117166017D01*
X176723374Y-117171838D01*
X176778275Y-117241863D01*
X176834353Y-117325891D01*
X176860947Y-117371695D01*
X176903056Y-117444709D01*
X176946148Y-117511310D01*
X176970098Y-117543574D01*
X177002019Y-117591235D01*
X177044628Y-117666789D01*
X177092426Y-117759012D01*
X177139912Y-117856683D01*
X177181584Y-117948579D01*
X177211944Y-118023477D01*
X177223896Y-118061379D01*
X177237793Y-118110885D01*
X177261289Y-118184452D01*
X177289373Y-118266411D01*
X177290204Y-118268750D01*
X177321317Y-118359173D01*
X177350810Y-118449709D01*
X177370850Y-118515820D01*
X177391715Y-118583180D01*
X177411860Y-118638220D01*
X177418710Y-118653404D01*
X177434219Y-118698021D01*
X177449063Y-118763067D01*
X177453034Y-118786434D01*
X177486553Y-118920981D01*
X177546183Y-119041457D01*
X177636544Y-119154521D01*
X177762261Y-119266830D01*
X177813607Y-119305827D01*
X177918184Y-119391552D01*
X177994233Y-119478604D01*
X178051002Y-119580338D01*
X178097740Y-119710109D01*
X178100900Y-119720671D01*
X178125792Y-119799194D01*
X178149046Y-119863095D01*
X178166198Y-119900266D01*
X178168098Y-119902948D01*
X178180925Y-119934834D01*
X178178487Y-119945292D01*
X178184067Y-119970637D01*
X178210825Y-120012808D01*
X178221006Y-120025594D01*
X178273915Y-120089084D01*
X178260063Y-119972667D01*
X178246017Y-119896932D01*
X178221120Y-119799958D01*
X178190144Y-119699850D01*
X178181967Y-119676334D01*
X178140516Y-119550758D01*
X178118510Y-119457996D01*
X178115707Y-119393386D01*
X178131866Y-119352263D01*
X178164092Y-119330869D01*
X178240713Y-119322101D01*
X178323286Y-119340437D01*
X178395309Y-119380108D01*
X178435660Y-119425840D01*
X178465012Y-119477266D01*
X178507223Y-119548717D01*
X178550496Y-119620354D01*
X178601073Y-119706196D01*
X178658540Y-119808372D01*
X178710812Y-119905373D01*
X178712793Y-119909167D01*
X178755525Y-119988265D01*
X178795319Y-120057017D01*
X178825078Y-120103291D01*
X178830385Y-120110250D01*
X178852812Y-120135195D01*
X178859831Y-120130198D01*
X178855109Y-120089918D01*
X178853084Y-120077192D01*
X178839170Y-120023339D01*
X178812539Y-119944932D01*
X178778065Y-119855921D01*
X178764340Y-119823192D01*
X178711943Y-119691549D01*
X178682716Y-119591991D01*
X178676979Y-119520963D01*
X178695052Y-119474913D01*
X178737254Y-119450288D01*
X178798500Y-119443500D01*
X178901369Y-119452765D01*
X178973396Y-119483558D01*
X179022498Y-119540382D01*
X179041602Y-119581721D01*
X179112394Y-119710450D01*
X179216635Y-119822936D01*
X179346855Y-119913796D01*
X179495588Y-119977645D01*
X179631009Y-120006659D01*
X179751567Y-120020829D01*
X179750907Y-119748039D01*
X179738405Y-119424348D01*
X179701718Y-119130660D01*
X179639597Y-118861399D01*
X179550792Y-118610987D01*
X179513708Y-118534344D01*
X179918769Y-118534344D01*
X179920964Y-118566307D01*
X179934274Y-118619252D01*
X179956049Y-118684160D01*
X179983640Y-118752011D01*
X180011453Y-118808500D01*
X180033836Y-118854949D01*
X180050773Y-118906831D01*
X180064000Y-118973105D01*
X180075256Y-119062729D01*
X180086278Y-119184663D01*
X180087611Y-119201189D01*
X180097088Y-119342664D01*
X180104773Y-119501143D01*
X180109818Y-119656168D01*
X180111400Y-119774692D01*
X180111400Y-120050757D01*
X180243692Y-120084025D01*
X180337539Y-120106446D01*
X180397923Y-120116670D01*
X180432018Y-120114362D01*
X180446999Y-120099188D01*
X180450067Y-120074424D01*
X180444753Y-120031927D01*
X180430071Y-119956310D01*
X180407913Y-119855261D01*
X180380169Y-119736467D01*
X180348730Y-119607617D01*
X180315486Y-119476400D01*
X180282330Y-119350502D01*
X180251150Y-119237613D01*
X180223839Y-119145421D01*
X180214208Y-119115417D01*
X180181254Y-119025773D01*
X180138632Y-118923666D01*
X180090591Y-118817817D01*
X180041376Y-118716948D01*
X179995234Y-118629782D01*
X179956413Y-118565041D01*
X179930339Y-118532384D01*
X179918769Y-118534344D01*
X179513708Y-118534344D01*
X179449492Y-118401627D01*
X179403477Y-118317614D01*
X179347777Y-118216058D01*
X179293115Y-118116507D01*
X179283723Y-118099417D01*
X179236046Y-118021840D01*
X179177097Y-117939284D01*
X179113330Y-117859285D01*
X179051198Y-117789379D01*
X178997154Y-117737100D01*
X178957652Y-117709985D01*
X178948384Y-117707834D01*
X178913267Y-117692682D01*
X178868017Y-117656087D01*
X178826173Y-117611341D01*
X178801274Y-117571737D01*
X178799067Y-117561256D01*
X178812038Y-117535487D01*
X178855125Y-117511799D01*
X178925747Y-117489054D01*
X179022901Y-117464702D01*
X179094124Y-117457438D01*
X179153387Y-117470217D01*
X179214664Y-117505996D01*
X179289987Y-117566097D01*
X179354412Y-117619121D01*
X179442743Y-117690225D01*
X179545312Y-117771706D01*
X179652450Y-117855857D01*
X179701896Y-117894343D01*
X179882304Y-118039200D01*
X180030641Y-118170176D01*
X180152249Y-118293206D01*
X180252468Y-118414223D01*
X180336639Y-118539161D01*
X180410103Y-118673953D01*
X180417830Y-118689783D01*
X180472760Y-118806659D01*
X180519700Y-118915076D01*
X180560984Y-119022424D01*
X180598946Y-119136091D01*
X180635919Y-119263467D01*
X180674237Y-119411939D01*
X180716233Y-119588898D01*
X180752818Y-119750435D01*
X180864092Y-120248511D01*
X181000511Y-120313027D01*
X181091913Y-120362499D01*
X181188421Y-120425209D01*
X181283197Y-120495424D01*
X181369408Y-120567410D01*
X181440219Y-120635433D01*
X181488795Y-120693759D01*
X181508300Y-120736656D01*
X181508400Y-120739074D01*
X181491525Y-120769145D01*
X181446179Y-120779872D01*
X181380284Y-120773540D01*
X181301758Y-120752435D01*
X181218523Y-120718840D01*
X181138498Y-120675043D01*
X181069605Y-120623327D01*
X181053450Y-120607803D01*
X181005010Y-120561235D01*
X180967283Y-120530433D01*
X180952700Y-120523000D01*
X180951011Y-120539346D01*
X180967651Y-120582730D01*
X180997919Y-120644669D01*
X181037110Y-120716684D01*
X181080521Y-120790293D01*
X181123449Y-120857014D01*
X181161191Y-120908366D01*
X181175119Y-120924089D01*
X181250411Y-120988191D01*
X181327761Y-121021211D01*
X181425447Y-121030791D01*
X181430403Y-121030793D01*
X181555534Y-121010249D01*
X181677737Y-120952755D01*
X181792010Y-120863643D01*
X181893348Y-120748245D01*
X181976749Y-120611894D01*
X182037211Y-120459921D01*
X182061303Y-120358372D01*
X182070754Y-120201810D01*
X182041177Y-120061593D01*
X181972473Y-119937493D01*
X181864544Y-119829287D01*
X181813926Y-119792754D01*
X181718297Y-119735213D01*
X181645955Y-119707131D01*
X181590696Y-119707591D01*
X181546318Y-119735679D01*
X181532693Y-119751251D01*
X181491541Y-119831528D01*
X181488853Y-119911203D01*
X181521274Y-119983110D01*
X181585446Y-120040078D01*
X181678013Y-120074939D01*
X181684871Y-120076258D01*
X181768806Y-120096928D01*
X181812517Y-120121892D01*
X181818024Y-120152753D01*
X181805943Y-120172293D01*
X181752003Y-120205517D01*
X181659681Y-120221747D01*
X181529391Y-120220925D01*
X181476707Y-120216770D01*
X181349989Y-120195747D01*
X181253125Y-120156454D01*
X181175727Y-120093763D01*
X181139930Y-120050490D01*
X181103148Y-119970875D01*
X181093709Y-119879115D01*
X181111187Y-119790987D01*
X181148567Y-119728896D01*
X181253155Y-119646566D01*
X181383773Y-119590966D01*
X181533101Y-119562747D01*
X181693822Y-119562559D01*
X181858617Y-119591054D01*
X182020167Y-119648884D01*
X182024593Y-119650941D01*
X182177992Y-119739066D01*
X182293527Y-119843601D01*
X182373581Y-119967832D01*
X182420536Y-120115044D01*
X182433762Y-120215088D01*
X182437436Y-120291006D01*
X182434113Y-120356990D01*
X182421654Y-120426640D01*
X182397922Y-120513555D01*
X182375553Y-120585393D01*
X182338493Y-120694594D01*
X182303945Y-120776264D01*
X182264799Y-120844098D01*
X182213949Y-120911792D01*
X182193349Y-120936482D01*
X182093663Y-121037354D01*
X181985120Y-121112132D01*
X181862572Y-121161986D01*
X181720868Y-121188085D01*
X181554858Y-121191597D01*
X181359394Y-121173691D01*
X181233234Y-121154419D01*
X181091464Y-121118967D01*
X180968062Y-121061861D01*
X180859312Y-120979296D01*
X180761498Y-120867467D01*
X180670902Y-120722568D01*
X180583810Y-120540792D01*
X180547042Y-120451679D01*
X180480889Y-120285109D01*
X180354353Y-120245124D01*
X180275917Y-120224374D01*
X180204098Y-120212118D01*
X180165273Y-120210611D01*
X180130099Y-120216733D01*
X180108434Y-120234181D01*
X180093651Y-120273162D01*
X180079269Y-120343084D01*
X180062144Y-120426460D01*
X180043196Y-120505057D01*
X180032024Y-120544167D01*
X179986284Y-120693422D01*
X179956487Y-120806437D01*
X179942928Y-120882052D01*
X179942067Y-120898257D01*
X179932468Y-120951793D01*
X179908796Y-121016099D01*
X179902991Y-121028118D01*
X179876954Y-121079583D01*
X179837952Y-121156893D01*
X179792024Y-121248066D01*
X179760116Y-121311480D01*
X179665263Y-121481431D01*
X179554247Y-121649283D01*
X179432657Y-121808545D01*
X179306082Y-121952723D01*
X179180109Y-122075324D01*
X179060329Y-122169855D01*
X178980639Y-122217098D01*
X178869171Y-122265296D01*
X178775047Y-122287791D01*
X178683300Y-122286233D01*
X178578964Y-122262272D01*
X178576817Y-122261627D01*
X178400415Y-122199405D01*
X178256841Y-122129548D01*
X178148914Y-122053799D01*
X178079454Y-121973905D01*
X178064471Y-121944613D01*
X178038828Y-121838257D01*
X178044719Y-121729644D01*
X178078767Y-121629059D01*
X178137595Y-121546783D01*
X178211937Y-121495559D01*
X178285478Y-121478704D01*
X178371960Y-121480857D01*
X178459289Y-121498922D01*
X178535371Y-121529802D01*
X178588113Y-121570404D01*
X178602738Y-121595598D01*
X178590467Y-121617629D01*
X178550657Y-121642365D01*
X178543361Y-121645540D01*
X178473972Y-121691709D01*
X178426794Y-121757694D01*
X178401519Y-121834863D01*
X178397836Y-121914585D01*
X178415437Y-121988230D01*
X178454011Y-122047168D01*
X178513250Y-122082766D01*
X178559279Y-122089334D01*
X178630302Y-122081496D01*
X178701447Y-122055377D01*
X178778970Y-122007067D01*
X178869126Y-121932655D01*
X178978170Y-121828231D01*
X178980081Y-121826317D01*
X179130103Y-121665145D01*
X179256572Y-121503470D01*
X179366501Y-121330442D01*
X179466901Y-121135208D01*
X179549239Y-120945535D01*
X179577251Y-120870677D01*
X179609783Y-120774342D01*
X179644181Y-120665578D01*
X179677793Y-120553429D01*
X179707966Y-120446942D01*
X179732046Y-120355163D01*
X179747379Y-120287138D01*
X179751567Y-120255709D01*
X179744158Y-120210908D01*
X179717861Y-120176125D01*
X179666566Y-120147742D01*
X179584166Y-120122140D01*
X179490328Y-120100937D01*
X179364281Y-120079036D01*
X179275988Y-120073487D01*
X179224076Y-120084473D01*
X179207175Y-120112182D01*
X179213896Y-120138332D01*
X179224704Y-120181863D01*
X179232833Y-120251122D01*
X179237978Y-120334369D01*
X179239833Y-120419863D01*
X179238092Y-120495864D01*
X179232448Y-120550632D01*
X179225170Y-120571030D01*
X179190709Y-120583309D01*
X179128501Y-120588493D01*
X179052473Y-120586940D01*
X178976550Y-120579008D01*
X178914658Y-120565056D01*
X178908532Y-120562880D01*
X178843775Y-120525353D01*
X178772936Y-120464817D01*
X178710752Y-120395125D01*
X178680301Y-120348375D01*
X178648394Y-120301381D01*
X178624812Y-120295575D01*
X178611233Y-120330340D01*
X178608567Y-120374834D01*
X178608567Y-120459500D01*
X178455109Y-120459389D01*
X178350982Y-120454586D01*
X178278767Y-120439249D01*
X178243664Y-120422347D01*
X178171000Y-120360035D01*
X178089080Y-120261319D01*
X178000761Y-120130358D01*
X177908901Y-119971312D01*
X177835613Y-119828352D01*
X177784753Y-119726101D01*
X177739431Y-119638804D01*
X177703153Y-119572920D01*
X177679425Y-119534909D01*
X177672646Y-119528167D01*
X177657808Y-119545025D01*
X177658457Y-119585605D01*
X177672952Y-119634919D01*
X177687316Y-119662015D01*
X177710658Y-119719627D01*
X177717906Y-119772396D01*
X177724218Y-119879672D01*
X177748047Y-119988748D01*
X177777907Y-120078500D01*
X177800301Y-120149276D01*
X177826448Y-120246775D01*
X177852506Y-120356076D01*
X177867852Y-120427750D01*
X177892364Y-120543283D01*
X177923362Y-120681727D01*
X177956723Y-120825010D01*
X177985901Y-120945332D01*
X178010749Y-121049239D01*
X178030075Y-121137880D01*
X178042329Y-121203495D01*
X178045961Y-121238323D01*
X178045084Y-121241665D01*
X178019013Y-121247998D01*
X177964712Y-121251722D01*
X177921577Y-121252182D01*
X177820354Y-121240395D01*
X177746621Y-121209097D01*
X177705415Y-121161140D01*
X177698400Y-121125840D01*
X177693785Y-121079514D01*
X177681444Y-121004774D01*
X177663636Y-120912106D01*
X177642621Y-120811994D01*
X177620656Y-120714923D01*
X177600000Y-120631378D01*
X177582912Y-120571844D01*
X177574425Y-120550324D01*
X177559900Y-120533526D01*
X177544361Y-120543368D01*
X177522336Y-120585273D01*
X177509404Y-120614741D01*
X177484555Y-120675978D01*
X177468668Y-120721406D01*
X177465567Y-120735426D01*
X177449514Y-120791586D01*
X177409933Y-120850522D01*
X177359686Y-120893382D01*
X177356664Y-120895004D01*
X177276717Y-120918687D01*
X177178447Y-120923366D01*
X177081241Y-120909276D01*
X177029607Y-120891029D01*
X176965979Y-120844310D01*
X176897124Y-120766970D01*
X176829023Y-120669210D01*
X176767656Y-120561230D01*
X176719003Y-120453233D01*
X176689045Y-120355420D01*
X176682400Y-120298777D01*
X176677867Y-120250587D01*
X176666760Y-120227110D01*
X176664810Y-120226667D01*
X176643168Y-120210024D01*
X176618671Y-120173322D01*
X176593852Y-120139359D01*
X176573639Y-120141580D01*
X176556814Y-120181838D01*
X176542158Y-120261984D01*
X176537742Y-120296228D01*
X176519576Y-120399403D01*
X176490938Y-120467008D01*
X176446151Y-120505533D01*
X176379539Y-120521468D01*
X176339402Y-120523000D01*
X176228214Y-120509867D01*
X176139541Y-120466542D01*
X176061655Y-120387139D01*
X176057275Y-120381373D01*
X176009324Y-120320597D01*
X175975360Y-120290680D01*
X175945453Y-120287553D01*
X175909671Y-120307146D01*
X175897558Y-120315919D01*
X175854729Y-120340804D01*
X175804810Y-120351613D01*
X175732354Y-120351136D01*
X175710482Y-120349695D01*
X175629283Y-120340064D01*
X175573764Y-120321548D01*
X175527366Y-120288105D01*
X175518212Y-120279563D01*
X175478364Y-120236011D01*
X175456294Y-120201449D01*
X175454734Y-120194646D01*
X175440512Y-120164975D01*
X175405806Y-120124672D01*
X175401155Y-120120211D01*
X175354222Y-120054399D01*
X175317169Y-119961800D01*
X175294386Y-119857604D01*
X175290264Y-119757000D01*
X175291707Y-119741590D01*
X175295043Y-119670104D01*
X175292733Y-119577257D01*
X175285602Y-119486548D01*
X175268079Y-119381288D01*
X175239658Y-119311756D01*
X175195039Y-119271719D01*
X175128920Y-119254943D01*
X175087264Y-119253324D01*
X175019111Y-119255989D01*
X174978216Y-119267354D01*
X174963340Y-119293389D01*
X174973247Y-119340060D01*
X175006699Y-119413339D01*
X175040610Y-119478305D01*
X175086677Y-119571966D01*
X175126269Y-119665311D01*
X175153411Y-119743695D01*
X175160241Y-119771584D01*
X175179339Y-119850784D01*
X175203972Y-119925550D01*
X175213741Y-119948609D01*
X175230837Y-120007692D01*
X175240061Y-120087302D01*
X175241780Y-120175493D01*
X175236363Y-120260317D01*
X175224180Y-120329828D01*
X175205598Y-120372080D01*
X175200536Y-120376633D01*
X175157048Y-120387837D01*
X175087284Y-120388159D01*
X175005394Y-120379280D01*
X174925529Y-120362879D01*
X174861838Y-120340637D01*
X174851504Y-120335186D01*
X174801053Y-120294877D01*
X174747727Y-120236035D01*
X174728214Y-120209346D01*
X174684867Y-120152923D01*
X174654325Y-120135650D01*
X174632840Y-120157715D01*
X174617480Y-120214878D01*
X174599472Y-120265974D01*
X174563315Y-120295691D01*
X174500110Y-120308942D01*
X174443345Y-120311044D01*
X174337945Y-120293255D01*
X174232018Y-120243779D01*
X174162209Y-120190207D01*
X174122829Y-120145462D01*
X174104248Y-120097075D01*
X174099153Y-120025956D01*
X174099150Y-120025652D01*
X174091414Y-119954217D01*
X174071381Y-119864510D01*
X174042270Y-119765171D01*
X174007302Y-119664845D01*
X173969696Y-119572174D01*
X173932673Y-119495800D01*
X173899453Y-119444366D01*
X173875965Y-119426604D01*
X173827741Y-119435524D01*
X173804992Y-119452567D01*
X173794232Y-119475515D01*
X173796390Y-119510221D01*
X173813326Y-119565482D01*
X173846602Y-119649380D01*
X173884822Y-119734240D01*
X173924388Y-119810651D01*
X173957911Y-119864569D01*
X173963655Y-119871914D01*
X174015180Y-119963665D01*
X174043384Y-120084039D01*
X174047657Y-120225934D01*
X174027387Y-120382245D01*
X174012916Y-120444742D01*
X173989785Y-120514563D01*
X173958029Y-120561364D01*
X173909557Y-120589543D01*
X173836280Y-120603496D01*
X173730106Y-120607623D01*
X173713193Y-120607667D01*
X173607347Y-120609902D01*
X173534710Y-120617456D01*
X173486354Y-120631602D01*
X173466667Y-120642795D01*
X173409976Y-120665987D01*
X173321099Y-120681855D01*
X173266165Y-120686460D01*
X173142741Y-120682913D01*
X173048943Y-120654417D01*
X172978276Y-120598097D01*
X172939954Y-120542140D01*
X172903684Y-120478449D01*
X172879360Y-120444356D01*
X172864742Y-120442475D01*
X172857586Y-120475418D01*
X172855650Y-120545798D01*
X172856465Y-120639417D01*
X172856807Y-120747384D01*
X172853481Y-120823900D01*
X172845026Y-120879791D01*
X172829982Y-120925882D01*
X172812991Y-120961501D01*
X172776476Y-121019930D01*
X172738815Y-121062966D01*
X172725556Y-121072626D01*
X172678020Y-121085187D01*
X172601664Y-121092130D01*
X172509619Y-121093500D01*
X172415016Y-121089345D01*
X172330987Y-121079710D01*
X172290317Y-121071102D01*
X172199884Y-121026813D01*
X172110736Y-120948306D01*
X172027274Y-120843585D01*
X171953899Y-120720649D01*
X171895015Y-120587500D01*
X171855024Y-120452140D01*
X171838327Y-120322570D01*
X171840930Y-120254284D01*
X171854054Y-120178089D01*
X171878080Y-120131099D01*
X171921324Y-120107670D01*
X171992102Y-120102160D01*
X172059842Y-120105741D01*
X172183189Y-120122274D01*
X172276609Y-120153606D01*
X172351317Y-120204569D01*
X172394732Y-120250008D01*
X172433624Y-120314608D01*
X172448583Y-120380129D01*
X172439932Y-120435872D01*
X172407997Y-120471133D01*
X172387845Y-120477242D01*
X172333442Y-120466410D01*
X172286868Y-120425819D01*
X172245610Y-120387795D01*
X172217489Y-120386696D01*
X172214430Y-120389337D01*
X172208784Y-120421777D01*
X172220904Y-120480842D01*
X172246506Y-120557020D01*
X172281306Y-120640797D01*
X172321018Y-120722663D01*
X172361359Y-120793103D01*
X172398044Y-120842607D01*
X172426789Y-120861661D01*
X172427172Y-120861667D01*
X172448013Y-120845371D01*
X172468195Y-120794156D01*
X172489043Y-120704532D01*
X172491404Y-120692334D01*
X172495897Y-120623315D01*
X172491181Y-120520188D01*
X172478361Y-120389901D01*
X172458543Y-120239402D01*
X172432834Y-120075641D01*
X172402340Y-119905565D01*
X172368166Y-119736124D01*
X172334602Y-119588281D01*
X172837551Y-119588281D01*
X172840845Y-119636840D01*
X172860211Y-119708999D01*
X172893827Y-119796469D01*
X172919376Y-119842229D01*
X172959882Y-119901478D01*
X173007630Y-119964474D01*
X173054907Y-120021471D01*
X173093998Y-120062728D01*
X173117111Y-120078500D01*
X173118531Y-120060529D01*
X173113052Y-120020292D01*
X173097845Y-119964768D01*
X173072233Y-119894740D01*
X173061537Y-119869434D01*
X173037065Y-119807880D01*
X173022417Y-119759040D01*
X173020567Y-119745609D01*
X173005851Y-119712261D01*
X172969576Y-119665856D01*
X172923548Y-119618633D01*
X172879574Y-119582835D01*
X172851668Y-119570500D01*
X172837551Y-119588281D01*
X172334602Y-119588281D01*
X172331419Y-119574265D01*
X172293205Y-119426938D01*
X172285871Y-119401167D01*
X172255592Y-119292857D01*
X172224280Y-119175046D01*
X172198241Y-119071508D01*
X172196085Y-119062500D01*
X172092491Y-118684319D01*
X171958414Y-118289736D01*
X171797180Y-117887828D01*
X171639953Y-117544524D01*
X171609526Y-117473734D01*
X171591125Y-117414674D01*
X171588729Y-117380164D01*
X171615909Y-117347777D01*
X171672861Y-117322498D01*
X171764854Y-117302306D01*
X171809069Y-117295687D01*
X171920488Y-117280447D01*
X171964221Y-117383015D01*
X171989901Y-117441310D01*
X172028662Y-117526937D01*
X172075504Y-117628948D01*
X172125430Y-117736396D01*
X172131874Y-117750167D01*
X172183209Y-117860755D01*
X172223474Y-117951149D01*
X172256532Y-118031820D01*
X172286245Y-118113242D01*
X172316478Y-118205885D01*
X172351093Y-118320223D01*
X172385504Y-118437674D01*
X172445225Y-118632310D01*
X172503930Y-118799438D01*
X172567064Y-118953388D01*
X172640075Y-119108490D01*
X172641707Y-119111771D01*
X172679226Y-119191289D01*
X172707825Y-119259883D01*
X172722958Y-119306323D01*
X172724234Y-119315555D01*
X172733307Y-119353394D01*
X172765021Y-119379756D01*
X172826114Y-119398017D01*
X172913824Y-119410539D01*
X173049763Y-119433595D01*
X173148275Y-119469623D01*
X173212591Y-119519807D01*
X173212714Y-119519954D01*
X173242148Y-119566679D01*
X173275555Y-119636014D01*
X173306779Y-119712862D01*
X173329661Y-119782127D01*
X173338067Y-119827323D01*
X173349041Y-119860128D01*
X173362761Y-119866834D01*
X173377966Y-119874437D01*
X173375146Y-119879143D01*
X173373825Y-119905073D01*
X173386916Y-119952118D01*
X173389372Y-119958518D01*
X173405484Y-120039707D01*
X173404759Y-120158632D01*
X173403121Y-120180539D01*
X173396749Y-120264035D01*
X173396953Y-120317128D01*
X173407302Y-120351642D01*
X173431370Y-120379402D01*
X173472726Y-120412231D01*
X173473213Y-120412605D01*
X173547085Y-120453956D01*
X173609503Y-120455177D01*
X173661133Y-120415920D01*
X173702639Y-120335839D01*
X173718684Y-120284573D01*
X173734898Y-120202994D01*
X173736662Y-120122922D01*
X173721985Y-120038204D01*
X173688881Y-119942689D01*
X173635359Y-119830227D01*
X173559431Y-119694666D01*
X173491647Y-119582350D01*
X173375140Y-119393116D01*
X173422448Y-119354808D01*
X173463743Y-119332255D01*
X173524676Y-119320036D01*
X173616152Y-119316016D01*
X173620870Y-119315995D01*
X173711486Y-119312471D01*
X173798256Y-119303779D01*
X173856650Y-119293086D01*
X173973400Y-119265977D01*
X174060027Y-119256338D01*
X174125231Y-119264766D01*
X174177714Y-119291857D01*
X174206439Y-119317039D01*
X174236315Y-119365461D01*
X174247811Y-119438460D01*
X174248234Y-119461386D01*
X174255728Y-119541939D01*
X174279962Y-119591918D01*
X174286942Y-119598970D01*
X174321433Y-119625874D01*
X174338828Y-119634000D01*
X174344458Y-119614471D01*
X174345790Y-119561879D01*
X174343373Y-119485214D01*
X174337755Y-119393468D01*
X174329486Y-119295633D01*
X174319113Y-119200700D01*
X174307405Y-119118967D01*
X174295394Y-119031762D01*
X174299442Y-118977817D01*
X174326017Y-118949158D01*
X174381589Y-118937811D01*
X174456000Y-118935824D01*
X174547203Y-118940808D01*
X174607968Y-118960541D01*
X174649323Y-119001244D01*
X174679433Y-119061883D01*
X174701809Y-119112296D01*
X174725808Y-119137478D01*
X174765899Y-119146183D01*
X174820378Y-119147167D01*
X174883435Y-119143529D01*
X174975599Y-119133632D01*
X175084366Y-119118998D01*
X175194513Y-119101613D01*
X175461827Y-119056058D01*
X175498912Y-119101856D01*
X175533438Y-119165829D01*
X175556799Y-119260476D01*
X175569473Y-119389067D01*
X175571936Y-119554874D01*
X175571130Y-119597727D01*
X175569482Y-119711015D01*
X175571606Y-119792081D01*
X175578554Y-119850948D01*
X175591383Y-119897642D01*
X175606352Y-119932479D01*
X175643143Y-119989819D01*
X175676742Y-120007967D01*
X175705011Y-119990051D01*
X175725815Y-119939199D01*
X175737016Y-119858541D01*
X175736477Y-119751203D01*
X175735944Y-119742765D01*
X175731737Y-119656706D01*
X175734405Y-119600337D01*
X175745839Y-119561307D01*
X175767932Y-119527267D01*
X175769210Y-119525650D01*
X175836761Y-119473200D01*
X175926736Y-119452882D01*
X176029100Y-119465439D01*
X176078635Y-119481078D01*
X176102588Y-119501981D01*
X176110245Y-119541974D01*
X176110884Y-119587191D01*
X176116139Y-119645271D01*
X176130284Y-119722731D01*
X176150863Y-119811150D01*
X176175419Y-119902106D01*
X176201497Y-119987180D01*
X176226640Y-120057950D01*
X176248393Y-120105994D01*
X176264300Y-120122894D01*
X176266749Y-120121618D01*
X176270860Y-120095325D01*
X176270407Y-120035082D01*
X176266107Y-119948942D01*
X176258682Y-119844955D01*
X176248851Y-119731175D01*
X176237332Y-119615653D01*
X176224847Y-119506442D01*
X176212113Y-119411593D01*
X176199852Y-119339160D01*
X176194801Y-119316500D01*
X176177594Y-119248492D01*
X176157140Y-119167949D01*
X176150737Y-119142795D01*
X176137613Y-119067210D01*
X176148660Y-119018429D01*
X176189577Y-118988946D01*
X176266065Y-118971254D01*
X176282767Y-118968912D01*
X176364368Y-118963907D01*
X176420329Y-118976152D01*
X176438286Y-118986013D01*
X176477032Y-119032184D01*
X176508340Y-119108912D01*
X176528537Y-119204590D01*
X176534234Y-119289413D01*
X176542187Y-119355150D01*
X176561662Y-119409283D01*
X176564917Y-119414387D01*
X176586852Y-119454162D01*
X176617905Y-119520959D01*
X176652301Y-119602176D01*
X176661621Y-119625472D01*
X176701099Y-119720119D01*
X176744133Y-119814963D01*
X176782161Y-119891230D01*
X176786170Y-119898584D01*
X176823116Y-119974458D01*
X176862756Y-120069852D01*
X176895071Y-120159893D01*
X176923923Y-120236509D01*
X176963192Y-120324218D01*
X177008347Y-120414742D01*
X177054855Y-120499801D01*
X177098183Y-120571116D01*
X177133799Y-120620410D01*
X177157169Y-120639402D01*
X177157602Y-120639417D01*
X177175743Y-120620789D01*
X177200798Y-120572211D01*
X177228781Y-120504636D01*
X177255708Y-120429020D01*
X177277597Y-120356320D01*
X177290461Y-120297489D01*
X177291924Y-120270086D01*
X177283397Y-120238057D01*
X177260045Y-120218905D01*
X177210964Y-120206266D01*
X177172295Y-120200246D01*
X177095172Y-120182943D01*
X177026263Y-120157124D01*
X177000533Y-120142451D01*
X176944541Y-120082770D01*
X176898487Y-119996546D01*
X176864268Y-119894129D01*
X176843780Y-119785868D01*
X176841336Y-119733703D01*
X177130093Y-119733703D01*
X177137440Y-119791872D01*
X177155032Y-119865331D01*
X177179747Y-119942229D01*
X177208460Y-120010718D01*
X177225422Y-120041459D01*
X177266706Y-120098325D01*
X177297764Y-120117782D01*
X177324116Y-120101716D01*
X177337822Y-120079892D01*
X177360914Y-120009484D01*
X177351329Y-119938617D01*
X177307084Y-119860506D01*
X177255941Y-119799518D01*
X177203527Y-119746852D01*
X177161278Y-119712087D01*
X177137418Y-119701871D01*
X177136115Y-119702673D01*
X177130093Y-119733703D01*
X176841336Y-119733703D01*
X176838918Y-119682113D01*
X176851578Y-119593214D01*
X176883655Y-119529522D01*
X176887517Y-119525422D01*
X176948302Y-119490081D01*
X177036013Y-119471332D01*
X177138182Y-119470279D01*
X177242336Y-119488023D01*
X177258188Y-119492630D01*
X177357726Y-119523419D01*
X177345301Y-119457001D01*
X177332773Y-119403601D01*
X177311634Y-119326261D01*
X177286355Y-119241303D01*
X177285192Y-119237563D01*
X177258838Y-119161743D01*
X177228437Y-119098331D01*
X177186645Y-119035611D01*
X177126119Y-118961865D01*
X177079588Y-118909480D01*
X176992479Y-118806487D01*
X176896297Y-118682157D01*
X176798646Y-118547290D01*
X176707131Y-118412686D01*
X176629358Y-118289144D01*
X176577392Y-118196332D01*
X176522527Y-118075296D01*
X176474115Y-117937719D01*
X176429195Y-117774323D01*
X176394884Y-117623941D01*
X176372788Y-117526561D01*
X176351559Y-117444037D01*
X176333701Y-117385462D01*
X176322282Y-117360416D01*
X176305809Y-117320083D01*
X176302046Y-117256778D01*
X176310032Y-117187592D01*
X176328802Y-117129617D01*
X176335953Y-117117589D01*
X176358706Y-117091022D01*
X176387492Y-117077342D01*
X176434457Y-117073702D01*
X176508794Y-117077064D01*
X176508794Y-117077064D01*
G37*
X176508794Y-117077064D02*
X176585755Y-117083753D01*
X176635943Y-117096230D01*
X176674907Y-117121362D01*
X176718193Y-117166017D01*
X176723374Y-117171838D01*
X176778275Y-117241863D01*
X176834353Y-117325891D01*
X176860947Y-117371695D01*
X176903056Y-117444709D01*
X176946148Y-117511310D01*
X176970098Y-117543574D01*
X177002019Y-117591235D01*
X177044628Y-117666789D01*
X177092426Y-117759012D01*
X177139912Y-117856683D01*
X177181584Y-117948579D01*
X177211944Y-118023477D01*
X177223896Y-118061379D01*
X177237793Y-118110885D01*
X177261289Y-118184452D01*
X177289373Y-118266411D01*
X177290204Y-118268750D01*
X177321317Y-118359173D01*
X177350810Y-118449709D01*
X177370850Y-118515820D01*
X177391715Y-118583180D01*
X177411860Y-118638220D01*
X177418710Y-118653404D01*
X177434219Y-118698021D01*
X177449063Y-118763067D01*
X177453034Y-118786434D01*
X177486553Y-118920981D01*
X177546183Y-119041457D01*
X177636544Y-119154521D01*
X177762261Y-119266830D01*
X177813607Y-119305827D01*
X177918184Y-119391552D01*
X177994233Y-119478604D01*
X178051002Y-119580338D01*
X178097740Y-119710109D01*
X178100900Y-119720671D01*
X178125792Y-119799194D01*
X178149046Y-119863095D01*
X178166198Y-119900266D01*
X178168098Y-119902948D01*
X178180925Y-119934834D01*
X178178487Y-119945292D01*
X178184067Y-119970637D01*
X178210825Y-120012808D01*
X178221006Y-120025594D01*
X178273915Y-120089084D01*
X178260063Y-119972667D01*
X178246017Y-119896932D01*
X178221120Y-119799958D01*
X178190144Y-119699850D01*
X178181967Y-119676334D01*
X178140516Y-119550758D01*
X178118510Y-119457996D01*
X178115707Y-119393386D01*
X178131866Y-119352263D01*
X178164092Y-119330869D01*
X178240713Y-119322101D01*
X178323286Y-119340437D01*
X178395309Y-119380108D01*
X178435660Y-119425840D01*
X178465012Y-119477266D01*
X178507223Y-119548717D01*
X178550496Y-119620354D01*
X178601073Y-119706196D01*
X178658540Y-119808372D01*
X178710812Y-119905373D01*
X178712793Y-119909167D01*
X178755525Y-119988265D01*
X178795319Y-120057017D01*
X178825078Y-120103291D01*
X178830385Y-120110250D01*
X178852812Y-120135195D01*
X178859831Y-120130198D01*
X178855109Y-120089918D01*
X178853084Y-120077192D01*
X178839170Y-120023339D01*
X178812539Y-119944932D01*
X178778065Y-119855921D01*
X178764340Y-119823192D01*
X178711943Y-119691549D01*
X178682716Y-119591991D01*
X178676979Y-119520963D01*
X178695052Y-119474913D01*
X178737254Y-119450288D01*
X178798500Y-119443500D01*
X178901369Y-119452765D01*
X178973396Y-119483558D01*
X179022498Y-119540382D01*
X179041602Y-119581721D01*
X179112394Y-119710450D01*
X179216635Y-119822936D01*
X179346855Y-119913796D01*
X179495588Y-119977645D01*
X179631009Y-120006659D01*
X179751567Y-120020829D01*
X179750907Y-119748039D01*
X179738405Y-119424348D01*
X179701718Y-119130660D01*
X179639597Y-118861399D01*
X179550792Y-118610987D01*
X179513708Y-118534344D01*
X179918769Y-118534344D01*
X179920964Y-118566307D01*
X179934274Y-118619252D01*
X179956049Y-118684160D01*
X179983640Y-118752011D01*
X180011453Y-118808500D01*
X180033836Y-118854949D01*
X180050773Y-118906831D01*
X180064000Y-118973105D01*
X180075256Y-119062729D01*
X180086278Y-119184663D01*
X180087611Y-119201189D01*
X180097088Y-119342664D01*
X180104773Y-119501143D01*
X180109818Y-119656168D01*
X180111400Y-119774692D01*
X180111400Y-120050757D01*
X180243692Y-120084025D01*
X180337539Y-120106446D01*
X180397923Y-120116670D01*
X180432018Y-120114362D01*
X180446999Y-120099188D01*
X180450067Y-120074424D01*
X180444753Y-120031927D01*
X180430071Y-119956310D01*
X180407913Y-119855261D01*
X180380169Y-119736467D01*
X180348730Y-119607617D01*
X180315486Y-119476400D01*
X180282330Y-119350502D01*
X180251150Y-119237613D01*
X180223839Y-119145421D01*
X180214208Y-119115417D01*
X180181254Y-119025773D01*
X180138632Y-118923666D01*
X180090591Y-118817817D01*
X180041376Y-118716948D01*
X179995234Y-118629782D01*
X179956413Y-118565041D01*
X179930339Y-118532384D01*
X179918769Y-118534344D01*
X179513708Y-118534344D01*
X179449492Y-118401627D01*
X179403477Y-118317614D01*
X179347777Y-118216058D01*
X179293115Y-118116507D01*
X179283723Y-118099417D01*
X179236046Y-118021840D01*
X179177097Y-117939284D01*
X179113330Y-117859285D01*
X179051198Y-117789379D01*
X178997154Y-117737100D01*
X178957652Y-117709985D01*
X178948384Y-117707834D01*
X178913267Y-117692682D01*
X178868017Y-117656087D01*
X178826173Y-117611341D01*
X178801274Y-117571737D01*
X178799067Y-117561256D01*
X178812038Y-117535487D01*
X178855125Y-117511799D01*
X178925747Y-117489054D01*
X179022901Y-117464702D01*
X179094124Y-117457438D01*
X179153387Y-117470217D01*
X179214664Y-117505996D01*
X179289987Y-117566097D01*
X179354412Y-117619121D01*
X179442743Y-117690225D01*
X179545312Y-117771706D01*
X179652450Y-117855857D01*
X179701896Y-117894343D01*
X179882304Y-118039200D01*
X180030641Y-118170176D01*
X180152249Y-118293206D01*
X180252468Y-118414223D01*
X180336639Y-118539161D01*
X180410103Y-118673953D01*
X180417830Y-118689783D01*
X180472760Y-118806659D01*
X180519700Y-118915076D01*
X180560984Y-119022424D01*
X180598946Y-119136091D01*
X180635919Y-119263467D01*
X180674237Y-119411939D01*
X180716233Y-119588898D01*
X180752818Y-119750435D01*
X180864092Y-120248511D01*
X181000511Y-120313027D01*
X181091913Y-120362499D01*
X181188421Y-120425209D01*
X181283197Y-120495424D01*
X181369408Y-120567410D01*
X181440219Y-120635433D01*
X181488795Y-120693759D01*
X181508300Y-120736656D01*
X181508400Y-120739074D01*
X181491525Y-120769145D01*
X181446179Y-120779872D01*
X181380284Y-120773540D01*
X181301758Y-120752435D01*
X181218523Y-120718840D01*
X181138498Y-120675043D01*
X181069605Y-120623327D01*
X181053450Y-120607803D01*
X181005010Y-120561235D01*
X180967283Y-120530433D01*
X180952700Y-120523000D01*
X180951011Y-120539346D01*
X180967651Y-120582730D01*
X180997919Y-120644669D01*
X181037110Y-120716684D01*
X181080521Y-120790293D01*
X181123449Y-120857014D01*
X181161191Y-120908366D01*
X181175119Y-120924089D01*
X181250411Y-120988191D01*
X181327761Y-121021211D01*
X181425447Y-121030791D01*
X181430403Y-121030793D01*
X181555534Y-121010249D01*
X181677737Y-120952755D01*
X181792010Y-120863643D01*
X181893348Y-120748245D01*
X181976749Y-120611894D01*
X182037211Y-120459921D01*
X182061303Y-120358372D01*
X182070754Y-120201810D01*
X182041177Y-120061593D01*
X181972473Y-119937493D01*
X181864544Y-119829287D01*
X181813926Y-119792754D01*
X181718297Y-119735213D01*
X181645955Y-119707131D01*
X181590696Y-119707591D01*
X181546318Y-119735679D01*
X181532693Y-119751251D01*
X181491541Y-119831528D01*
X181488853Y-119911203D01*
X181521274Y-119983110D01*
X181585446Y-120040078D01*
X181678013Y-120074939D01*
X181684871Y-120076258D01*
X181768806Y-120096928D01*
X181812517Y-120121892D01*
X181818024Y-120152753D01*
X181805943Y-120172293D01*
X181752003Y-120205517D01*
X181659681Y-120221747D01*
X181529391Y-120220925D01*
X181476707Y-120216770D01*
X181349989Y-120195747D01*
X181253125Y-120156454D01*
X181175727Y-120093763D01*
X181139930Y-120050490D01*
X181103148Y-119970875D01*
X181093709Y-119879115D01*
X181111187Y-119790987D01*
X181148567Y-119728896D01*
X181253155Y-119646566D01*
X181383773Y-119590966D01*
X181533101Y-119562747D01*
X181693822Y-119562559D01*
X181858617Y-119591054D01*
X182020167Y-119648884D01*
X182024593Y-119650941D01*
X182177992Y-119739066D01*
X182293527Y-119843601D01*
X182373581Y-119967832D01*
X182420536Y-120115044D01*
X182433762Y-120215088D01*
X182437436Y-120291006D01*
X182434113Y-120356990D01*
X182421654Y-120426640D01*
X182397922Y-120513555D01*
X182375553Y-120585393D01*
X182338493Y-120694594D01*
X182303945Y-120776264D01*
X182264799Y-120844098D01*
X182213949Y-120911792D01*
X182193349Y-120936482D01*
X182093663Y-121037354D01*
X181985120Y-121112132D01*
X181862572Y-121161986D01*
X181720868Y-121188085D01*
X181554858Y-121191597D01*
X181359394Y-121173691D01*
X181233234Y-121154419D01*
X181091464Y-121118967D01*
X180968062Y-121061861D01*
X180859312Y-120979296D01*
X180761498Y-120867467D01*
X180670902Y-120722568D01*
X180583810Y-120540792D01*
X180547042Y-120451679D01*
X180480889Y-120285109D01*
X180354353Y-120245124D01*
X180275917Y-120224374D01*
X180204098Y-120212118D01*
X180165273Y-120210611D01*
X180130099Y-120216733D01*
X180108434Y-120234181D01*
X180093651Y-120273162D01*
X180079269Y-120343084D01*
X180062144Y-120426460D01*
X180043196Y-120505057D01*
X180032024Y-120544167D01*
X179986284Y-120693422D01*
X179956487Y-120806437D01*
X179942928Y-120882052D01*
X179942067Y-120898257D01*
X179932468Y-120951793D01*
X179908796Y-121016099D01*
X179902991Y-121028118D01*
X179876954Y-121079583D01*
X179837952Y-121156893D01*
X179792024Y-121248066D01*
X179760116Y-121311480D01*
X179665263Y-121481431D01*
X179554247Y-121649283D01*
X179432657Y-121808545D01*
X179306082Y-121952723D01*
X179180109Y-122075324D01*
X179060329Y-122169855D01*
X178980639Y-122217098D01*
X178869171Y-122265296D01*
X178775047Y-122287791D01*
X178683300Y-122286233D01*
X178578964Y-122262272D01*
X178576817Y-122261627D01*
X178400415Y-122199405D01*
X178256841Y-122129548D01*
X178148914Y-122053799D01*
X178079454Y-121973905D01*
X178064471Y-121944613D01*
X178038828Y-121838257D01*
X178044719Y-121729644D01*
X178078767Y-121629059D01*
X178137595Y-121546783D01*
X178211937Y-121495559D01*
X178285478Y-121478704D01*
X178371960Y-121480857D01*
X178459289Y-121498922D01*
X178535371Y-121529802D01*
X178588113Y-121570404D01*
X178602738Y-121595598D01*
X178590467Y-121617629D01*
X178550657Y-121642365D01*
X178543361Y-121645540D01*
X178473972Y-121691709D01*
X178426794Y-121757694D01*
X178401519Y-121834863D01*
X178397836Y-121914585D01*
X178415437Y-121988230D01*
X178454011Y-122047168D01*
X178513250Y-122082766D01*
X178559279Y-122089334D01*
X178630302Y-122081496D01*
X178701447Y-122055377D01*
X178778970Y-122007067D01*
X178869126Y-121932655D01*
X178978170Y-121828231D01*
X178980081Y-121826317D01*
X179130103Y-121665145D01*
X179256572Y-121503470D01*
X179366501Y-121330442D01*
X179466901Y-121135208D01*
X179549239Y-120945535D01*
X179577251Y-120870677D01*
X179609783Y-120774342D01*
X179644181Y-120665578D01*
X179677793Y-120553429D01*
X179707966Y-120446942D01*
X179732046Y-120355163D01*
X179747379Y-120287138D01*
X179751567Y-120255709D01*
X179744158Y-120210908D01*
X179717861Y-120176125D01*
X179666566Y-120147742D01*
X179584166Y-120122140D01*
X179490328Y-120100937D01*
X179364281Y-120079036D01*
X179275988Y-120073487D01*
X179224076Y-120084473D01*
X179207175Y-120112182D01*
X179213896Y-120138332D01*
X179224704Y-120181863D01*
X179232833Y-120251122D01*
X179237978Y-120334369D01*
X179239833Y-120419863D01*
X179238092Y-120495864D01*
X179232448Y-120550632D01*
X179225170Y-120571030D01*
X179190709Y-120583309D01*
X179128501Y-120588493D01*
X179052473Y-120586940D01*
X178976550Y-120579008D01*
X178914658Y-120565056D01*
X178908532Y-120562880D01*
X178843775Y-120525353D01*
X178772936Y-120464817D01*
X178710752Y-120395125D01*
X178680301Y-120348375D01*
X178648394Y-120301381D01*
X178624812Y-120295575D01*
X178611233Y-120330340D01*
X178608567Y-120374834D01*
X178608567Y-120459500D01*
X178455109Y-120459389D01*
X178350982Y-120454586D01*
X178278767Y-120439249D01*
X178243664Y-120422347D01*
X178171000Y-120360035D01*
X178089080Y-120261319D01*
X178000761Y-120130358D01*
X177908901Y-119971312D01*
X177835613Y-119828352D01*
X177784753Y-119726101D01*
X177739431Y-119638804D01*
X177703153Y-119572920D01*
X177679425Y-119534909D01*
X177672646Y-119528167D01*
X177657808Y-119545025D01*
X177658457Y-119585605D01*
X177672952Y-119634919D01*
X177687316Y-119662015D01*
X177710658Y-119719627D01*
X177717906Y-119772396D01*
X177724218Y-119879672D01*
X177748047Y-119988748D01*
X177777907Y-120078500D01*
X177800301Y-120149276D01*
X177826448Y-120246775D01*
X177852506Y-120356076D01*
X177867852Y-120427750D01*
X177892364Y-120543283D01*
X177923362Y-120681727D01*
X177956723Y-120825010D01*
X177985901Y-120945332D01*
X178010749Y-121049239D01*
X178030075Y-121137880D01*
X178042329Y-121203495D01*
X178045961Y-121238323D01*
X178045084Y-121241665D01*
X178019013Y-121247998D01*
X177964712Y-121251722D01*
X177921577Y-121252182D01*
X177820354Y-121240395D01*
X177746621Y-121209097D01*
X177705415Y-121161140D01*
X177698400Y-121125840D01*
X177693785Y-121079514D01*
X177681444Y-121004774D01*
X177663636Y-120912106D01*
X177642621Y-120811994D01*
X177620656Y-120714923D01*
X177600000Y-120631378D01*
X177582912Y-120571844D01*
X177574425Y-120550324D01*
X177559900Y-120533526D01*
X177544361Y-120543368D01*
X177522336Y-120585273D01*
X177509404Y-120614741D01*
X177484555Y-120675978D01*
X177468668Y-120721406D01*
X177465567Y-120735426D01*
X177449514Y-120791586D01*
X177409933Y-120850522D01*
X177359686Y-120893382D01*
X177356664Y-120895004D01*
X177276717Y-120918687D01*
X177178447Y-120923366D01*
X177081241Y-120909276D01*
X177029607Y-120891029D01*
X176965979Y-120844310D01*
X176897124Y-120766970D01*
X176829023Y-120669210D01*
X176767656Y-120561230D01*
X176719003Y-120453233D01*
X176689045Y-120355420D01*
X176682400Y-120298777D01*
X176677867Y-120250587D01*
X176666760Y-120227110D01*
X176664810Y-120226667D01*
X176643168Y-120210024D01*
X176618671Y-120173322D01*
X176593852Y-120139359D01*
X176573639Y-120141580D01*
X176556814Y-120181838D01*
X176542158Y-120261984D01*
X176537742Y-120296228D01*
X176519576Y-120399403D01*
X176490938Y-120467008D01*
X176446151Y-120505533D01*
X176379539Y-120521468D01*
X176339402Y-120523000D01*
X176228214Y-120509867D01*
X176139541Y-120466542D01*
X176061655Y-120387139D01*
X176057275Y-120381373D01*
X176009324Y-120320597D01*
X175975360Y-120290680D01*
X175945453Y-120287553D01*
X175909671Y-120307146D01*
X175897558Y-120315919D01*
X175854729Y-120340804D01*
X175804810Y-120351613D01*
X175732354Y-120351136D01*
X175710482Y-120349695D01*
X175629283Y-120340064D01*
X175573764Y-120321548D01*
X175527366Y-120288105D01*
X175518212Y-120279563D01*
X175478364Y-120236011D01*
X175456294Y-120201449D01*
X175454734Y-120194646D01*
X175440512Y-120164975D01*
X175405806Y-120124672D01*
X175401155Y-120120211D01*
X175354222Y-120054399D01*
X175317169Y-119961800D01*
X175294386Y-119857604D01*
X175290264Y-119757000D01*
X175291707Y-119741590D01*
X175295043Y-119670104D01*
X175292733Y-119577257D01*
X175285602Y-119486548D01*
X175268079Y-119381288D01*
X175239658Y-119311756D01*
X175195039Y-119271719D01*
X175128920Y-119254943D01*
X175087264Y-119253324D01*
X175019111Y-119255989D01*
X174978216Y-119267354D01*
X174963340Y-119293389D01*
X174973247Y-119340060D01*
X175006699Y-119413339D01*
X175040610Y-119478305D01*
X175086677Y-119571966D01*
X175126269Y-119665311D01*
X175153411Y-119743695D01*
X175160241Y-119771584D01*
X175179339Y-119850784D01*
X175203972Y-119925550D01*
X175213741Y-119948609D01*
X175230837Y-120007692D01*
X175240061Y-120087302D01*
X175241780Y-120175493D01*
X175236363Y-120260317D01*
X175224180Y-120329828D01*
X175205598Y-120372080D01*
X175200536Y-120376633D01*
X175157048Y-120387837D01*
X175087284Y-120388159D01*
X175005394Y-120379280D01*
X174925529Y-120362879D01*
X174861838Y-120340637D01*
X174851504Y-120335186D01*
X174801053Y-120294877D01*
X174747727Y-120236035D01*
X174728214Y-120209346D01*
X174684867Y-120152923D01*
X174654325Y-120135650D01*
X174632840Y-120157715D01*
X174617480Y-120214878D01*
X174599472Y-120265974D01*
X174563315Y-120295691D01*
X174500110Y-120308942D01*
X174443345Y-120311044D01*
X174337945Y-120293255D01*
X174232018Y-120243779D01*
X174162209Y-120190207D01*
X174122829Y-120145462D01*
X174104248Y-120097075D01*
X174099153Y-120025956D01*
X174099150Y-120025652D01*
X174091414Y-119954217D01*
X174071381Y-119864510D01*
X174042270Y-119765171D01*
X174007302Y-119664845D01*
X173969696Y-119572174D01*
X173932673Y-119495800D01*
X173899453Y-119444366D01*
X173875965Y-119426604D01*
X173827741Y-119435524D01*
X173804992Y-119452567D01*
X173794232Y-119475515D01*
X173796390Y-119510221D01*
X173813326Y-119565482D01*
X173846602Y-119649380D01*
X173884822Y-119734240D01*
X173924388Y-119810651D01*
X173957911Y-119864569D01*
X173963655Y-119871914D01*
X174015180Y-119963665D01*
X174043384Y-120084039D01*
X174047657Y-120225934D01*
X174027387Y-120382245D01*
X174012916Y-120444742D01*
X173989785Y-120514563D01*
X173958029Y-120561364D01*
X173909557Y-120589543D01*
X173836280Y-120603496D01*
X173730106Y-120607623D01*
X173713193Y-120607667D01*
X173607347Y-120609902D01*
X173534710Y-120617456D01*
X173486354Y-120631602D01*
X173466667Y-120642795D01*
X173409976Y-120665987D01*
X173321099Y-120681855D01*
X173266165Y-120686460D01*
X173142741Y-120682913D01*
X173048943Y-120654417D01*
X172978276Y-120598097D01*
X172939954Y-120542140D01*
X172903684Y-120478449D01*
X172879360Y-120444356D01*
X172864742Y-120442475D01*
X172857586Y-120475418D01*
X172855650Y-120545798D01*
X172856465Y-120639417D01*
X172856807Y-120747384D01*
X172853481Y-120823900D01*
X172845026Y-120879791D01*
X172829982Y-120925882D01*
X172812991Y-120961501D01*
X172776476Y-121019930D01*
X172738815Y-121062966D01*
X172725556Y-121072626D01*
X172678020Y-121085187D01*
X172601664Y-121092130D01*
X172509619Y-121093500D01*
X172415016Y-121089345D01*
X172330987Y-121079710D01*
X172290317Y-121071102D01*
X172199884Y-121026813D01*
X172110736Y-120948306D01*
X172027274Y-120843585D01*
X171953899Y-120720649D01*
X171895015Y-120587500D01*
X171855024Y-120452140D01*
X171838327Y-120322570D01*
X171840930Y-120254284D01*
X171854054Y-120178089D01*
X171878080Y-120131099D01*
X171921324Y-120107670D01*
X171992102Y-120102160D01*
X172059842Y-120105741D01*
X172183189Y-120122274D01*
X172276609Y-120153606D01*
X172351317Y-120204569D01*
X172394732Y-120250008D01*
X172433624Y-120314608D01*
X172448583Y-120380129D01*
X172439932Y-120435872D01*
X172407997Y-120471133D01*
X172387845Y-120477242D01*
X172333442Y-120466410D01*
X172286868Y-120425819D01*
X172245610Y-120387795D01*
X172217489Y-120386696D01*
X172214430Y-120389337D01*
X172208784Y-120421777D01*
X172220904Y-120480842D01*
X172246506Y-120557020D01*
X172281306Y-120640797D01*
X172321018Y-120722663D01*
X172361359Y-120793103D01*
X172398044Y-120842607D01*
X172426789Y-120861661D01*
X172427172Y-120861667D01*
X172448013Y-120845371D01*
X172468195Y-120794156D01*
X172489043Y-120704532D01*
X172491404Y-120692334D01*
X172495897Y-120623315D01*
X172491181Y-120520188D01*
X172478361Y-120389901D01*
X172458543Y-120239402D01*
X172432834Y-120075641D01*
X172402340Y-119905565D01*
X172368166Y-119736124D01*
X172334602Y-119588281D01*
X172837551Y-119588281D01*
X172840845Y-119636840D01*
X172860211Y-119708999D01*
X172893827Y-119796469D01*
X172919376Y-119842229D01*
X172959882Y-119901478D01*
X173007630Y-119964474D01*
X173054907Y-120021471D01*
X173093998Y-120062728D01*
X173117111Y-120078500D01*
X173118531Y-120060529D01*
X173113052Y-120020292D01*
X173097845Y-119964768D01*
X173072233Y-119894740D01*
X173061537Y-119869434D01*
X173037065Y-119807880D01*
X173022417Y-119759040D01*
X173020567Y-119745609D01*
X173005851Y-119712261D01*
X172969576Y-119665856D01*
X172923548Y-119618633D01*
X172879574Y-119582835D01*
X172851668Y-119570500D01*
X172837551Y-119588281D01*
X172334602Y-119588281D01*
X172331419Y-119574265D01*
X172293205Y-119426938D01*
X172285871Y-119401167D01*
X172255592Y-119292857D01*
X172224280Y-119175046D01*
X172198241Y-119071508D01*
X172196085Y-119062500D01*
X172092491Y-118684319D01*
X171958414Y-118289736D01*
X171797180Y-117887828D01*
X171639953Y-117544524D01*
X171609526Y-117473734D01*
X171591125Y-117414674D01*
X171588729Y-117380164D01*
X171615909Y-117347777D01*
X171672861Y-117322498D01*
X171764854Y-117302306D01*
X171809069Y-117295687D01*
X171920488Y-117280447D01*
X171964221Y-117383015D01*
X171989901Y-117441310D01*
X172028662Y-117526937D01*
X172075504Y-117628948D01*
X172125430Y-117736396D01*
X172131874Y-117750167D01*
X172183209Y-117860755D01*
X172223474Y-117951149D01*
X172256532Y-118031820D01*
X172286245Y-118113242D01*
X172316478Y-118205885D01*
X172351093Y-118320223D01*
X172385504Y-118437674D01*
X172445225Y-118632310D01*
X172503930Y-118799438D01*
X172567064Y-118953388D01*
X172640075Y-119108490D01*
X172641707Y-119111771D01*
X172679226Y-119191289D01*
X172707825Y-119259883D01*
X172722958Y-119306323D01*
X172724234Y-119315555D01*
X172733307Y-119353394D01*
X172765021Y-119379756D01*
X172826114Y-119398017D01*
X172913824Y-119410539D01*
X173049763Y-119433595D01*
X173148275Y-119469623D01*
X173212591Y-119519807D01*
X173212714Y-119519954D01*
X173242148Y-119566679D01*
X173275555Y-119636014D01*
X173306779Y-119712862D01*
X173329661Y-119782127D01*
X173338067Y-119827323D01*
X173349041Y-119860128D01*
X173362761Y-119866834D01*
X173377966Y-119874437D01*
X173375146Y-119879143D01*
X173373825Y-119905073D01*
X173386916Y-119952118D01*
X173389372Y-119958518D01*
X173405484Y-120039707D01*
X173404759Y-120158632D01*
X173403121Y-120180539D01*
X173396749Y-120264035D01*
X173396953Y-120317128D01*
X173407302Y-120351642D01*
X173431370Y-120379402D01*
X173472726Y-120412231D01*
X173473213Y-120412605D01*
X173547085Y-120453956D01*
X173609503Y-120455177D01*
X173661133Y-120415920D01*
X173702639Y-120335839D01*
X173718684Y-120284573D01*
X173734898Y-120202994D01*
X173736662Y-120122922D01*
X173721985Y-120038204D01*
X173688881Y-119942689D01*
X173635359Y-119830227D01*
X173559431Y-119694666D01*
X173491647Y-119582350D01*
X173375140Y-119393116D01*
X173422448Y-119354808D01*
X173463743Y-119332255D01*
X173524676Y-119320036D01*
X173616152Y-119316016D01*
X173620870Y-119315995D01*
X173711486Y-119312471D01*
X173798256Y-119303779D01*
X173856650Y-119293086D01*
X173973400Y-119265977D01*
X174060027Y-119256338D01*
X174125231Y-119264766D01*
X174177714Y-119291857D01*
X174206439Y-119317039D01*
X174236315Y-119365461D01*
X174247811Y-119438460D01*
X174248234Y-119461386D01*
X174255728Y-119541939D01*
X174279962Y-119591918D01*
X174286942Y-119598970D01*
X174321433Y-119625874D01*
X174338828Y-119634000D01*
X174344458Y-119614471D01*
X174345790Y-119561879D01*
X174343373Y-119485214D01*
X174337755Y-119393468D01*
X174329486Y-119295633D01*
X174319113Y-119200700D01*
X174307405Y-119118967D01*
X174295394Y-119031762D01*
X174299442Y-118977817D01*
X174326017Y-118949158D01*
X174381589Y-118937811D01*
X174456000Y-118935824D01*
X174547203Y-118940808D01*
X174607968Y-118960541D01*
X174649323Y-119001244D01*
X174679433Y-119061883D01*
X174701809Y-119112296D01*
X174725808Y-119137478D01*
X174765899Y-119146183D01*
X174820378Y-119147167D01*
X174883435Y-119143529D01*
X174975599Y-119133632D01*
X175084366Y-119118998D01*
X175194513Y-119101613D01*
X175461827Y-119056058D01*
X175498912Y-119101856D01*
X175533438Y-119165829D01*
X175556799Y-119260476D01*
X175569473Y-119389067D01*
X175571936Y-119554874D01*
X175571130Y-119597727D01*
X175569482Y-119711015D01*
X175571606Y-119792081D01*
X175578554Y-119850948D01*
X175591383Y-119897642D01*
X175606352Y-119932479D01*
X175643143Y-119989819D01*
X175676742Y-120007967D01*
X175705011Y-119990051D01*
X175725815Y-119939199D01*
X175737016Y-119858541D01*
X175736477Y-119751203D01*
X175735944Y-119742765D01*
X175731737Y-119656706D01*
X175734405Y-119600337D01*
X175745839Y-119561307D01*
X175767932Y-119527267D01*
X175769210Y-119525650D01*
X175836761Y-119473200D01*
X175926736Y-119452882D01*
X176029100Y-119465439D01*
X176078635Y-119481078D01*
X176102588Y-119501981D01*
X176110245Y-119541974D01*
X176110884Y-119587191D01*
X176116139Y-119645271D01*
X176130284Y-119722731D01*
X176150863Y-119811150D01*
X176175419Y-119902106D01*
X176201497Y-119987180D01*
X176226640Y-120057950D01*
X176248393Y-120105994D01*
X176264300Y-120122894D01*
X176266749Y-120121618D01*
X176270860Y-120095325D01*
X176270407Y-120035082D01*
X176266107Y-119948942D01*
X176258682Y-119844955D01*
X176248851Y-119731175D01*
X176237332Y-119615653D01*
X176224847Y-119506442D01*
X176212113Y-119411593D01*
X176199852Y-119339160D01*
X176194801Y-119316500D01*
X176177594Y-119248492D01*
X176157140Y-119167949D01*
X176150737Y-119142795D01*
X176137613Y-119067210D01*
X176148660Y-119018429D01*
X176189577Y-118988946D01*
X176266065Y-118971254D01*
X176282767Y-118968912D01*
X176364368Y-118963907D01*
X176420329Y-118976152D01*
X176438286Y-118986013D01*
X176477032Y-119032184D01*
X176508340Y-119108912D01*
X176528537Y-119204590D01*
X176534234Y-119289413D01*
X176542187Y-119355150D01*
X176561662Y-119409283D01*
X176564917Y-119414387D01*
X176586852Y-119454162D01*
X176617905Y-119520959D01*
X176652301Y-119602176D01*
X176661621Y-119625472D01*
X176701099Y-119720119D01*
X176744133Y-119814963D01*
X176782161Y-119891230D01*
X176786170Y-119898584D01*
X176823116Y-119974458D01*
X176862756Y-120069852D01*
X176895071Y-120159893D01*
X176923923Y-120236509D01*
X176963192Y-120324218D01*
X177008347Y-120414742D01*
X177054855Y-120499801D01*
X177098183Y-120571116D01*
X177133799Y-120620410D01*
X177157169Y-120639402D01*
X177157602Y-120639417D01*
X177175743Y-120620789D01*
X177200798Y-120572211D01*
X177228781Y-120504636D01*
X177255708Y-120429020D01*
X177277597Y-120356320D01*
X177290461Y-120297489D01*
X177291924Y-120270086D01*
X177283397Y-120238057D01*
X177260045Y-120218905D01*
X177210964Y-120206266D01*
X177172295Y-120200246D01*
X177095172Y-120182943D01*
X177026263Y-120157124D01*
X177000533Y-120142451D01*
X176944541Y-120082770D01*
X176898487Y-119996546D01*
X176864268Y-119894129D01*
X176843780Y-119785868D01*
X176841336Y-119733703D01*
X177130093Y-119733703D01*
X177137440Y-119791872D01*
X177155032Y-119865331D01*
X177179747Y-119942229D01*
X177208460Y-120010718D01*
X177225422Y-120041459D01*
X177266706Y-120098325D01*
X177297764Y-120117782D01*
X177324116Y-120101716D01*
X177337822Y-120079892D01*
X177360914Y-120009484D01*
X177351329Y-119938617D01*
X177307084Y-119860506D01*
X177255941Y-119799518D01*
X177203527Y-119746852D01*
X177161278Y-119712087D01*
X177137418Y-119701871D01*
X177136115Y-119702673D01*
X177130093Y-119733703D01*
X176841336Y-119733703D01*
X176838918Y-119682113D01*
X176851578Y-119593214D01*
X176883655Y-119529522D01*
X176887517Y-119525422D01*
X176948302Y-119490081D01*
X177036013Y-119471332D01*
X177138182Y-119470279D01*
X177242336Y-119488023D01*
X177258188Y-119492630D01*
X177357726Y-119523419D01*
X177345301Y-119457001D01*
X177332773Y-119403601D01*
X177311634Y-119326261D01*
X177286355Y-119241303D01*
X177285192Y-119237563D01*
X177258838Y-119161743D01*
X177228437Y-119098331D01*
X177186645Y-119035611D01*
X177126119Y-118961865D01*
X177079588Y-118909480D01*
X176992479Y-118806487D01*
X176896297Y-118682157D01*
X176798646Y-118547290D01*
X176707131Y-118412686D01*
X176629358Y-118289144D01*
X176577392Y-118196332D01*
X176522527Y-118075296D01*
X176474115Y-117937719D01*
X176429195Y-117774323D01*
X176394884Y-117623941D01*
X176372788Y-117526561D01*
X176351559Y-117444037D01*
X176333701Y-117385462D01*
X176322282Y-117360416D01*
X176305809Y-117320083D01*
X176302046Y-117256778D01*
X176310032Y-117187592D01*
X176328802Y-117129617D01*
X176335953Y-117117589D01*
X176358706Y-117091022D01*
X176387492Y-117077342D01*
X176434457Y-117073702D01*
X176508794Y-117077064D01*
G36*
X170790463Y-120214957D02*
G01*
X170826710Y-120280902D01*
X170833990Y-120302720D01*
X170853956Y-120384425D01*
X170874491Y-120496470D01*
X170894046Y-120626916D01*
X170911075Y-120763823D01*
X170924031Y-120895252D01*
X170931369Y-121009263D01*
X170932440Y-121062750D01*
X170931142Y-121147272D01*
X170926710Y-121198402D01*
X170916788Y-121225077D01*
X170899020Y-121236230D01*
X170886000Y-121238847D01*
X170852046Y-121235680D01*
X170840812Y-121204774D01*
X170840400Y-121190171D01*
X170820775Y-121098363D01*
X170765170Y-121024482D01*
X170692618Y-120980707D01*
X170618489Y-120953770D01*
X170562903Y-120944449D01*
X170518726Y-120957013D01*
X170478826Y-120995731D01*
X170436071Y-121064873D01*
X170385317Y-121164652D01*
X170333300Y-121266261D01*
X170292475Y-121333481D01*
X170258308Y-121371231D01*
X170226268Y-121384426D01*
X170191821Y-121377984D01*
X170189525Y-121377059D01*
X170165920Y-121347040D01*
X170171617Y-121288108D01*
X170206711Y-121199625D01*
X170219905Y-121173172D01*
X170245089Y-121119958D01*
X170282540Y-121035230D01*
X170328918Y-120926824D01*
X170380878Y-120802575D01*
X170408824Y-120734383D01*
X170571379Y-120734383D01*
X170587122Y-120786220D01*
X170642471Y-120829842D01*
X170651978Y-120834896D01*
X170711059Y-120858256D01*
X170746917Y-120851975D01*
X170766980Y-120817243D01*
X170772735Y-120759481D01*
X170765759Y-120670698D01*
X170747059Y-120559915D01*
X170729683Y-120482775D01*
X170706771Y-120389632D01*
X170667769Y-120493358D01*
X170637021Y-120570019D01*
X170604733Y-120642982D01*
X170592815Y-120667458D01*
X170571379Y-120734383D01*
X170408824Y-120734383D01*
X170435079Y-120670319D01*
X170447446Y-120639752D01*
X170504805Y-120498672D01*
X170549523Y-120391992D01*
X170584234Y-120314628D01*
X170611572Y-120261498D01*
X170634174Y-120227522D01*
X170654674Y-120207615D01*
X170675705Y-120196697D01*
X170677475Y-120196064D01*
X170741951Y-120187518D01*
X170790463Y-120214957D01*
X170790463Y-120214957D01*
G37*
X170790463Y-120214957D02*
X170826710Y-120280902D01*
X170833990Y-120302720D01*
X170853956Y-120384425D01*
X170874491Y-120496470D01*
X170894046Y-120626916D01*
X170911075Y-120763823D01*
X170924031Y-120895252D01*
X170931369Y-121009263D01*
X170932440Y-121062750D01*
X170931142Y-121147272D01*
X170926710Y-121198402D01*
X170916788Y-121225077D01*
X170899020Y-121236230D01*
X170886000Y-121238847D01*
X170852046Y-121235680D01*
X170840812Y-121204774D01*
X170840400Y-121190171D01*
X170820775Y-121098363D01*
X170765170Y-121024482D01*
X170692618Y-120980707D01*
X170618489Y-120953770D01*
X170562903Y-120944449D01*
X170518726Y-120957013D01*
X170478826Y-120995731D01*
X170436071Y-121064873D01*
X170385317Y-121164652D01*
X170333300Y-121266261D01*
X170292475Y-121333481D01*
X170258308Y-121371231D01*
X170226268Y-121384426D01*
X170191821Y-121377984D01*
X170189525Y-121377059D01*
X170165920Y-121347040D01*
X170171617Y-121288108D01*
X170206711Y-121199625D01*
X170219905Y-121173172D01*
X170245089Y-121119958D01*
X170282540Y-121035230D01*
X170328918Y-120926824D01*
X170380878Y-120802575D01*
X170408824Y-120734383D01*
X170571379Y-120734383D01*
X170587122Y-120786220D01*
X170642471Y-120829842D01*
X170651978Y-120834896D01*
X170711059Y-120858256D01*
X170746917Y-120851975D01*
X170766980Y-120817243D01*
X170772735Y-120759481D01*
X170765759Y-120670698D01*
X170747059Y-120559915D01*
X170729683Y-120482775D01*
X170706771Y-120389632D01*
X170667769Y-120493358D01*
X170637021Y-120570019D01*
X170604733Y-120642982D01*
X170592815Y-120667458D01*
X170571379Y-120734383D01*
X170408824Y-120734383D01*
X170435079Y-120670319D01*
X170447446Y-120639752D01*
X170504805Y-120498672D01*
X170549523Y-120391992D01*
X170584234Y-120314628D01*
X170611572Y-120261498D01*
X170634174Y-120227522D01*
X170654674Y-120207615D01*
X170675705Y-120196697D01*
X170677475Y-120196064D01*
X170741951Y-120187518D01*
X170790463Y-120214957D01*
G36*
X169478678Y-121292056D02*
G01*
X169475772Y-121304639D01*
X169464567Y-121306167D01*
X169447144Y-121298422D01*
X169450456Y-121292056D01*
X169475576Y-121289522D01*
X169478678Y-121292056D01*
X169478678Y-121292056D01*
G37*
X169478678Y-121292056D02*
X169475772Y-121304639D01*
X169464567Y-121306167D01*
X169447144Y-121298422D01*
X169450456Y-121292056D01*
X169475576Y-121289522D01*
X169478678Y-121292056D01*
G36*
X169843732Y-120171444D02*
G01*
X169871750Y-120173496D01*
X169976665Y-120181210D01*
X170090717Y-120188733D01*
X170168749Y-120193302D01*
X170270134Y-120204058D01*
X170334846Y-120224942D01*
X170367834Y-120258357D01*
X170374734Y-120293282D01*
X170356399Y-120333614D01*
X170307900Y-120356739D01*
X170238995Y-120359533D01*
X170194694Y-120350932D01*
X170122915Y-120337728D01*
X170079142Y-120350285D01*
X170054616Y-120393378D01*
X170046139Y-120431929D01*
X170034418Y-120491824D01*
X170015818Y-120575948D01*
X169994065Y-120667549D01*
X169990818Y-120680671D01*
X169966959Y-120791794D01*
X169960499Y-120869691D01*
X169972269Y-120920094D01*
X170003102Y-120948733D01*
X170031098Y-120957855D01*
X170100878Y-120980057D01*
X170143200Y-121008109D01*
X170155016Y-121036195D01*
X170133280Y-121058501D01*
X170088984Y-121068339D01*
X169985218Y-121080661D01*
X169917727Y-121097021D01*
X169880510Y-121119235D01*
X169870911Y-121134242D01*
X169857813Y-121156840D01*
X169839699Y-121150116D01*
X169813817Y-121121786D01*
X169768034Y-121085964D01*
X169698445Y-121064723D01*
X169657014Y-121058701D01*
X169571385Y-121041070D01*
X169511351Y-121012957D01*
X169502233Y-121005166D01*
X169470883Y-120964544D01*
X169474120Y-120937727D01*
X169513954Y-120923375D01*
X169592394Y-120920143D01*
X169627800Y-120921321D01*
X169727997Y-120920461D01*
X169793268Y-120904675D01*
X169829454Y-120870448D01*
X169842395Y-120814265D01*
X169842605Y-120792039D01*
X169846752Y-120727766D01*
X169859069Y-120650747D01*
X169863930Y-120628834D01*
X169883006Y-120517286D01*
X169885112Y-120419062D01*
X169870454Y-120344557D01*
X169857818Y-120320671D01*
X169831260Y-120296629D01*
X169788857Y-120284183D01*
X169718775Y-120280324D01*
X169699068Y-120280326D01*
X169627881Y-120279420D01*
X169589222Y-120273366D01*
X169573324Y-120258726D01*
X169570400Y-120235056D01*
X169586360Y-120199361D01*
X169635738Y-120177167D01*
X169720780Y-120168014D01*
X169843732Y-120171444D01*
X169843732Y-120171444D01*
G37*
X169843732Y-120171444D02*
X169871750Y-120173496D01*
X169976665Y-120181210D01*
X170090717Y-120188733D01*
X170168749Y-120193302D01*
X170270134Y-120204058D01*
X170334846Y-120224942D01*
X170367834Y-120258357D01*
X170374734Y-120293282D01*
X170356399Y-120333614D01*
X170307900Y-120356739D01*
X170238995Y-120359533D01*
X170194694Y-120350932D01*
X170122915Y-120337728D01*
X170079142Y-120350285D01*
X170054616Y-120393378D01*
X170046139Y-120431929D01*
X170034418Y-120491824D01*
X170015818Y-120575948D01*
X169994065Y-120667549D01*
X169990818Y-120680671D01*
X169966959Y-120791794D01*
X169960499Y-120869691D01*
X169972269Y-120920094D01*
X170003102Y-120948733D01*
X170031098Y-120957855D01*
X170100878Y-120980057D01*
X170143200Y-121008109D01*
X170155016Y-121036195D01*
X170133280Y-121058501D01*
X170088984Y-121068339D01*
X169985218Y-121080661D01*
X169917727Y-121097021D01*
X169880510Y-121119235D01*
X169870911Y-121134242D01*
X169857813Y-121156840D01*
X169839699Y-121150116D01*
X169813817Y-121121786D01*
X169768034Y-121085964D01*
X169698445Y-121064723D01*
X169657014Y-121058701D01*
X169571385Y-121041070D01*
X169511351Y-121012957D01*
X169502233Y-121005166D01*
X169470883Y-120964544D01*
X169474120Y-120937727D01*
X169513954Y-120923375D01*
X169592394Y-120920143D01*
X169627800Y-120921321D01*
X169727997Y-120920461D01*
X169793268Y-120904675D01*
X169829454Y-120870448D01*
X169842395Y-120814265D01*
X169842605Y-120792039D01*
X169846752Y-120727766D01*
X169859069Y-120650747D01*
X169863930Y-120628834D01*
X169883006Y-120517286D01*
X169885112Y-120419062D01*
X169870454Y-120344557D01*
X169857818Y-120320671D01*
X169831260Y-120296629D01*
X169788857Y-120284183D01*
X169718775Y-120280324D01*
X169699068Y-120280326D01*
X169627881Y-120279420D01*
X169589222Y-120273366D01*
X169573324Y-120258726D01*
X169570400Y-120235056D01*
X169586360Y-120199361D01*
X169635738Y-120177167D01*
X169720780Y-120168014D01*
X169843732Y-120171444D01*
D11*
X154185216Y-99540768D03*
D12*
G36*
X153522780Y-99423810D02*
G01*
X154231990Y-98869715D01*
X154847652Y-99657726D01*
X154138442Y-100211821D01*
X153522780Y-99423810D01*
X153522780Y-99423810D01*
G37*
D11*
X156032200Y-101904800D03*
D12*
G36*
X155369764Y-101787842D02*
G01*
X156078974Y-101233747D01*
X156694636Y-102021758D01*
X155985426Y-102575853D01*
X155369764Y-101787842D01*
X155369764Y-101787842D01*
G37*
D13*
X155217048Y-100130532D03*
D12*
G36*
X154778711Y-100219194D02*
G01*
X155409120Y-99726665D01*
X155655385Y-100041870D01*
X155024976Y-100534399D01*
X154778711Y-100219194D01*
X154778711Y-100219194D01*
G37*
D13*
X155709577Y-100760941D03*
D12*
G36*
X155271240Y-100849603D02*
G01*
X155901649Y-100357074D01*
X156147914Y-100672279D01*
X155517505Y-101164808D01*
X155271240Y-100849603D01*
X155271240Y-100849603D01*
G37*
D11*
X156411576Y-109211075D03*
D12*
G36*
X156159724Y-108587320D02*
G01*
X157005448Y-108895138D01*
X156663428Y-109834830D01*
X155817704Y-109527012D01*
X156159724Y-108587320D01*
X156159724Y-108587320D01*
G37*
D11*
X155385516Y-112030153D03*
D12*
G36*
X155133664Y-111406398D02*
G01*
X155979388Y-111714216D01*
X155637368Y-112653908D01*
X154791644Y-112346090D01*
X155133664Y-111406398D01*
X155133664Y-111406398D01*
G37*
D13*
X156458216Y-110398646D03*
D12*
G36*
X156150743Y-110073899D02*
G01*
X156902497Y-110347516D01*
X156765689Y-110723393D01*
X156013935Y-110449776D01*
X156150743Y-110073899D01*
X156150743Y-110073899D01*
G37*
D13*
X156184600Y-111150400D03*
D12*
G36*
X155877127Y-110825653D02*
G01*
X156628881Y-111099270D01*
X156492073Y-111475147D01*
X155740319Y-111201530D01*
X155877127Y-110825653D01*
X155877127Y-110825653D01*
G37*
D14*
X133865200Y-110140800D03*
X133865200Y-110940800D03*
D15*
X134315200Y-109040800D03*
X134315200Y-112040800D03*
D12*
G36*
X147482705Y-124802604D02*
G01*
X147506973Y-124806204D01*
X147530772Y-124812165D01*
X147553871Y-124820430D01*
X147576050Y-124830920D01*
X147597093Y-124843532D01*
X147616799Y-124858147D01*
X147634977Y-124874623D01*
X147651453Y-124892801D01*
X147666068Y-124912507D01*
X147678680Y-124933550D01*
X147689170Y-124955729D01*
X147697435Y-124978828D01*
X147703396Y-125002627D01*
X147706996Y-125026895D01*
X147708200Y-125051399D01*
X147708200Y-125951401D01*
X147706996Y-125975905D01*
X147703396Y-126000173D01*
X147697435Y-126023972D01*
X147689170Y-126047071D01*
X147678680Y-126069250D01*
X147666068Y-126090293D01*
X147651453Y-126109999D01*
X147634977Y-126128177D01*
X147616799Y-126144653D01*
X147597093Y-126159268D01*
X147576050Y-126171880D01*
X147553871Y-126182370D01*
X147530772Y-126190635D01*
X147506973Y-126196596D01*
X147482705Y-126200196D01*
X147458201Y-126201400D01*
X146808199Y-126201400D01*
X146783695Y-126200196D01*
X146759427Y-126196596D01*
X146735628Y-126190635D01*
X146712529Y-126182370D01*
X146690350Y-126171880D01*
X146669307Y-126159268D01*
X146649601Y-126144653D01*
X146631423Y-126128177D01*
X146614947Y-126109999D01*
X146600332Y-126090293D01*
X146587720Y-126069250D01*
X146577230Y-126047071D01*
X146568965Y-126023972D01*
X146563004Y-126000173D01*
X146559404Y-125975905D01*
X146558200Y-125951401D01*
X146558200Y-125051399D01*
X146559404Y-125026895D01*
X146563004Y-125002627D01*
X146568965Y-124978828D01*
X146577230Y-124955729D01*
X146587720Y-124933550D01*
X146600332Y-124912507D01*
X146614947Y-124892801D01*
X146631423Y-124874623D01*
X146649601Y-124858147D01*
X146669307Y-124843532D01*
X146690350Y-124830920D01*
X146712529Y-124820430D01*
X146735628Y-124812165D01*
X146759427Y-124806204D01*
X146783695Y-124802604D01*
X146808199Y-124801400D01*
X147458201Y-124801400D01*
X147482705Y-124802604D01*
X147482705Y-124802604D01*
G37*
D16*
X147133200Y-125501400D03*
D12*
G36*
X149532705Y-124802604D02*
G01*
X149556973Y-124806204D01*
X149580772Y-124812165D01*
X149603871Y-124820430D01*
X149626050Y-124830920D01*
X149647093Y-124843532D01*
X149666799Y-124858147D01*
X149684977Y-124874623D01*
X149701453Y-124892801D01*
X149716068Y-124912507D01*
X149728680Y-124933550D01*
X149739170Y-124955729D01*
X149747435Y-124978828D01*
X149753396Y-125002627D01*
X149756996Y-125026895D01*
X149758200Y-125051399D01*
X149758200Y-125951401D01*
X149756996Y-125975905D01*
X149753396Y-126000173D01*
X149747435Y-126023972D01*
X149739170Y-126047071D01*
X149728680Y-126069250D01*
X149716068Y-126090293D01*
X149701453Y-126109999D01*
X149684977Y-126128177D01*
X149666799Y-126144653D01*
X149647093Y-126159268D01*
X149626050Y-126171880D01*
X149603871Y-126182370D01*
X149580772Y-126190635D01*
X149556973Y-126196596D01*
X149532705Y-126200196D01*
X149508201Y-126201400D01*
X148858199Y-126201400D01*
X148833695Y-126200196D01*
X148809427Y-126196596D01*
X148785628Y-126190635D01*
X148762529Y-126182370D01*
X148740350Y-126171880D01*
X148719307Y-126159268D01*
X148699601Y-126144653D01*
X148681423Y-126128177D01*
X148664947Y-126109999D01*
X148650332Y-126090293D01*
X148637720Y-126069250D01*
X148627230Y-126047071D01*
X148618965Y-126023972D01*
X148613004Y-126000173D01*
X148609404Y-125975905D01*
X148608200Y-125951401D01*
X148608200Y-125051399D01*
X148609404Y-125026895D01*
X148613004Y-125002627D01*
X148618965Y-124978828D01*
X148627230Y-124955729D01*
X148637720Y-124933550D01*
X148650332Y-124912507D01*
X148664947Y-124892801D01*
X148681423Y-124874623D01*
X148699601Y-124858147D01*
X148719307Y-124843532D01*
X148740350Y-124830920D01*
X148762529Y-124820430D01*
X148785628Y-124812165D01*
X148809427Y-124806204D01*
X148833695Y-124802604D01*
X148858199Y-124801400D01*
X149508201Y-124801400D01*
X149532705Y-124802604D01*
X149532705Y-124802604D01*
G37*
D16*
X149183200Y-125501400D03*
D17*
X168538200Y-123591000D03*
X168538200Y-126131000D03*
D18*
X165998200Y-123591000D03*
X165998200Y-126131000D03*
X163458200Y-123591000D03*
D19*
X163458200Y-126131000D03*
D20*
X156304398Y-116330202D02*
X156304398Y-114840602D01*
X147133200Y-125501400D02*
X156304398Y-116330202D01*
X156304398Y-114840602D02*
X157886400Y-113258600D01*
X157886400Y-110685899D02*
X156411576Y-109211075D01*
X147133200Y-125501400D02*
X145999200Y-125501400D01*
X134315200Y-113817400D02*
X134315200Y-112040800D01*
X145999200Y-125501400D02*
X134315200Y-113817400D01*
X154185216Y-99540768D02*
X155244800Y-98481184D01*
X155244800Y-98481184D02*
X157459984Y-98481184D01*
X157459984Y-98481184D02*
X158115000Y-99136200D01*
X158115000Y-107507651D02*
X156411576Y-109211075D01*
X158115000Y-99136200D02*
X158115000Y-107507651D01*
X157886400Y-113258600D02*
X157886400Y-110685899D01*
X154963714Y-111608351D02*
X155385516Y-112030153D01*
X155067000Y-110007400D02*
X154963714Y-111608351D01*
X155041600Y-109474000D02*
X155067000Y-110007400D01*
X155727400Y-107492800D02*
X155041600Y-109474000D01*
X156032200Y-101904800D02*
X155727400Y-107492800D01*
X155385516Y-112030153D02*
X154487269Y-112928400D01*
X154487269Y-112928400D02*
X151892000Y-112928400D01*
X151892000Y-112928400D02*
X150596600Y-114223800D01*
X150596600Y-114223800D02*
X145948400Y-114223800D01*
X145948400Y-114223800D02*
X144678400Y-115493800D01*
X144678400Y-115493800D02*
X137972800Y-115493800D01*
X137972800Y-115493800D02*
X135763000Y-113284000D01*
X135763000Y-113284000D02*
X135763000Y-110718600D01*
X135763000Y-110718600D02*
X135483600Y-110439200D01*
X135483600Y-110439200D02*
X135483600Y-109499400D01*
X135025000Y-109040800D02*
X134315200Y-109040800D01*
X135483600Y-109499400D02*
X135025000Y-109040800D01*
X134315200Y-109040800D02*
X134315200Y-107594400D01*
X134315200Y-107594400D02*
X134112000Y-107391200D01*
X134112000Y-107391200D02*
X133096000Y-107391200D01*
X133096000Y-107391200D02*
X132638800Y-107848400D01*
X132638800Y-107848400D02*
X132638800Y-114046000D01*
X132638800Y-114046000D02*
X140309600Y-121716800D01*
X140309600Y-121716800D02*
X140309600Y-124790200D01*
X140309600Y-124790200D02*
X142087600Y-126568200D01*
X142087600Y-126568200D02*
X143941800Y-126568200D01*
X143941800Y-126568200D02*
X145465800Y-128092200D01*
X162344600Y-126131000D02*
X163458200Y-126131000D01*
X160383400Y-128092200D02*
X162344600Y-126131000D01*
X145465800Y-128092200D02*
X160383400Y-128092200D01*
X149183200Y-125501400D02*
X157835600Y-125501400D01*
X159746000Y-123591000D02*
X163458200Y-123591000D01*
X157835600Y-125501400D02*
X159746000Y-123591000D01*
M02*
