G04 #@! TF.GenerationSoftware,KiCad,Pcbnew,(5.1.2-1)-1*
G04 #@! TF.CreationDate,2019-06-10T18:00:08-04:00*
G04 #@! TF.ProjectId,dc4044,64633430-3434-42e6-9b69-6361645f7063,rev?*
G04 #@! TF.SameCoordinates,Original*
G04 #@! TF.FileFunction,Profile,NP*
%FSLAX46Y46*%
G04 Gerber Fmt 4.6, Leading zero omitted, Abs format (unit mm)*
G04 Created by KiCad (PCBNEW (5.1.2-1)-1) date 2019-06-10 18:00:08*
%MOMM*%
%LPD*%
G04 APERTURE LIST*
%ADD10C,0.100000*%
G04 APERTURE END LIST*
D10*
X132037058Y-114364217D02*
X132172567Y-116200501D01*
X132172567Y-116200501D02*
X132357746Y-118169867D01*
X132357746Y-118169867D02*
X132474301Y-119187862D01*
X132474301Y-119187862D02*
X132609682Y-120219217D01*
X132609682Y-120219217D02*
X132766026Y-121257295D01*
X132766026Y-121257295D02*
X132945467Y-122295458D01*
X132945467Y-122295458D02*
X133150143Y-123327069D01*
X133150143Y-123327069D02*
X133382189Y-124345491D01*
X133382189Y-124345491D02*
X133643742Y-125344088D01*
X133643742Y-125344088D02*
X133936938Y-126316223D01*
X133936938Y-126316223D02*
X134263913Y-127255258D01*
X134263913Y-127255258D02*
X134626804Y-128154556D01*
X134626804Y-128154556D02*
X135027746Y-129007481D01*
X135027746Y-129007481D02*
X135243154Y-129414479D01*
X135243154Y-129414479D02*
X135468876Y-129807395D01*
X135468876Y-129807395D02*
X135996750Y-130673663D01*
X135996750Y-130673663D02*
X136267495Y-131109805D01*
X136267495Y-131109805D02*
X136536492Y-131511937D01*
X136536492Y-131511937D02*
X136799024Y-131853045D01*
X136799024Y-131853045D02*
X136926392Y-131992274D01*
X136926392Y-131992274D02*
X137050377Y-132106117D01*
X137050377Y-132106117D02*
X137170387Y-132191197D01*
X137170387Y-132191197D02*
X137285834Y-132244137D01*
X137285834Y-132244137D02*
X137396128Y-132261567D01*
X137396128Y-132261567D02*
X137500681Y-132240107D01*
X137500681Y-132240107D02*
X137412350Y-131789061D01*
X137412350Y-131789061D02*
X137353110Y-131365243D01*
X137353110Y-131365243D02*
X137321492Y-130967899D01*
X137321492Y-130967899D02*
X137316032Y-130596278D01*
X137316032Y-130596278D02*
X137335252Y-130249626D01*
X137335252Y-130249626D02*
X137377687Y-129927189D01*
X137377687Y-129927189D02*
X137441869Y-129628216D01*
X137441869Y-129628216D02*
X137526329Y-129351952D01*
X137526329Y-129351952D02*
X137629598Y-129097645D01*
X137629598Y-129097645D02*
X137750207Y-128864542D01*
X137750207Y-128864542D02*
X137886687Y-128651889D01*
X137886687Y-128651889D02*
X138037570Y-128458935D01*
X138037570Y-128458935D02*
X138201386Y-128284925D01*
X138201386Y-128284925D02*
X138376668Y-128129107D01*
X138376668Y-128129107D02*
X138561945Y-127990727D01*
X138561945Y-127990727D02*
X138755750Y-127869033D01*
X138755750Y-127869033D02*
X138956613Y-127763272D01*
X138956613Y-127763272D02*
X139163065Y-127672692D01*
X139163065Y-127672692D02*
X139586863Y-127534056D01*
X139586863Y-127534056D02*
X140015392Y-127447106D01*
X140015392Y-127447106D02*
X140436903Y-127405806D01*
X140436903Y-127405806D02*
X140839644Y-127404106D01*
X140839644Y-127404106D02*
X141211865Y-127436056D01*
X141211865Y-127436056D02*
X141541814Y-127495586D01*
X141541814Y-127495586D02*
X141817742Y-127576676D01*
X141817742Y-127576676D02*
X142095537Y-127660046D01*
X142095537Y-127660046D02*
X142392055Y-127766426D01*
X142392055Y-127766426D02*
X143036007Y-128042444D01*
X143036007Y-128042444D02*
X143739100Y-128393151D01*
X143739100Y-128393151D02*
X144490836Y-128806967D01*
X144490836Y-128806967D02*
X145280715Y-129272312D01*
X145280715Y-129272312D02*
X146098241Y-129777604D01*
X146098241Y-129777604D02*
X147774234Y-130861707D01*
X147774234Y-130861707D02*
X149434829Y-131966630D01*
X149434829Y-131966630D02*
X150996037Y-132999725D01*
X150996037Y-132999725D02*
X151713125Y-133460386D01*
X151713125Y-133460386D02*
X152373872Y-133868347D01*
X152373872Y-133868347D02*
X152967778Y-134212029D01*
X152967778Y-134212029D02*
X153484345Y-134479849D01*
X153484345Y-134479849D02*
X153656140Y-134635667D01*
X153656140Y-134635667D02*
X153843737Y-134776153D01*
X153843737Y-134776153D02*
X154045762Y-134901967D01*
X154045762Y-134901967D02*
X154260843Y-135013766D01*
X154260843Y-135013766D02*
X154487605Y-135112206D01*
X154487605Y-135112206D02*
X154724675Y-135197956D01*
X154724675Y-135197956D02*
X155224243Y-135333983D01*
X155224243Y-135333983D02*
X155748558Y-135427113D01*
X155748558Y-135427113D02*
X156286630Y-135482623D01*
X156286630Y-135482623D02*
X156827470Y-135505763D01*
X156827470Y-135505763D02*
X157360090Y-135501763D01*
X157360090Y-135501763D02*
X157873499Y-135475983D01*
X157873499Y-135475983D02*
X158356709Y-135433633D01*
X158356709Y-135433633D02*
X159188571Y-135320317D01*
X159188571Y-135320317D02*
X159767764Y-135203938D01*
X159767764Y-135203938D02*
X159935136Y-135157768D01*
X159935136Y-135157768D02*
X160006376Y-135126628D01*
X160006376Y-135126628D02*
X159785289Y-135026558D01*
X159785289Y-135026558D02*
X159569355Y-134911316D01*
X159569355Y-134911316D02*
X159156589Y-134639814D01*
X159156589Y-134639814D02*
X158775368Y-134321122D01*
X158775368Y-134321122D02*
X158432979Y-133964241D01*
X158432979Y-133964241D02*
X158136712Y-133578170D01*
X158136712Y-133578170D02*
X157893855Y-133171910D01*
X157893855Y-133171910D02*
X157794735Y-132964022D01*
X157794735Y-132964022D02*
X157711695Y-132754461D01*
X157711695Y-132754461D02*
X157645655Y-132544353D01*
X157645655Y-132544353D02*
X157597525Y-132334822D01*
X157597525Y-132334822D02*
X157568215Y-132126994D01*
X157568215Y-132126994D02*
X157558615Y-131921994D01*
X157558615Y-131921994D02*
X157569675Y-131720947D01*
X157569675Y-131720947D02*
X157602285Y-131524977D01*
X157602285Y-131524977D02*
X157657365Y-131335210D01*
X157657365Y-131335210D02*
X157735815Y-131152771D01*
X157735815Y-131152771D02*
X157838551Y-130978784D01*
X157838551Y-130978784D02*
X157966483Y-130814375D01*
X157966483Y-130814375D02*
X158120524Y-130660669D01*
X158120524Y-130660669D02*
X158301583Y-130518791D01*
X158301583Y-130518791D02*
X158510573Y-130389865D01*
X158510573Y-130389865D02*
X158748404Y-130275017D01*
X158748404Y-130275017D02*
X159015987Y-130175377D01*
X159015987Y-130175377D02*
X159314233Y-130092057D01*
X159314233Y-130092057D02*
X159644054Y-130026187D01*
X159644054Y-130026187D02*
X160006360Y-129978897D01*
X160006360Y-129978897D02*
X160473362Y-129959567D01*
X160473362Y-129959567D02*
X160935237Y-129966567D01*
X160935237Y-129966567D02*
X161392376Y-129998337D01*
X161392376Y-129998337D02*
X161845164Y-130053247D01*
X161845164Y-130053247D02*
X162293991Y-130129707D01*
X162293991Y-130129707D02*
X162739245Y-130226107D01*
X162739245Y-130226107D02*
X163181314Y-130340857D01*
X163181314Y-130340857D02*
X163620587Y-130472351D01*
X163620587Y-130472351D02*
X164492294Y-130779166D01*
X164492294Y-130779166D02*
X165357473Y-131133746D01*
X165357473Y-131133746D02*
X166219228Y-131523281D01*
X166219228Y-131523281D02*
X167080666Y-131934965D01*
X167080666Y-131934965D02*
X168815013Y-132773548D01*
X168815013Y-132773548D02*
X169694132Y-133174832D01*
X169694132Y-133174832D02*
X170585355Y-133547034D01*
X170585355Y-133547034D02*
X171491790Y-133877346D01*
X171491790Y-133877346D02*
X171951681Y-134022791D01*
X171951681Y-134022791D02*
X172416540Y-134152961D01*
X172416540Y-134152961D02*
X172886754Y-134266255D01*
X172886754Y-134266255D02*
X173362711Y-134361075D01*
X173362711Y-134361075D02*
X173844801Y-134435815D01*
X173844801Y-134435815D02*
X174333410Y-134488875D01*
X174333410Y-134488875D02*
X174731862Y-134497975D01*
X174731862Y-134497975D02*
X175132035Y-134469205D01*
X175132035Y-134469205D02*
X175520590Y-134404005D01*
X175520590Y-134404005D02*
X175884190Y-134303828D01*
X175884190Y-134303828D02*
X176209496Y-134170118D01*
X176209496Y-134170118D02*
X176483169Y-134004325D01*
X176483169Y-134004325D02*
X176596475Y-133909845D01*
X176596475Y-133909845D02*
X176691875Y-133807891D01*
X176691875Y-133807891D02*
X176767695Y-133698641D01*
X176767695Y-133698641D02*
X176822265Y-133582275D01*
X176822265Y-133582275D02*
X176441192Y-133404105D01*
X176441192Y-133404105D02*
X176093392Y-133188852D01*
X176093392Y-133188852D02*
X175778402Y-132940222D01*
X175778402Y-132940222D02*
X175495757Y-132661921D01*
X175495757Y-132661921D02*
X175244992Y-132357655D01*
X175244992Y-132357655D02*
X175025645Y-132031132D01*
X175025645Y-132031132D02*
X174837250Y-131686056D01*
X174837250Y-131686056D02*
X174679343Y-131326134D01*
X174679343Y-131326134D02*
X174551460Y-130955073D01*
X174551460Y-130955073D02*
X174453140Y-130576579D01*
X174453140Y-130576579D02*
X174383910Y-130194358D01*
X174383910Y-130194358D02*
X174343310Y-129812115D01*
X174343310Y-129812115D02*
X174330880Y-129433558D01*
X174330880Y-129433558D02*
X174346150Y-129062393D01*
X174346150Y-129062393D02*
X174388660Y-128702325D01*
X174388660Y-128702325D02*
X174457950Y-128357062D01*
X174457950Y-128357062D02*
X174535000Y-128066102D01*
X174535000Y-128066102D02*
X174651178Y-127762839D01*
X174651178Y-127762839D02*
X174804485Y-127448806D01*
X174804485Y-127448806D02*
X174992924Y-127125533D01*
X174992924Y-127125533D02*
X175214500Y-126794553D01*
X175214500Y-126794553D02*
X175467219Y-126457398D01*
X175467219Y-126457398D02*
X175749083Y-126115598D01*
X175749083Y-126115598D02*
X176058098Y-125770686D01*
X176058098Y-125770686D02*
X176392269Y-125424193D01*
X176392269Y-125424193D02*
X176749599Y-125077651D01*
X176749599Y-125077651D02*
X177128093Y-124732591D01*
X177128093Y-124732591D02*
X177525757Y-124390546D01*
X177525757Y-124390546D02*
X178370607Y-123721624D01*
X178370607Y-123721624D02*
X179268185Y-123083139D01*
X179268185Y-123083139D02*
X180202529Y-122487344D01*
X180202529Y-122487344D02*
X181157672Y-121946492D01*
X181157672Y-121946492D02*
X181638055Y-121700499D01*
X181638055Y-121700499D02*
X182117652Y-121472837D01*
X182117652Y-121472837D02*
X182594466Y-121265037D01*
X182594466Y-121265037D02*
X183066503Y-121078631D01*
X183066503Y-121078631D02*
X183531767Y-120915151D01*
X183531767Y-120915151D02*
X183988263Y-120776129D01*
X183988263Y-120776129D02*
X184151122Y-120672493D01*
X184151122Y-120672493D02*
X184268627Y-120570432D01*
X184268627Y-120570432D02*
X184345587Y-120470652D01*
X184345587Y-120470652D02*
X184386807Y-120373862D01*
X184386807Y-120373862D02*
X184397097Y-120280762D01*
X184397097Y-120280762D02*
X184381267Y-120192052D01*
X184381267Y-120192052D02*
X184344127Y-120108452D01*
X184344127Y-120108452D02*
X184290477Y-120030652D01*
X184290477Y-120030652D02*
X184152901Y-119895297D01*
X184152901Y-119895297D02*
X184007007Y-119791629D01*
X184007007Y-119791629D02*
X183844132Y-119701929D01*
X183844132Y-119701929D02*
X183231945Y-119445598D01*
X183231945Y-119445598D02*
X182633305Y-119170988D01*
X182633305Y-119170988D02*
X182048060Y-118878255D01*
X182048060Y-118878255D02*
X181476062Y-118567557D01*
X181476062Y-118567557D02*
X180917160Y-118239050D01*
X180917160Y-118239050D02*
X180371203Y-117892889D01*
X180371203Y-117892889D02*
X179838042Y-117529233D01*
X179838042Y-117529233D02*
X179317526Y-117148235D01*
X179317526Y-117148235D02*
X178809505Y-116750055D01*
X178809505Y-116750055D02*
X178313828Y-116334847D01*
X178313828Y-116334847D02*
X177830346Y-115902767D01*
X177830346Y-115902767D02*
X177358909Y-115453974D01*
X177358909Y-115453974D02*
X176899365Y-114988622D01*
X176899365Y-114988622D02*
X176451566Y-114506868D01*
X176451566Y-114506868D02*
X176015360Y-114008869D01*
X176015360Y-114008869D02*
X175590597Y-113494781D01*
X175590597Y-113494781D02*
X175177128Y-112964761D01*
X175177128Y-112964761D02*
X174774802Y-112418964D01*
X174774802Y-112418964D02*
X174383468Y-111857547D01*
X174383468Y-111857547D02*
X174002977Y-111280667D01*
X174002977Y-111280667D02*
X173633179Y-110688480D01*
X173633179Y-110688480D02*
X173273922Y-110081142D01*
X173273922Y-110081142D02*
X172925057Y-109458810D01*
X172925057Y-109458810D02*
X172586434Y-108821641D01*
X172586434Y-108821641D02*
X172257903Y-108169789D01*
X172257903Y-108169789D02*
X171939313Y-107503413D01*
X171939313Y-107503413D02*
X171331355Y-106127711D01*
X171331355Y-106127711D02*
X177165442Y-96518624D01*
X177165442Y-96518624D02*
X180768850Y-98749305D01*
X180768850Y-98749305D02*
X181903168Y-97356812D01*
X181903168Y-97356812D02*
X178023397Y-94974306D01*
X178023397Y-94974306D02*
X178852623Y-93214460D01*
X178852623Y-93214460D02*
X179752701Y-91380900D01*
X179752701Y-91380900D02*
X180855130Y-89237133D01*
X180855130Y-89237133D02*
X181453798Y-88125224D01*
X181453798Y-88125224D02*
X182068941Y-87027325D01*
X182068941Y-87027325D02*
X182689187Y-85973957D01*
X182689187Y-85973957D02*
X183303164Y-84995640D01*
X183303164Y-84995640D02*
X183899503Y-84122895D01*
X183899503Y-84122895D02*
X184187504Y-83735649D01*
X184187504Y-83735649D02*
X184466831Y-83386242D01*
X184466831Y-83386242D02*
X184736063Y-83078488D01*
X184736063Y-83078488D02*
X184993778Y-82816202D01*
X184993778Y-82816202D02*
X185238555Y-82603199D01*
X185238555Y-82603199D02*
X185468972Y-82443295D01*
X185468972Y-82443295D02*
X185886791Y-82187269D01*
X185886791Y-82187269D02*
X186251232Y-81946901D01*
X186251232Y-81946901D02*
X186565353Y-81721257D01*
X186565353Y-81721257D02*
X186832210Y-81509402D01*
X186832210Y-81509402D02*
X187054861Y-81310403D01*
X187054861Y-81310403D02*
X187236365Y-81123326D01*
X187236365Y-81123326D02*
X187379777Y-80947236D01*
X187379777Y-80947236D02*
X187488157Y-80781199D01*
X187488157Y-80781199D02*
X187564557Y-80624280D01*
X187564557Y-80624280D02*
X187612037Y-80475547D01*
X187612037Y-80475547D02*
X187633667Y-80334065D01*
X187633667Y-80334065D02*
X187632467Y-80198900D01*
X187632467Y-80198900D02*
X187611577Y-80069262D01*
X187611577Y-80069262D02*
X187573965Y-79943927D01*
X187573965Y-79943927D02*
X187460905Y-79702866D01*
X187460905Y-79702866D02*
X187386316Y-79585927D01*
X187386316Y-79585927D02*
X187295765Y-79471823D01*
X187295765Y-79471823D02*
X187073045Y-79253246D01*
X187073045Y-79253246D02*
X186805292Y-79049396D01*
X186805292Y-79049396D02*
X186505056Y-78862532D01*
X186505056Y-78862532D02*
X186184883Y-78694914D01*
X186184883Y-78694914D02*
X185857321Y-78548802D01*
X185857321Y-78548802D02*
X185534918Y-78426457D01*
X185534918Y-78426457D02*
X185230221Y-78330138D01*
X185230221Y-78330138D02*
X184627496Y-78163330D01*
X184627496Y-78163330D02*
X184321261Y-78094765D01*
X184321261Y-78094765D02*
X184020385Y-78050420D01*
X184020385Y-78050420D02*
X183731321Y-78041040D01*
X183731321Y-78041040D02*
X183460522Y-78077370D01*
X183460522Y-78077370D02*
X183333990Y-78116034D01*
X183333990Y-78116034D02*
X183214444Y-78170155D01*
X183214444Y-78170155D02*
X183102691Y-78241076D01*
X183102691Y-78241076D02*
X182999539Y-78330140D01*
X182999539Y-78330140D02*
X182858943Y-78501232D01*
X182858943Y-78501232D02*
X182824763Y-78575235D01*
X182824763Y-78575235D02*
X182809063Y-78648665D01*
X182809063Y-78648665D02*
X182816263Y-78815170D01*
X182816263Y-78815170D02*
X182846943Y-79043482D01*
X182846943Y-79043482D02*
X182867463Y-79376333D01*
X182867463Y-79376333D02*
X182844193Y-79856455D01*
X182844193Y-79856455D02*
X182805633Y-80165098D01*
X182805633Y-80165098D02*
X182743513Y-80526583D01*
X182743513Y-80526583D02*
X182653633Y-80946252D01*
X182653633Y-80946252D02*
X182531786Y-81429448D01*
X182531786Y-81429448D02*
X182446326Y-81706373D01*
X182446326Y-81706373D02*
X182330626Y-82018488D01*
X182330626Y-82018488D02*
X182017142Y-82736749D01*
X182017142Y-82736749D02*
X181608620Y-83561157D01*
X181608620Y-83561157D02*
X181122351Y-84468639D01*
X181122351Y-84468639D02*
X180575623Y-85436119D01*
X180575623Y-85436119D02*
X179985729Y-86440525D01*
X179985729Y-86440525D02*
X178745595Y-88467817D01*
X178745595Y-88467817D02*
X177540269Y-90365925D01*
X177540269Y-90365925D02*
X176508069Y-91950257D01*
X176508069Y-91950257D02*
X175516327Y-93439231D01*
X175516327Y-93439231D02*
X171922015Y-91150826D01*
X171922015Y-91150826D02*
X170881798Y-92733100D01*
X170881798Y-92733100D02*
X174591558Y-94974453D01*
X174591558Y-94974453D02*
X170130193Y-102352858D01*
X170130193Y-102352858D02*
X169788361Y-101540581D01*
X169788361Y-101540581D02*
X168961256Y-99657713D01*
X168961256Y-99657713D02*
X168458720Y-98574480D01*
X168458720Y-98574480D02*
X167946460Y-97535204D01*
X167946460Y-97535204D02*
X167461673Y-96643754D01*
X167461673Y-96643754D02*
X167241207Y-96285923D01*
X167241207Y-96285923D02*
X167041558Y-96003999D01*
X167041558Y-96003999D02*
X166704371Y-95584868D01*
X166704371Y-95584868D02*
X166430173Y-95270587D01*
X166430173Y-95270587D02*
X166198870Y-95037964D01*
X166198870Y-95037964D02*
X165990367Y-94863810D01*
X165990367Y-94863810D02*
X165784569Y-94724935D01*
X165784569Y-94724935D02*
X165561383Y-94598150D01*
X165561383Y-94598150D02*
X164982466Y-94288090D01*
X164982466Y-94288090D02*
X164128570Y-93982382D01*
X164128570Y-93982382D02*
X163272854Y-93712662D01*
X163272854Y-93712662D02*
X162415923Y-93477752D01*
X162415923Y-93477752D02*
X161558383Y-93276477D01*
X161558383Y-93276477D02*
X160700840Y-93107658D01*
X160700840Y-93107658D02*
X159843898Y-92970121D01*
X159843898Y-92970121D02*
X158988165Y-92862687D01*
X158988165Y-92862687D02*
X158134245Y-92784177D01*
X158134245Y-92784177D02*
X157282743Y-92733417D01*
X157282743Y-92733417D02*
X156434266Y-92709237D01*
X156434266Y-92709237D02*
X155589419Y-92710437D01*
X155589419Y-92710437D02*
X154748808Y-92735877D01*
X154748808Y-92735877D02*
X153913038Y-92784357D01*
X153913038Y-92784357D02*
X153082714Y-92854707D01*
X153082714Y-92854707D02*
X152258442Y-92945747D01*
X152258442Y-92945747D02*
X151440829Y-93056297D01*
X151440829Y-93056297D02*
X150630478Y-93185184D01*
X150630478Y-93185184D02*
X149827997Y-93331231D01*
X149827997Y-93331231D02*
X149033990Y-93493262D01*
X149033990Y-93493262D02*
X148249063Y-93670099D01*
X148249063Y-93670099D02*
X146708872Y-94063488D01*
X146708872Y-94063488D02*
X145212268Y-94501983D01*
X145212268Y-94501983D02*
X143764095Y-94976173D01*
X143764095Y-94976173D02*
X142369199Y-95476642D01*
X142369199Y-95476642D02*
X141032423Y-95993977D01*
X141032423Y-95993977D02*
X139758613Y-96518765D01*
X139758613Y-96518765D02*
X138874678Y-96910153D01*
X138874678Y-96910153D02*
X137934715Y-97347398D01*
X137934715Y-97347398D02*
X136976577Y-97819070D01*
X136976577Y-97819070D02*
X136038118Y-98313739D01*
X136038118Y-98313739D02*
X135157193Y-98819973D01*
X135157193Y-98819973D02*
X134371656Y-99326343D01*
X134371656Y-99326343D02*
X134026487Y-99576006D01*
X134026487Y-99576006D02*
X133719360Y-99821417D01*
X133719360Y-99821417D02*
X133455008Y-100061145D01*
X133455008Y-100061145D02*
X133238161Y-100293764D01*
X133238161Y-100293764D02*
X133032159Y-100651053D01*
X133032159Y-100651053D02*
X132850259Y-101028152D01*
X132850259Y-101028152D02*
X132690730Y-101423477D01*
X132690730Y-101423477D02*
X132551841Y-101835444D01*
X132551841Y-101835444D02*
X132431863Y-102262470D01*
X132431863Y-102262470D02*
X132329066Y-102702970D01*
X132329066Y-102702970D02*
X132241720Y-103155360D01*
X132241720Y-103155360D02*
X132168094Y-103618056D01*
X132168094Y-103618056D02*
X132055085Y-104568032D01*
X132055085Y-104568032D02*
X131976199Y-105540226D01*
X131976199Y-105540226D02*
X131865434Y-107500579D01*
X131865434Y-107500579D02*
X131838696Y-108301311D01*
X131838696Y-108301311D02*
X131834496Y-109162271D01*
X131834496Y-109162271D02*
X131876179Y-110977117D01*
X131876179Y-110977117D02*
X131955385Y-112769602D01*
X131955385Y-112769602D02*
X132037019Y-114364213D01*
X132037019Y-114364213D02*
X132037019Y-114364213D01*
X132037019Y-114364213D02*
X132037058Y-114364217D01*
M02*
