G04 #@! TF.GenerationSoftware,KiCad,Pcbnew,(5.1.2-1)-1*
G04 #@! TF.CreationDate,2019-06-10T18:00:08-04:00*
G04 #@! TF.ProjectId,dc4044,64633430-3434-42e6-9b69-6361645f7063,rev?*
G04 #@! TF.SameCoordinates,Original*
G04 #@! TF.FileFunction,Soldermask,Top*
G04 #@! TF.FilePolarity,Negative*
%FSLAX46Y46*%
G04 Gerber Fmt 4.6, Leading zero omitted, Abs format (unit mm)*
G04 Created by KiCad (PCBNEW (5.1.2-1)-1) date 2019-06-10 18:00:08*
%MOMM*%
%LPD*%
G04 APERTURE LIST*
%ADD10C,0.010000*%
%ADD11C,2.127200*%
%ADD12O,2.127200X2.127200*%
%ADD13R,2.127200X2.127200*%
G04 APERTURE END LIST*
D10*
G36*
X152622711Y-99961198D02*
G01*
X152801047Y-100001264D01*
X152958259Y-100073644D01*
X153097195Y-100179636D01*
X153220700Y-100320541D01*
X153331622Y-100497659D01*
X153430067Y-100705726D01*
X153532637Y-100966939D01*
X153627501Y-101243309D01*
X153715190Y-101537598D01*
X153796239Y-101852570D01*
X153871180Y-102190985D01*
X153940547Y-102555607D01*
X154004872Y-102949197D01*
X154064689Y-103374518D01*
X154120531Y-103834332D01*
X154172930Y-104331401D01*
X154213321Y-104764417D01*
X154251735Y-105213198D01*
X154284352Y-105628560D01*
X154311548Y-106018965D01*
X154333702Y-106392875D01*
X154351191Y-106758752D01*
X154364391Y-107125059D01*
X154373681Y-107500256D01*
X154379437Y-107892806D01*
X154382037Y-108311170D01*
X154382259Y-108553250D01*
X154381674Y-108861661D01*
X154380235Y-109131587D01*
X154377741Y-109366874D01*
X154373990Y-109571363D01*
X154368781Y-109748901D01*
X154361913Y-109903330D01*
X154353183Y-110038495D01*
X154342391Y-110158239D01*
X154329334Y-110266407D01*
X154313812Y-110366843D01*
X154295621Y-110463390D01*
X154277784Y-110545832D01*
X154247004Y-110660242D01*
X154210075Y-110743440D01*
X154158883Y-110806505D01*
X154085312Y-110860511D01*
X154020992Y-110896346D01*
X153868729Y-110967445D01*
X153676629Y-111043370D01*
X153446863Y-111123704D01*
X153181601Y-111208030D01*
X152883013Y-111295933D01*
X152553270Y-111386996D01*
X152194543Y-111480802D01*
X151809001Y-111576934D01*
X151398817Y-111674977D01*
X150966159Y-111774513D01*
X150513199Y-111875127D01*
X150042107Y-111976401D01*
X149555054Y-112077919D01*
X149054209Y-112179265D01*
X148541745Y-112280022D01*
X148019830Y-112379773D01*
X147490636Y-112478103D01*
X146956334Y-112574594D01*
X146419092Y-112668830D01*
X145881083Y-112760394D01*
X145344477Y-112848870D01*
X144811444Y-112933842D01*
X144284154Y-113014892D01*
X143764779Y-113091605D01*
X143255488Y-113163564D01*
X142758452Y-113230352D01*
X142275843Y-113291553D01*
X141809829Y-113346750D01*
X141362582Y-113395527D01*
X140936272Y-113437468D01*
X140646150Y-113462978D01*
X140546304Y-113470543D01*
X140410338Y-113479734D01*
X140244418Y-113490191D01*
X140054710Y-113501552D01*
X139847381Y-113513453D01*
X139628597Y-113525532D01*
X139404523Y-113537429D01*
X139206817Y-113547510D01*
X138991703Y-113558318D01*
X138783399Y-113568909D01*
X138586936Y-113579018D01*
X138407342Y-113588381D01*
X138249647Y-113596735D01*
X138118879Y-113603813D01*
X138020068Y-113609354D01*
X137958244Y-113613091D01*
X137956093Y-113613234D01*
X137763703Y-113626108D01*
X137551439Y-113301596D01*
X137478797Y-113189152D01*
X137410303Y-113080590D01*
X137351046Y-112984168D01*
X137306115Y-112908141D01*
X137283973Y-112867685D01*
X137200616Y-112686775D01*
X137113559Y-112468635D01*
X137024070Y-112218079D01*
X136933415Y-111939919D01*
X136842860Y-111638967D01*
X136753671Y-111320036D01*
X136667115Y-110987938D01*
X136584458Y-110647485D01*
X136506968Y-110303490D01*
X136435909Y-109960765D01*
X136372549Y-109624123D01*
X136318155Y-109298375D01*
X136285055Y-109071834D01*
X136270567Y-108943214D01*
X136264864Y-108872155D01*
X137340022Y-108872155D01*
X137369460Y-109045111D01*
X137421148Y-109176812D01*
X137509568Y-109312613D01*
X137622889Y-109414586D01*
X137760338Y-109483486D01*
X137856045Y-109520233D01*
X137979204Y-109571285D01*
X138119421Y-109631974D01*
X138266304Y-109697635D01*
X138409459Y-109763604D01*
X138538492Y-109825214D01*
X138643011Y-109877800D01*
X138666105Y-109890076D01*
X138962987Y-110058758D01*
X139229997Y-110229110D01*
X139479065Y-110409495D01*
X139722120Y-110608275D01*
X139841817Y-110714183D01*
X140038119Y-110890048D01*
X140209034Y-111038909D01*
X140358776Y-111164026D01*
X140491559Y-111268659D01*
X140611597Y-111356069D01*
X140723102Y-111429516D01*
X140830289Y-111492260D01*
X140885140Y-111521442D01*
X141008740Y-111578772D01*
X141105655Y-111608290D01*
X141180757Y-111610401D01*
X141238919Y-111585511D01*
X141271078Y-111553625D01*
X141305692Y-111482089D01*
X141313053Y-111388524D01*
X141292709Y-111271603D01*
X141244212Y-111130000D01*
X141237156Y-111114661D01*
X144297902Y-111114661D01*
X144316535Y-111245439D01*
X144319414Y-111256329D01*
X144345458Y-111312668D01*
X144386668Y-111367460D01*
X144431685Y-111407868D01*
X144465436Y-111421334D01*
X144487250Y-111407248D01*
X144525707Y-111371731D01*
X144544329Y-111352542D01*
X144615310Y-111266759D01*
X144702617Y-111142895D01*
X144806318Y-110980833D01*
X144926481Y-110780460D01*
X145063173Y-110541660D01*
X145216461Y-110264319D01*
X145386413Y-109948321D01*
X145534424Y-109667602D01*
X145764150Y-109241413D01*
X145990867Y-108848248D01*
X146220169Y-108479681D01*
X146457651Y-108127286D01*
X146708904Y-107782637D01*
X146979524Y-107437308D01*
X147161260Y-107217057D01*
X147434885Y-106900221D01*
X147717124Y-106591617D01*
X148011568Y-106287953D01*
X148321806Y-105985938D01*
X148651429Y-105682280D01*
X149004028Y-105373689D01*
X149383191Y-105056873D01*
X149792509Y-104728539D01*
X150235573Y-104385398D01*
X150319317Y-104321706D01*
X150620197Y-104091437D01*
X150896397Y-103875918D01*
X151146643Y-103676232D01*
X151369662Y-103493462D01*
X151564180Y-103328689D01*
X151728924Y-103182998D01*
X151862620Y-103057470D01*
X151963996Y-102953189D01*
X152031777Y-102871238D01*
X152041254Y-102857526D01*
X152094341Y-102742748D01*
X152110188Y-102621346D01*
X152092543Y-102497296D01*
X152045151Y-102374575D01*
X151971758Y-102257156D01*
X151876111Y-102149016D01*
X151761955Y-102054131D01*
X151633037Y-101976475D01*
X151493102Y-101920025D01*
X151345898Y-101888756D01*
X151195169Y-101886644D01*
X151134234Y-101894944D01*
X150948873Y-101943162D01*
X150740699Y-102023413D01*
X150512093Y-102133709D01*
X150265438Y-102272064D01*
X150003116Y-102436492D01*
X149727509Y-102625006D01*
X149441000Y-102835619D01*
X149145970Y-103066345D01*
X148844803Y-103315198D01*
X148539880Y-103580190D01*
X148233584Y-103859336D01*
X147928297Y-104150649D01*
X147626402Y-104452143D01*
X147330280Y-104761830D01*
X147042314Y-105077725D01*
X146764887Y-105397840D01*
X146500380Y-105720190D01*
X146411170Y-105833334D01*
X146228488Y-106075607D01*
X146060591Y-106316226D01*
X145903208Y-106562467D01*
X145752069Y-106821610D01*
X145602905Y-107100932D01*
X145451446Y-107407711D01*
X145314514Y-107702545D01*
X145160200Y-108053068D01*
X145015834Y-108401219D01*
X144882229Y-108744100D01*
X144760196Y-109078812D01*
X144650546Y-109402457D01*
X144554091Y-109712138D01*
X144471643Y-110004956D01*
X144404012Y-110278012D01*
X144352012Y-110528409D01*
X144316452Y-110753248D01*
X144298145Y-110949632D01*
X144297902Y-111114661D01*
X141237156Y-111114661D01*
X141167110Y-110962391D01*
X141060953Y-110767448D01*
X140931380Y-110553500D01*
X140749511Y-110276551D01*
X140544910Y-109985852D01*
X140323332Y-109688522D01*
X140090535Y-109391678D01*
X139852275Y-109102441D01*
X139614308Y-108827928D01*
X139382390Y-108575258D01*
X139162278Y-108351549D01*
X139110404Y-108301586D01*
X138947044Y-108153762D01*
X138800956Y-108039519D01*
X138666840Y-107956626D01*
X138539397Y-107902849D01*
X138413326Y-107875959D01*
X138283327Y-107873722D01*
X138144099Y-107893907D01*
X138142876Y-107894165D01*
X137947081Y-107955346D01*
X137773358Y-108052176D01*
X137618421Y-108186512D01*
X137610440Y-108194961D01*
X137486229Y-108353667D01*
X137399216Y-108522234D01*
X137350211Y-108696463D01*
X137340022Y-108872155D01*
X136264864Y-108872155D01*
X136258352Y-108791040D01*
X136248631Y-108623841D01*
X136241628Y-108450149D01*
X136237567Y-108278492D01*
X136236669Y-108117400D01*
X136239159Y-107975404D01*
X136245261Y-107861035D01*
X136251822Y-107801834D01*
X136281610Y-107663714D01*
X136329024Y-107536453D01*
X136397614Y-107415547D01*
X136490927Y-107296493D01*
X136612512Y-107174789D01*
X136765918Y-107045931D01*
X136954692Y-106905417D01*
X136962791Y-106899659D01*
X137139506Y-106777693D01*
X137333490Y-106650630D01*
X137546736Y-106517368D01*
X137781234Y-106376805D01*
X138038976Y-106227838D01*
X138321953Y-106069363D01*
X138632157Y-105900280D01*
X138971577Y-105719484D01*
X139342207Y-105525873D01*
X139746036Y-105318345D01*
X140185057Y-105095798D01*
X140561484Y-104906937D01*
X141153145Y-104613190D01*
X141748040Y-104321553D01*
X142344366Y-104032798D01*
X142940323Y-103747701D01*
X143534108Y-103467034D01*
X144123921Y-103191572D01*
X144707960Y-102922088D01*
X145284425Y-102659357D01*
X145851512Y-102404152D01*
X146407422Y-102157247D01*
X146950353Y-101919416D01*
X147478504Y-101691432D01*
X147990073Y-101474071D01*
X148483259Y-101268104D01*
X148956261Y-101074307D01*
X149407277Y-100893454D01*
X149834506Y-100726317D01*
X150236147Y-100573671D01*
X150610399Y-100436290D01*
X150955459Y-100314948D01*
X151269528Y-100210418D01*
X151550802Y-100123475D01*
X151797482Y-100054891D01*
X151932489Y-100021877D01*
X152191278Y-99972804D01*
X152420403Y-99952145D01*
X152622711Y-99961198D01*
X152622711Y-99961198D01*
G37*
X152622711Y-99961198D02*
X152801047Y-100001264D01*
X152958259Y-100073644D01*
X153097195Y-100179636D01*
X153220700Y-100320541D01*
X153331622Y-100497659D01*
X153430067Y-100705726D01*
X153532637Y-100966939D01*
X153627501Y-101243309D01*
X153715190Y-101537598D01*
X153796239Y-101852570D01*
X153871180Y-102190985D01*
X153940547Y-102555607D01*
X154004872Y-102949197D01*
X154064689Y-103374518D01*
X154120531Y-103834332D01*
X154172930Y-104331401D01*
X154213321Y-104764417D01*
X154251735Y-105213198D01*
X154284352Y-105628560D01*
X154311548Y-106018965D01*
X154333702Y-106392875D01*
X154351191Y-106758752D01*
X154364391Y-107125059D01*
X154373681Y-107500256D01*
X154379437Y-107892806D01*
X154382037Y-108311170D01*
X154382259Y-108553250D01*
X154381674Y-108861661D01*
X154380235Y-109131587D01*
X154377741Y-109366874D01*
X154373990Y-109571363D01*
X154368781Y-109748901D01*
X154361913Y-109903330D01*
X154353183Y-110038495D01*
X154342391Y-110158239D01*
X154329334Y-110266407D01*
X154313812Y-110366843D01*
X154295621Y-110463390D01*
X154277784Y-110545832D01*
X154247004Y-110660242D01*
X154210075Y-110743440D01*
X154158883Y-110806505D01*
X154085312Y-110860511D01*
X154020992Y-110896346D01*
X153868729Y-110967445D01*
X153676629Y-111043370D01*
X153446863Y-111123704D01*
X153181601Y-111208030D01*
X152883013Y-111295933D01*
X152553270Y-111386996D01*
X152194543Y-111480802D01*
X151809001Y-111576934D01*
X151398817Y-111674977D01*
X150966159Y-111774513D01*
X150513199Y-111875127D01*
X150042107Y-111976401D01*
X149555054Y-112077919D01*
X149054209Y-112179265D01*
X148541745Y-112280022D01*
X148019830Y-112379773D01*
X147490636Y-112478103D01*
X146956334Y-112574594D01*
X146419092Y-112668830D01*
X145881083Y-112760394D01*
X145344477Y-112848870D01*
X144811444Y-112933842D01*
X144284154Y-113014892D01*
X143764779Y-113091605D01*
X143255488Y-113163564D01*
X142758452Y-113230352D01*
X142275843Y-113291553D01*
X141809829Y-113346750D01*
X141362582Y-113395527D01*
X140936272Y-113437468D01*
X140646150Y-113462978D01*
X140546304Y-113470543D01*
X140410338Y-113479734D01*
X140244418Y-113490191D01*
X140054710Y-113501552D01*
X139847381Y-113513453D01*
X139628597Y-113525532D01*
X139404523Y-113537429D01*
X139206817Y-113547510D01*
X138991703Y-113558318D01*
X138783399Y-113568909D01*
X138586936Y-113579018D01*
X138407342Y-113588381D01*
X138249647Y-113596735D01*
X138118879Y-113603813D01*
X138020068Y-113609354D01*
X137958244Y-113613091D01*
X137956093Y-113613234D01*
X137763703Y-113626108D01*
X137551439Y-113301596D01*
X137478797Y-113189152D01*
X137410303Y-113080590D01*
X137351046Y-112984168D01*
X137306115Y-112908141D01*
X137283973Y-112867685D01*
X137200616Y-112686775D01*
X137113559Y-112468635D01*
X137024070Y-112218079D01*
X136933415Y-111939919D01*
X136842860Y-111638967D01*
X136753671Y-111320036D01*
X136667115Y-110987938D01*
X136584458Y-110647485D01*
X136506968Y-110303490D01*
X136435909Y-109960765D01*
X136372549Y-109624123D01*
X136318155Y-109298375D01*
X136285055Y-109071834D01*
X136270567Y-108943214D01*
X136264864Y-108872155D01*
X137340022Y-108872155D01*
X137369460Y-109045111D01*
X137421148Y-109176812D01*
X137509568Y-109312613D01*
X137622889Y-109414586D01*
X137760338Y-109483486D01*
X137856045Y-109520233D01*
X137979204Y-109571285D01*
X138119421Y-109631974D01*
X138266304Y-109697635D01*
X138409459Y-109763604D01*
X138538492Y-109825214D01*
X138643011Y-109877800D01*
X138666105Y-109890076D01*
X138962987Y-110058758D01*
X139229997Y-110229110D01*
X139479065Y-110409495D01*
X139722120Y-110608275D01*
X139841817Y-110714183D01*
X140038119Y-110890048D01*
X140209034Y-111038909D01*
X140358776Y-111164026D01*
X140491559Y-111268659D01*
X140611597Y-111356069D01*
X140723102Y-111429516D01*
X140830289Y-111492260D01*
X140885140Y-111521442D01*
X141008740Y-111578772D01*
X141105655Y-111608290D01*
X141180757Y-111610401D01*
X141238919Y-111585511D01*
X141271078Y-111553625D01*
X141305692Y-111482089D01*
X141313053Y-111388524D01*
X141292709Y-111271603D01*
X141244212Y-111130000D01*
X141237156Y-111114661D01*
X144297902Y-111114661D01*
X144316535Y-111245439D01*
X144319414Y-111256329D01*
X144345458Y-111312668D01*
X144386668Y-111367460D01*
X144431685Y-111407868D01*
X144465436Y-111421334D01*
X144487250Y-111407248D01*
X144525707Y-111371731D01*
X144544329Y-111352542D01*
X144615310Y-111266759D01*
X144702617Y-111142895D01*
X144806318Y-110980833D01*
X144926481Y-110780460D01*
X145063173Y-110541660D01*
X145216461Y-110264319D01*
X145386413Y-109948321D01*
X145534424Y-109667602D01*
X145764150Y-109241413D01*
X145990867Y-108848248D01*
X146220169Y-108479681D01*
X146457651Y-108127286D01*
X146708904Y-107782637D01*
X146979524Y-107437308D01*
X147161260Y-107217057D01*
X147434885Y-106900221D01*
X147717124Y-106591617D01*
X148011568Y-106287953D01*
X148321806Y-105985938D01*
X148651429Y-105682280D01*
X149004028Y-105373689D01*
X149383191Y-105056873D01*
X149792509Y-104728539D01*
X150235573Y-104385398D01*
X150319317Y-104321706D01*
X150620197Y-104091437D01*
X150896397Y-103875918D01*
X151146643Y-103676232D01*
X151369662Y-103493462D01*
X151564180Y-103328689D01*
X151728924Y-103182998D01*
X151862620Y-103057470D01*
X151963996Y-102953189D01*
X152031777Y-102871238D01*
X152041254Y-102857526D01*
X152094341Y-102742748D01*
X152110188Y-102621346D01*
X152092543Y-102497296D01*
X152045151Y-102374575D01*
X151971758Y-102257156D01*
X151876111Y-102149016D01*
X151761955Y-102054131D01*
X151633037Y-101976475D01*
X151493102Y-101920025D01*
X151345898Y-101888756D01*
X151195169Y-101886644D01*
X151134234Y-101894944D01*
X150948873Y-101943162D01*
X150740699Y-102023413D01*
X150512093Y-102133709D01*
X150265438Y-102272064D01*
X150003116Y-102436492D01*
X149727509Y-102625006D01*
X149441000Y-102835619D01*
X149145970Y-103066345D01*
X148844803Y-103315198D01*
X148539880Y-103580190D01*
X148233584Y-103859336D01*
X147928297Y-104150649D01*
X147626402Y-104452143D01*
X147330280Y-104761830D01*
X147042314Y-105077725D01*
X146764887Y-105397840D01*
X146500380Y-105720190D01*
X146411170Y-105833334D01*
X146228488Y-106075607D01*
X146060591Y-106316226D01*
X145903208Y-106562467D01*
X145752069Y-106821610D01*
X145602905Y-107100932D01*
X145451446Y-107407711D01*
X145314514Y-107702545D01*
X145160200Y-108053068D01*
X145015834Y-108401219D01*
X144882229Y-108744100D01*
X144760196Y-109078812D01*
X144650546Y-109402457D01*
X144554091Y-109712138D01*
X144471643Y-110004956D01*
X144404012Y-110278012D01*
X144352012Y-110528409D01*
X144316452Y-110753248D01*
X144298145Y-110949632D01*
X144297902Y-111114661D01*
X141237156Y-111114661D01*
X141167110Y-110962391D01*
X141060953Y-110767448D01*
X140931380Y-110553500D01*
X140749511Y-110276551D01*
X140544910Y-109985852D01*
X140323332Y-109688522D01*
X140090535Y-109391678D01*
X139852275Y-109102441D01*
X139614308Y-108827928D01*
X139382390Y-108575258D01*
X139162278Y-108351549D01*
X139110404Y-108301586D01*
X138947044Y-108153762D01*
X138800956Y-108039519D01*
X138666840Y-107956626D01*
X138539397Y-107902849D01*
X138413326Y-107875959D01*
X138283327Y-107873722D01*
X138144099Y-107893907D01*
X138142876Y-107894165D01*
X137947081Y-107955346D01*
X137773358Y-108052176D01*
X137618421Y-108186512D01*
X137610440Y-108194961D01*
X137486229Y-108353667D01*
X137399216Y-108522234D01*
X137350211Y-108696463D01*
X137340022Y-108872155D01*
X136264864Y-108872155D01*
X136258352Y-108791040D01*
X136248631Y-108623841D01*
X136241628Y-108450149D01*
X136237567Y-108278492D01*
X136236669Y-108117400D01*
X136239159Y-107975404D01*
X136245261Y-107861035D01*
X136251822Y-107801834D01*
X136281610Y-107663714D01*
X136329024Y-107536453D01*
X136397614Y-107415547D01*
X136490927Y-107296493D01*
X136612512Y-107174789D01*
X136765918Y-107045931D01*
X136954692Y-106905417D01*
X136962791Y-106899659D01*
X137139506Y-106777693D01*
X137333490Y-106650630D01*
X137546736Y-106517368D01*
X137781234Y-106376805D01*
X138038976Y-106227838D01*
X138321953Y-106069363D01*
X138632157Y-105900280D01*
X138971577Y-105719484D01*
X139342207Y-105525873D01*
X139746036Y-105318345D01*
X140185057Y-105095798D01*
X140561484Y-104906937D01*
X141153145Y-104613190D01*
X141748040Y-104321553D01*
X142344366Y-104032798D01*
X142940323Y-103747701D01*
X143534108Y-103467034D01*
X144123921Y-103191572D01*
X144707960Y-102922088D01*
X145284425Y-102659357D01*
X145851512Y-102404152D01*
X146407422Y-102157247D01*
X146950353Y-101919416D01*
X147478504Y-101691432D01*
X147990073Y-101474071D01*
X148483259Y-101268104D01*
X148956261Y-101074307D01*
X149407277Y-100893454D01*
X149834506Y-100726317D01*
X150236147Y-100573671D01*
X150610399Y-100436290D01*
X150955459Y-100314948D01*
X151269528Y-100210418D01*
X151550802Y-100123475D01*
X151797482Y-100054891D01*
X151932489Y-100021877D01*
X152191278Y-99972804D01*
X152420403Y-99952145D01*
X152622711Y-99961198D01*
G36*
X174925827Y-96003979D02*
G01*
X174996498Y-96028602D01*
X175088021Y-96071271D01*
X175205553Y-96133722D01*
X175329735Y-96203645D01*
X175669194Y-96397755D01*
X175717679Y-96352206D01*
X175795686Y-96305531D01*
X175885537Y-96292890D01*
X175972560Y-96315979D01*
X175982683Y-96321565D01*
X176039251Y-96370220D01*
X176064905Y-96435556D01*
X176062751Y-96526103D01*
X176061109Y-96536972D01*
X176055989Y-96580500D01*
X176063044Y-96609776D01*
X176089953Y-96635123D01*
X176144392Y-96666861D01*
X176166634Y-96678847D01*
X176259141Y-96737081D01*
X176330897Y-96799198D01*
X176375068Y-96858394D01*
X176385988Y-96897333D01*
X176367027Y-96966351D01*
X176317790Y-97031863D01*
X176249303Y-97081064D01*
X176216643Y-97094028D01*
X176172785Y-97105446D01*
X176135869Y-97107262D01*
X176094511Y-97096772D01*
X176037328Y-97071270D01*
X175964638Y-97034137D01*
X175799413Y-96948246D01*
X175638410Y-97167893D01*
X175571893Y-97255041D01*
X175508121Y-97332233D01*
X175454124Y-97391354D01*
X175416931Y-97424289D01*
X175415566Y-97425147D01*
X175353724Y-97462755D01*
X175426417Y-97536419D01*
X175478516Y-97599632D01*
X175530558Y-97678931D01*
X175553803Y-97721851D01*
X175584482Y-97792092D01*
X175599113Y-97853197D01*
X175601199Y-97925157D01*
X175598308Y-97976020D01*
X175568331Y-98133273D01*
X175502137Y-98268936D01*
X175399202Y-98383830D01*
X175288835Y-98462058D01*
X175232470Y-98491119D01*
X175175039Y-98509572D01*
X175102873Y-98520497D01*
X175002305Y-98526972D01*
X175000188Y-98527065D01*
X174903762Y-98528526D01*
X174814084Y-98525105D01*
X174746284Y-98517532D01*
X174730742Y-98514096D01*
X174680973Y-98502749D01*
X174662554Y-98507064D01*
X174664622Y-98522099D01*
X174666053Y-98561768D01*
X174653787Y-98614884D01*
X174644039Y-98648208D01*
X174647375Y-98672678D01*
X174670382Y-98696340D01*
X174719643Y-98727238D01*
X174768165Y-98754623D01*
X174840211Y-98798571D01*
X174900139Y-98841694D01*
X174935453Y-98874963D01*
X174936275Y-98876101D01*
X174966312Y-98951783D01*
X174955985Y-99029972D01*
X174906207Y-99103783D01*
X174906028Y-99103962D01*
X174834585Y-99153134D01*
X174750853Y-99167471D01*
X174651078Y-99146852D01*
X174532578Y-99091750D01*
X174466452Y-99055431D01*
X174416104Y-99029014D01*
X174391583Y-99017757D01*
X174390970Y-99017667D01*
X174375886Y-99033877D01*
X174341719Y-99077945D01*
X174293635Y-99143026D01*
X174240150Y-99217542D01*
X174177193Y-99303276D01*
X174116235Y-99380928D01*
X174065031Y-99440908D01*
X174036052Y-99469936D01*
X173973638Y-99522453D01*
X174052727Y-99561102D01*
X174112191Y-99602730D01*
X174152238Y-99663373D01*
X174174835Y-99749039D01*
X174181951Y-99865733D01*
X174179808Y-99949000D01*
X174162554Y-100104115D01*
X174124239Y-100231846D01*
X174060549Y-100343691D01*
X174007025Y-100409436D01*
X173907608Y-100491409D01*
X173781589Y-100553558D01*
X173641413Y-100592407D01*
X173499527Y-100604481D01*
X173371007Y-100587039D01*
X173317289Y-100574266D01*
X173284100Y-100570262D01*
X173280179Y-100571333D01*
X173287481Y-100590463D01*
X173314813Y-100628641D01*
X173323721Y-100639551D01*
X173406481Y-100765266D01*
X173467042Y-100912242D01*
X173488252Y-100997979D01*
X173494103Y-101140386D01*
X173462812Y-101292836D01*
X173396021Y-101448410D01*
X173370937Y-101491991D01*
X173289075Y-101606163D01*
X173193668Y-101706436D01*
X173091167Y-101788657D01*
X172988020Y-101848675D01*
X172890675Y-101882338D01*
X172805582Y-101885494D01*
X172774037Y-101876299D01*
X172739109Y-101858040D01*
X172676924Y-101822303D01*
X172596071Y-101774131D01*
X172505137Y-101718570D01*
X172498870Y-101714692D01*
X172402134Y-101656127D01*
X172279861Y-101584137D01*
X172143724Y-101505482D01*
X172005399Y-101426921D01*
X171909317Y-101373278D01*
X171793950Y-101308345D01*
X171688563Y-101246990D01*
X171599928Y-101193317D01*
X171534817Y-101151430D01*
X171500002Y-101125432D01*
X171499539Y-101124983D01*
X171455519Y-101053445D01*
X171438784Y-100979899D01*
X171438294Y-100970243D01*
X172046719Y-100970243D01*
X172263768Y-101091563D01*
X172374350Y-101154179D01*
X172494502Y-101223505D01*
X172606192Y-101289084D01*
X172660734Y-101321735D01*
X172738215Y-101367832D01*
X172801902Y-101404263D01*
X172843361Y-101426285D01*
X172854332Y-101430626D01*
X172875301Y-101416133D01*
X172912370Y-101379485D01*
X172931107Y-101358809D01*
X172978886Y-101292169D01*
X173021493Y-101213112D01*
X173031425Y-101189475D01*
X173052824Y-101127546D01*
X173057667Y-101082984D01*
X173046054Y-101034237D01*
X173032330Y-100996893D01*
X172970231Y-100890292D01*
X172878876Y-100809173D01*
X172765442Y-100757465D01*
X172637107Y-100739096D01*
X172569520Y-100743651D01*
X172495833Y-100762008D01*
X172398039Y-100798191D01*
X172287977Y-100847661D01*
X172254530Y-100864317D01*
X172046719Y-100970243D01*
X171438294Y-100970243D01*
X171435479Y-100914822D01*
X171447508Y-100872640D01*
X171478145Y-100836805D01*
X171526273Y-100798804D01*
X171602904Y-100746463D01*
X171699071Y-100685139D01*
X171805805Y-100620191D01*
X171914140Y-100556980D01*
X172015109Y-100500864D01*
X172099743Y-100457202D01*
X172152734Y-100433659D01*
X172360752Y-100369574D01*
X172559701Y-100337151D01*
X172743409Y-100337048D01*
X172864894Y-100357899D01*
X172972447Y-100385798D01*
X172879701Y-100271930D01*
X172820187Y-100190681D01*
X172758516Y-100093678D01*
X172715023Y-100015226D01*
X172630560Y-99817765D01*
X172584718Y-99637395D01*
X172577481Y-99473908D01*
X172608833Y-99327094D01*
X172655906Y-99230603D01*
X172695002Y-99162916D01*
X172724971Y-99102320D01*
X172736523Y-99071320D01*
X172775510Y-98996454D01*
X172843485Y-98945153D01*
X172930422Y-98924549D01*
X172942906Y-98924504D01*
X173016001Y-98937098D01*
X173104222Y-98967645D01*
X173193839Y-99009619D01*
X173271121Y-99056494D01*
X173322337Y-99101742D01*
X173325957Y-99106577D01*
X173355483Y-99180464D01*
X173349482Y-99255755D01*
X173313402Y-99323225D01*
X173252694Y-99373647D01*
X173172806Y-99397796D01*
X173153428Y-99398667D01*
X173093682Y-99404860D01*
X173050865Y-99420150D01*
X173045967Y-99424067D01*
X173021837Y-99476167D01*
X173021108Y-99553785D01*
X173040985Y-99649183D01*
X173078672Y-99754626D01*
X173131373Y-99862377D01*
X173196291Y-99964699D01*
X173270632Y-100053857D01*
X173275266Y-100058554D01*
X173370899Y-100142255D01*
X173455636Y-100188475D01*
X173534398Y-100199000D01*
X173606141Y-100178535D01*
X173667260Y-100132947D01*
X173708857Y-100061050D01*
X173732612Y-99958356D01*
X173740200Y-99820382D01*
X173740201Y-99819989D01*
X173742811Y-99718531D01*
X173753578Y-99649757D01*
X173776969Y-99604178D01*
X173817452Y-99572306D01*
X173867669Y-99549290D01*
X173901938Y-99534170D01*
X173898225Y-99528325D01*
X173875380Y-99527009D01*
X173806600Y-99504177D01*
X173742078Y-99441542D01*
X173684157Y-99341594D01*
X173670163Y-99309050D01*
X173643272Y-99246371D01*
X173601972Y-99154770D01*
X173550465Y-99043350D01*
X173492952Y-98921214D01*
X173442874Y-98816584D01*
X173398044Y-98722643D01*
X173868543Y-98722643D01*
X173903558Y-98796071D01*
X173934573Y-98850767D01*
X173959630Y-98866543D01*
X173983776Y-98845356D01*
X173992411Y-98830573D01*
X173999906Y-98801675D01*
X173980006Y-98778241D01*
X173940893Y-98757144D01*
X173868543Y-98722643D01*
X173398044Y-98722643D01*
X173386758Y-98698995D01*
X173336186Y-98590622D01*
X173294464Y-98498741D01*
X173264900Y-98430629D01*
X173251043Y-98394418D01*
X173244738Y-98304060D01*
X173271383Y-98211482D01*
X173325765Y-98132778D01*
X173340091Y-98119629D01*
X173383770Y-98087756D01*
X173427791Y-98069401D01*
X173477678Y-98065982D01*
X173538953Y-98078918D01*
X173617141Y-98109627D01*
X173717765Y-98159528D01*
X173846349Y-98230037D01*
X173909469Y-98265824D01*
X174258621Y-98464954D01*
X174306802Y-98419691D01*
X174354982Y-98374428D01*
X174245331Y-98306793D01*
X174125738Y-98220135D01*
X174012467Y-98114727D01*
X173916640Y-98002123D01*
X173850828Y-97896859D01*
X173818050Y-97820923D01*
X173800437Y-97749976D01*
X173793951Y-97664535D01*
X173793865Y-97654560D01*
X174225247Y-97654560D01*
X174256944Y-97740586D01*
X174323158Y-97829491D01*
X174420670Y-97917360D01*
X174546261Y-98000276D01*
X174607758Y-98033261D01*
X174759448Y-98100568D01*
X174885272Y-98136133D01*
X174987187Y-98140121D01*
X175067152Y-98112695D01*
X175110775Y-98075284D01*
X175150929Y-98003127D01*
X175150644Y-97924085D01*
X175109804Y-97835989D01*
X175096794Y-97817141D01*
X175030013Y-97744366D01*
X174936403Y-97668094D01*
X174825776Y-97593932D01*
X174707941Y-97527485D01*
X174592711Y-97474360D01*
X174489894Y-97440164D01*
X174419627Y-97430167D01*
X174345323Y-97449272D01*
X174278556Y-97499359D01*
X174233399Y-97569582D01*
X174231286Y-97575329D01*
X174225247Y-97654560D01*
X173793865Y-97654560D01*
X173793570Y-97620667D01*
X173799491Y-97509144D01*
X173820604Y-97420694D01*
X173862954Y-97340135D01*
X173932584Y-97252287D01*
X173946362Y-97236870D01*
X174028344Y-97158514D01*
X174114627Y-97105351D01*
X174216432Y-97072720D01*
X174344982Y-97055960D01*
X174388050Y-97053441D01*
X174557062Y-97055364D01*
X174707240Y-97080986D01*
X174855099Y-97134159D01*
X174960989Y-97187061D01*
X175091662Y-97258252D01*
X175063104Y-97190751D01*
X175045479Y-97151529D01*
X175012772Y-97081025D01*
X174968217Y-96986120D01*
X174915048Y-96873698D01*
X174856500Y-96750642D01*
X174842474Y-96721267D01*
X174825300Y-96684478D01*
X175310273Y-96684478D01*
X175317018Y-96704508D01*
X175336568Y-96758140D01*
X175343304Y-96779738D01*
X175358577Y-96804594D01*
X175383236Y-96793021D01*
X175408567Y-96758965D01*
X175412400Y-96743056D01*
X175395110Y-96716530D01*
X175356950Y-96692031D01*
X175319065Y-96677121D01*
X175310273Y-96684478D01*
X174825300Y-96684478D01*
X174780541Y-96588603D01*
X174727959Y-96469952D01*
X174687147Y-96371178D01*
X174660521Y-96298146D01*
X174650501Y-96256720D01*
X174650479Y-96255601D01*
X174667883Y-96175482D01*
X174713137Y-96094135D01*
X174776083Y-96028968D01*
X174787383Y-96021031D01*
X174826425Y-96001929D01*
X174870855Y-95995667D01*
X174925827Y-96003979D01*
X174925827Y-96003979D01*
G37*
X174925827Y-96003979D02*
X174996498Y-96028602D01*
X175088021Y-96071271D01*
X175205553Y-96133722D01*
X175329735Y-96203645D01*
X175669194Y-96397755D01*
X175717679Y-96352206D01*
X175795686Y-96305531D01*
X175885537Y-96292890D01*
X175972560Y-96315979D01*
X175982683Y-96321565D01*
X176039251Y-96370220D01*
X176064905Y-96435556D01*
X176062751Y-96526103D01*
X176061109Y-96536972D01*
X176055989Y-96580500D01*
X176063044Y-96609776D01*
X176089953Y-96635123D01*
X176144392Y-96666861D01*
X176166634Y-96678847D01*
X176259141Y-96737081D01*
X176330897Y-96799198D01*
X176375068Y-96858394D01*
X176385988Y-96897333D01*
X176367027Y-96966351D01*
X176317790Y-97031863D01*
X176249303Y-97081064D01*
X176216643Y-97094028D01*
X176172785Y-97105446D01*
X176135869Y-97107262D01*
X176094511Y-97096772D01*
X176037328Y-97071270D01*
X175964638Y-97034137D01*
X175799413Y-96948246D01*
X175638410Y-97167893D01*
X175571893Y-97255041D01*
X175508121Y-97332233D01*
X175454124Y-97391354D01*
X175416931Y-97424289D01*
X175415566Y-97425147D01*
X175353724Y-97462755D01*
X175426417Y-97536419D01*
X175478516Y-97599632D01*
X175530558Y-97678931D01*
X175553803Y-97721851D01*
X175584482Y-97792092D01*
X175599113Y-97853197D01*
X175601199Y-97925157D01*
X175598308Y-97976020D01*
X175568331Y-98133273D01*
X175502137Y-98268936D01*
X175399202Y-98383830D01*
X175288835Y-98462058D01*
X175232470Y-98491119D01*
X175175039Y-98509572D01*
X175102873Y-98520497D01*
X175002305Y-98526972D01*
X175000188Y-98527065D01*
X174903762Y-98528526D01*
X174814084Y-98525105D01*
X174746284Y-98517532D01*
X174730742Y-98514096D01*
X174680973Y-98502749D01*
X174662554Y-98507064D01*
X174664622Y-98522099D01*
X174666053Y-98561768D01*
X174653787Y-98614884D01*
X174644039Y-98648208D01*
X174647375Y-98672678D01*
X174670382Y-98696340D01*
X174719643Y-98727238D01*
X174768165Y-98754623D01*
X174840211Y-98798571D01*
X174900139Y-98841694D01*
X174935453Y-98874963D01*
X174936275Y-98876101D01*
X174966312Y-98951783D01*
X174955985Y-99029972D01*
X174906207Y-99103783D01*
X174906028Y-99103962D01*
X174834585Y-99153134D01*
X174750853Y-99167471D01*
X174651078Y-99146852D01*
X174532578Y-99091750D01*
X174466452Y-99055431D01*
X174416104Y-99029014D01*
X174391583Y-99017757D01*
X174390970Y-99017667D01*
X174375886Y-99033877D01*
X174341719Y-99077945D01*
X174293635Y-99143026D01*
X174240150Y-99217542D01*
X174177193Y-99303276D01*
X174116235Y-99380928D01*
X174065031Y-99440908D01*
X174036052Y-99469936D01*
X173973638Y-99522453D01*
X174052727Y-99561102D01*
X174112191Y-99602730D01*
X174152238Y-99663373D01*
X174174835Y-99749039D01*
X174181951Y-99865733D01*
X174179808Y-99949000D01*
X174162554Y-100104115D01*
X174124239Y-100231846D01*
X174060549Y-100343691D01*
X174007025Y-100409436D01*
X173907608Y-100491409D01*
X173781589Y-100553558D01*
X173641413Y-100592407D01*
X173499527Y-100604481D01*
X173371007Y-100587039D01*
X173317289Y-100574266D01*
X173284100Y-100570262D01*
X173280179Y-100571333D01*
X173287481Y-100590463D01*
X173314813Y-100628641D01*
X173323721Y-100639551D01*
X173406481Y-100765266D01*
X173467042Y-100912242D01*
X173488252Y-100997979D01*
X173494103Y-101140386D01*
X173462812Y-101292836D01*
X173396021Y-101448410D01*
X173370937Y-101491991D01*
X173289075Y-101606163D01*
X173193668Y-101706436D01*
X173091167Y-101788657D01*
X172988020Y-101848675D01*
X172890675Y-101882338D01*
X172805582Y-101885494D01*
X172774037Y-101876299D01*
X172739109Y-101858040D01*
X172676924Y-101822303D01*
X172596071Y-101774131D01*
X172505137Y-101718570D01*
X172498870Y-101714692D01*
X172402134Y-101656127D01*
X172279861Y-101584137D01*
X172143724Y-101505482D01*
X172005399Y-101426921D01*
X171909317Y-101373278D01*
X171793950Y-101308345D01*
X171688563Y-101246990D01*
X171599928Y-101193317D01*
X171534817Y-101151430D01*
X171500002Y-101125432D01*
X171499539Y-101124983D01*
X171455519Y-101053445D01*
X171438784Y-100979899D01*
X171438294Y-100970243D01*
X172046719Y-100970243D01*
X172263768Y-101091563D01*
X172374350Y-101154179D01*
X172494502Y-101223505D01*
X172606192Y-101289084D01*
X172660734Y-101321735D01*
X172738215Y-101367832D01*
X172801902Y-101404263D01*
X172843361Y-101426285D01*
X172854332Y-101430626D01*
X172875301Y-101416133D01*
X172912370Y-101379485D01*
X172931107Y-101358809D01*
X172978886Y-101292169D01*
X173021493Y-101213112D01*
X173031425Y-101189475D01*
X173052824Y-101127546D01*
X173057667Y-101082984D01*
X173046054Y-101034237D01*
X173032330Y-100996893D01*
X172970231Y-100890292D01*
X172878876Y-100809173D01*
X172765442Y-100757465D01*
X172637107Y-100739096D01*
X172569520Y-100743651D01*
X172495833Y-100762008D01*
X172398039Y-100798191D01*
X172287977Y-100847661D01*
X172254530Y-100864317D01*
X172046719Y-100970243D01*
X171438294Y-100970243D01*
X171435479Y-100914822D01*
X171447508Y-100872640D01*
X171478145Y-100836805D01*
X171526273Y-100798804D01*
X171602904Y-100746463D01*
X171699071Y-100685139D01*
X171805805Y-100620191D01*
X171914140Y-100556980D01*
X172015109Y-100500864D01*
X172099743Y-100457202D01*
X172152734Y-100433659D01*
X172360752Y-100369574D01*
X172559701Y-100337151D01*
X172743409Y-100337048D01*
X172864894Y-100357899D01*
X172972447Y-100385798D01*
X172879701Y-100271930D01*
X172820187Y-100190681D01*
X172758516Y-100093678D01*
X172715023Y-100015226D01*
X172630560Y-99817765D01*
X172584718Y-99637395D01*
X172577481Y-99473908D01*
X172608833Y-99327094D01*
X172655906Y-99230603D01*
X172695002Y-99162916D01*
X172724971Y-99102320D01*
X172736523Y-99071320D01*
X172775510Y-98996454D01*
X172843485Y-98945153D01*
X172930422Y-98924549D01*
X172942906Y-98924504D01*
X173016001Y-98937098D01*
X173104222Y-98967645D01*
X173193839Y-99009619D01*
X173271121Y-99056494D01*
X173322337Y-99101742D01*
X173325957Y-99106577D01*
X173355483Y-99180464D01*
X173349482Y-99255755D01*
X173313402Y-99323225D01*
X173252694Y-99373647D01*
X173172806Y-99397796D01*
X173153428Y-99398667D01*
X173093682Y-99404860D01*
X173050865Y-99420150D01*
X173045967Y-99424067D01*
X173021837Y-99476167D01*
X173021108Y-99553785D01*
X173040985Y-99649183D01*
X173078672Y-99754626D01*
X173131373Y-99862377D01*
X173196291Y-99964699D01*
X173270632Y-100053857D01*
X173275266Y-100058554D01*
X173370899Y-100142255D01*
X173455636Y-100188475D01*
X173534398Y-100199000D01*
X173606141Y-100178535D01*
X173667260Y-100132947D01*
X173708857Y-100061050D01*
X173732612Y-99958356D01*
X173740200Y-99820382D01*
X173740201Y-99819989D01*
X173742811Y-99718531D01*
X173753578Y-99649757D01*
X173776969Y-99604178D01*
X173817452Y-99572306D01*
X173867669Y-99549290D01*
X173901938Y-99534170D01*
X173898225Y-99528325D01*
X173875380Y-99527009D01*
X173806600Y-99504177D01*
X173742078Y-99441542D01*
X173684157Y-99341594D01*
X173670163Y-99309050D01*
X173643272Y-99246371D01*
X173601972Y-99154770D01*
X173550465Y-99043350D01*
X173492952Y-98921214D01*
X173442874Y-98816584D01*
X173398044Y-98722643D01*
X173868543Y-98722643D01*
X173903558Y-98796071D01*
X173934573Y-98850767D01*
X173959630Y-98866543D01*
X173983776Y-98845356D01*
X173992411Y-98830573D01*
X173999906Y-98801675D01*
X173980006Y-98778241D01*
X173940893Y-98757144D01*
X173868543Y-98722643D01*
X173398044Y-98722643D01*
X173386758Y-98698995D01*
X173336186Y-98590622D01*
X173294464Y-98498741D01*
X173264900Y-98430629D01*
X173251043Y-98394418D01*
X173244738Y-98304060D01*
X173271383Y-98211482D01*
X173325765Y-98132778D01*
X173340091Y-98119629D01*
X173383770Y-98087756D01*
X173427791Y-98069401D01*
X173477678Y-98065982D01*
X173538953Y-98078918D01*
X173617141Y-98109627D01*
X173717765Y-98159528D01*
X173846349Y-98230037D01*
X173909469Y-98265824D01*
X174258621Y-98464954D01*
X174306802Y-98419691D01*
X174354982Y-98374428D01*
X174245331Y-98306793D01*
X174125738Y-98220135D01*
X174012467Y-98114727D01*
X173916640Y-98002123D01*
X173850828Y-97896859D01*
X173818050Y-97820923D01*
X173800437Y-97749976D01*
X173793951Y-97664535D01*
X173793865Y-97654560D01*
X174225247Y-97654560D01*
X174256944Y-97740586D01*
X174323158Y-97829491D01*
X174420670Y-97917360D01*
X174546261Y-98000276D01*
X174607758Y-98033261D01*
X174759448Y-98100568D01*
X174885272Y-98136133D01*
X174987187Y-98140121D01*
X175067152Y-98112695D01*
X175110775Y-98075284D01*
X175150929Y-98003127D01*
X175150644Y-97924085D01*
X175109804Y-97835989D01*
X175096794Y-97817141D01*
X175030013Y-97744366D01*
X174936403Y-97668094D01*
X174825776Y-97593932D01*
X174707941Y-97527485D01*
X174592711Y-97474360D01*
X174489894Y-97440164D01*
X174419627Y-97430167D01*
X174345323Y-97449272D01*
X174278556Y-97499359D01*
X174233399Y-97569582D01*
X174231286Y-97575329D01*
X174225247Y-97654560D01*
X173793865Y-97654560D01*
X173793570Y-97620667D01*
X173799491Y-97509144D01*
X173820604Y-97420694D01*
X173862954Y-97340135D01*
X173932584Y-97252287D01*
X173946362Y-97236870D01*
X174028344Y-97158514D01*
X174114627Y-97105351D01*
X174216432Y-97072720D01*
X174344982Y-97055960D01*
X174388050Y-97053441D01*
X174557062Y-97055364D01*
X174707240Y-97080986D01*
X174855099Y-97134159D01*
X174960989Y-97187061D01*
X175091662Y-97258252D01*
X175063104Y-97190751D01*
X175045479Y-97151529D01*
X175012772Y-97081025D01*
X174968217Y-96986120D01*
X174915048Y-96873698D01*
X174856500Y-96750642D01*
X174842474Y-96721267D01*
X174825300Y-96684478D01*
X175310273Y-96684478D01*
X175317018Y-96704508D01*
X175336568Y-96758140D01*
X175343304Y-96779738D01*
X175358577Y-96804594D01*
X175383236Y-96793021D01*
X175408567Y-96758965D01*
X175412400Y-96743056D01*
X175395110Y-96716530D01*
X175356950Y-96692031D01*
X175319065Y-96677121D01*
X175310273Y-96684478D01*
X174825300Y-96684478D01*
X174780541Y-96588603D01*
X174727959Y-96469952D01*
X174687147Y-96371178D01*
X174660521Y-96298146D01*
X174650501Y-96256720D01*
X174650479Y-96255601D01*
X174667883Y-96175482D01*
X174713137Y-96094135D01*
X174776083Y-96028968D01*
X174787383Y-96021031D01*
X174826425Y-96001929D01*
X174870855Y-95995667D01*
X174925827Y-96003979D01*
G36*
X171917430Y-90985071D02*
G01*
X171938572Y-90997406D01*
X171993888Y-91031025D01*
X172081621Y-91084837D01*
X172200017Y-91157752D01*
X172347322Y-91248678D01*
X172521780Y-91356525D01*
X172721636Y-91480201D01*
X172945135Y-91618616D01*
X173190522Y-91770678D01*
X173456043Y-91935296D01*
X173739941Y-92111380D01*
X174040464Y-92297838D01*
X174355854Y-92493580D01*
X174684357Y-92697514D01*
X175024219Y-92908549D01*
X175373684Y-93125595D01*
X175730998Y-93347560D01*
X176094405Y-93573354D01*
X176462150Y-93801885D01*
X176832478Y-94032063D01*
X177203635Y-94262796D01*
X177573866Y-94492993D01*
X177941414Y-94721564D01*
X178304526Y-94947417D01*
X178661447Y-95169462D01*
X179010421Y-95386607D01*
X179349693Y-95597761D01*
X179677509Y-95801834D01*
X179992113Y-95997735D01*
X180291751Y-96184371D01*
X180574667Y-96360654D01*
X180839107Y-96525490D01*
X181083315Y-96677790D01*
X181305537Y-96816463D01*
X181504018Y-96940417D01*
X181677002Y-97048561D01*
X181822734Y-97139804D01*
X181939460Y-97213057D01*
X182025425Y-97267226D01*
X182078873Y-97301222D01*
X182097986Y-97313887D01*
X182100859Y-97324910D01*
X182093611Y-97345977D01*
X182074309Y-97379653D01*
X182041020Y-97428501D01*
X181991811Y-97495087D01*
X181924749Y-97581975D01*
X181837900Y-97691729D01*
X181729332Y-97826913D01*
X181597112Y-97990092D01*
X181477564Y-98136925D01*
X181347935Y-98295270D01*
X181225914Y-98443095D01*
X181114183Y-98577234D01*
X181015427Y-98694525D01*
X180932328Y-98791802D01*
X180867571Y-98865902D01*
X180823838Y-98913659D01*
X180803813Y-98931910D01*
X180803311Y-98932001D01*
X180782106Y-98920925D01*
X180727465Y-98889011D01*
X180641892Y-98837791D01*
X180527889Y-98768797D01*
X180387960Y-98683563D01*
X180224610Y-98583621D01*
X180040340Y-98470503D01*
X179837654Y-98345742D01*
X179619056Y-98210872D01*
X179387050Y-98067424D01*
X179144137Y-97916931D01*
X179053067Y-97860434D01*
X178757495Y-97677404D01*
X178436477Y-97479338D01*
X178096721Y-97270337D01*
X177744935Y-97054500D01*
X177387827Y-96835927D01*
X177032104Y-96618718D01*
X176684475Y-96406975D01*
X176351647Y-96204796D01*
X176040329Y-96016282D01*
X175757229Y-95845533D01*
X175719317Y-95822732D01*
X175184942Y-95501390D01*
X174685989Y-95201190D01*
X174221535Y-94921570D01*
X173790656Y-94661965D01*
X173392429Y-94421814D01*
X173025931Y-94200553D01*
X172690238Y-93997619D01*
X172384426Y-93812450D01*
X172107573Y-93644481D01*
X171858755Y-93493150D01*
X171637049Y-93357894D01*
X171441531Y-93238150D01*
X171271278Y-93133355D01*
X171125366Y-93042945D01*
X171002873Y-92966359D01*
X170902874Y-92903032D01*
X170824446Y-92852402D01*
X170766667Y-92813905D01*
X170728612Y-92786979D01*
X170709358Y-92771061D01*
X170706563Y-92766184D01*
X170720694Y-92744153D01*
X170755800Y-92690218D01*
X170809609Y-92607850D01*
X170879844Y-92500523D01*
X170964234Y-92371709D01*
X171060503Y-92224880D01*
X171166377Y-92063510D01*
X171279582Y-91891071D01*
X171302049Y-91856860D01*
X171439539Y-91648058D01*
X171555900Y-91472633D01*
X171652765Y-91328270D01*
X171731769Y-91212653D01*
X171794546Y-91123468D01*
X171842730Y-91058399D01*
X171877955Y-91015131D01*
X171901856Y-90991349D01*
X171916067Y-90984738D01*
X171917430Y-90985071D01*
X171917430Y-90985071D01*
G37*
X171917430Y-90985071D02*
X171938572Y-90997406D01*
X171993888Y-91031025D01*
X172081621Y-91084837D01*
X172200017Y-91157752D01*
X172347322Y-91248678D01*
X172521780Y-91356525D01*
X172721636Y-91480201D01*
X172945135Y-91618616D01*
X173190522Y-91770678D01*
X173456043Y-91935296D01*
X173739941Y-92111380D01*
X174040464Y-92297838D01*
X174355854Y-92493580D01*
X174684357Y-92697514D01*
X175024219Y-92908549D01*
X175373684Y-93125595D01*
X175730998Y-93347560D01*
X176094405Y-93573354D01*
X176462150Y-93801885D01*
X176832478Y-94032063D01*
X177203635Y-94262796D01*
X177573866Y-94492993D01*
X177941414Y-94721564D01*
X178304526Y-94947417D01*
X178661447Y-95169462D01*
X179010421Y-95386607D01*
X179349693Y-95597761D01*
X179677509Y-95801834D01*
X179992113Y-95997735D01*
X180291751Y-96184371D01*
X180574667Y-96360654D01*
X180839107Y-96525490D01*
X181083315Y-96677790D01*
X181305537Y-96816463D01*
X181504018Y-96940417D01*
X181677002Y-97048561D01*
X181822734Y-97139804D01*
X181939460Y-97213057D01*
X182025425Y-97267226D01*
X182078873Y-97301222D01*
X182097986Y-97313887D01*
X182100859Y-97324910D01*
X182093611Y-97345977D01*
X182074309Y-97379653D01*
X182041020Y-97428501D01*
X181991811Y-97495087D01*
X181924749Y-97581975D01*
X181837900Y-97691729D01*
X181729332Y-97826913D01*
X181597112Y-97990092D01*
X181477564Y-98136925D01*
X181347935Y-98295270D01*
X181225914Y-98443095D01*
X181114183Y-98577234D01*
X181015427Y-98694525D01*
X180932328Y-98791802D01*
X180867571Y-98865902D01*
X180823838Y-98913659D01*
X180803813Y-98931910D01*
X180803311Y-98932001D01*
X180782106Y-98920925D01*
X180727465Y-98889011D01*
X180641892Y-98837791D01*
X180527889Y-98768797D01*
X180387960Y-98683563D01*
X180224610Y-98583621D01*
X180040340Y-98470503D01*
X179837654Y-98345742D01*
X179619056Y-98210872D01*
X179387050Y-98067424D01*
X179144137Y-97916931D01*
X179053067Y-97860434D01*
X178757495Y-97677404D01*
X178436477Y-97479338D01*
X178096721Y-97270337D01*
X177744935Y-97054500D01*
X177387827Y-96835927D01*
X177032104Y-96618718D01*
X176684475Y-96406975D01*
X176351647Y-96204796D01*
X176040329Y-96016282D01*
X175757229Y-95845533D01*
X175719317Y-95822732D01*
X175184942Y-95501390D01*
X174685989Y-95201190D01*
X174221535Y-94921570D01*
X173790656Y-94661965D01*
X173392429Y-94421814D01*
X173025931Y-94200553D01*
X172690238Y-93997619D01*
X172384426Y-93812450D01*
X172107573Y-93644481D01*
X171858755Y-93493150D01*
X171637049Y-93357894D01*
X171441531Y-93238150D01*
X171271278Y-93133355D01*
X171125366Y-93042945D01*
X171002873Y-92966359D01*
X170902874Y-92903032D01*
X170824446Y-92852402D01*
X170766667Y-92813905D01*
X170728612Y-92786979D01*
X170709358Y-92771061D01*
X170706563Y-92766184D01*
X170720694Y-92744153D01*
X170755800Y-92690218D01*
X170809609Y-92607850D01*
X170879844Y-92500523D01*
X170964234Y-92371709D01*
X171060503Y-92224880D01*
X171166377Y-92063510D01*
X171279582Y-91891071D01*
X171302049Y-91856860D01*
X171439539Y-91648058D01*
X171555900Y-91472633D01*
X171652765Y-91328270D01*
X171731769Y-91212653D01*
X171794546Y-91123468D01*
X171842730Y-91058399D01*
X171877955Y-91015131D01*
X171901856Y-90991349D01*
X171916067Y-90984738D01*
X171917430Y-90985071D01*
D11*
X168538200Y-123591000D03*
X168538200Y-126131000D03*
D12*
X165998200Y-123591000D03*
X165998200Y-126131000D03*
X163458200Y-123591000D03*
D13*
X163458200Y-126131000D03*
M02*
